<svg xmlns="http://www.w3.org/2000/svg" width="557" height="356" fill="none"><rect width="555" height="354" x="1" y="1" fill="#fff" rx="4"/><rect width="555" height="354" x="1" y="1" stroke="#FCC404" stroke-width="2" rx="4"/><path fill="#000" d="M29.158 27.006c0-3.618-2.646-6.21-6.282-6.21-3.618 0-6.264 2.592-6.264 6.21s2.646 6.21 6.264 6.21a6.736 6.736 0 0 0 2.862-.612l.954 1.134 1.782-1.458-.882-1.026c.99-1.08 1.566-2.556 1.566-4.248Zm-6.282 3.942c-2.214 0-3.636-1.71-3.636-3.942 0-2.25 1.422-3.942 3.636-3.942 2.214 0 3.654 1.692 3.654 3.942 0 .864-.216 1.656-.612 2.286L24.55 27.69l-1.782 1.44 1.368 1.602c-.378.144-.81.216-1.26.216ZM39.052 33v-8.694h-2.286v5.886c-.396.504-1.098.99-1.98.99-.972 0-1.602-.396-1.602-1.602v-5.274h-2.286v6.174c0 1.692.9 2.736 2.808 2.736 1.422 0 2.466-.648 3.06-1.314V33h2.286Zm9.776 0v-5.616c0-2.502-1.819-3.294-3.799-3.294-1.368 0-2.736.432-3.798 1.368l.864 1.53c.739-.684 1.602-1.026 2.538-1.026 1.152 0 1.908.576 1.908 1.458v1.206c-.575-.702-1.601-1.062-2.753-1.062-1.386 0-3.024.738-3.024 2.772 0 1.944 1.637 2.88 3.023 2.88 1.135 0 2.16-.414 2.755-1.116v.9h2.285Zm-2.287-2.088c-.377.504-1.097.756-1.835.756-.9 0-1.639-.468-1.639-1.278 0-.828.739-1.314 1.639-1.314.737 0 1.457.252 1.835.756v1.08ZM53.382 33V20.994h-2.286V33h2.286Zm3.4-9.972a1.367 1.367 0 1 0 0-2.736c-.737 0-1.367.612-1.367 1.368 0 .756.63 1.368 1.368 1.368ZM57.935 33v-8.694h-2.286V33h2.286Zm9.286-9.972a1.367 1.367 0 1 0 0-2.736c-.738 0-1.368.612-1.368 1.368 0 .756.63 1.368 1.368 1.368Zm-4.212 3.276h1.764v-1.998h-1.764v-.468c0-.792.432-1.224 1.08-1.224.306 0 .558.09.738.216l.468-1.656c-.414-.216-1.008-.36-1.656-.36-1.71 0-2.934 1.134-2.934 3.024v.468h-1.44v1.998h1.44V33h2.304v-6.696ZM68.372 33v-8.694h-2.286V33h2.286Zm1.712-4.356c0 2.682 1.926 4.572 4.608 4.572 1.782 0 2.862-.774 3.438-1.584l-1.494-1.386a2.194 2.194 0 0 1-1.836.936c-1.386 0-2.358-1.026-2.358-2.538 0-1.512.972-2.52 2.358-2.52.792 0 1.422.342 1.836.936l1.494-1.386c-.576-.81-1.656-1.584-3.438-1.584-2.682 0-4.608 1.89-4.608 4.554ZM87.13 33v-5.616c0-2.502-1.818-3.294-3.798-3.294-1.368 0-2.736.432-3.798 1.368l.864 1.53c.738-.684 1.602-1.026 2.538-1.026 1.152 0 1.908.576 1.908 1.458v1.206c-.576-.702-1.602-1.062-2.754-1.062-1.386 0-3.024.738-3.024 2.772 0 1.944 1.638 2.88 3.024 2.88 1.134 0 2.16-.414 2.754-1.116v.9h2.286Zm-2.286-2.088c-.378.504-1.098.756-1.836.756-.9 0-1.638-.468-1.638-1.278 0-.828.738-1.314 1.638-1.314.738 0 1.458.252 1.836.756v1.08Zm7.47 2.304c.954 0 1.566-.252 1.908-.558l-.486-1.728c-.126.126-.45.252-.792.252-.504 0-.792-.414-.792-.954v-3.924h1.764v-1.998h-1.764V21.93h-2.304v2.376h-1.44v1.998h1.44v4.536c0 1.548.864 2.376 2.466 2.376Zm4.3-10.188a1.367 1.367 0 1 0 0-2.736c-.738 0-1.368.612-1.368 1.368 0 .756.63 1.368 1.368 1.368ZM97.766 33v-8.694H95.48V33h2.286Zm6.298.216c2.88 0 4.608-2.088 4.608-4.572 0-2.466-1.728-4.554-4.608-4.554-2.862 0-4.59 2.088-4.59 4.554 0 2.484 1.728 4.572 4.59 4.572Zm0-2.034c-1.422 0-2.214-1.17-2.214-2.538 0-1.35.792-2.52 2.214-2.52s2.232 1.17 2.232 2.52c0 1.368-.81 2.538-2.232 2.538ZM118.522 33v-6.138c0-1.692-.918-2.772-2.826-2.772-1.422 0-2.484.684-3.042 1.35v-1.134h-2.286V33h2.286v-5.85c.378-.522 1.08-1.026 1.98-1.026.972 0 1.602.414 1.602 1.62V33h2.286Zm11.664 0c3.762 0 6.372-2.376 6.372-5.994s-2.61-6.012-6.372-6.012h-4.734V33h4.734Zm-2.178-9.756h2.178c2.466 0 3.762 1.638 3.762 3.762 0 2.034-1.386 3.744-3.762 3.744h-2.178v-7.506Zm9.752 5.4c0 2.79 1.998 4.572 4.644 4.572 1.35 0 2.7-.396 3.582-1.206l-1.008-1.476c-.558.54-1.512.864-2.322.864-1.476 0-2.358-.918-2.502-2.016h6.462v-.504c0-2.844-1.764-4.788-4.356-4.788-2.646 0-4.5 2.034-4.5 4.554Zm4.5-2.736c1.512 0 2.088 1.098 2.142 1.926h-4.284c.108-.864.72-1.926 2.142-1.926Zm8.923 7.308c.954 0 1.566-.252 1.908-.558l-.486-1.728c-.126.126-.45.252-.792.252-.504 0-.792-.414-.792-.954v-3.924h1.764v-1.998h-1.764V21.93h-2.304v2.376h-1.44v1.998h1.44v4.536c0 1.548.864 2.376 2.466 2.376ZM161.855 33v-5.616c0-2.502-1.818-3.294-3.798-3.294-1.368 0-2.736.432-3.798 1.368l.864 1.53c.738-.684 1.602-1.026 2.538-1.026 1.152 0 1.908.576 1.908 1.458v1.206c-.576-.702-1.602-1.062-2.754-1.062-1.386 0-3.024.738-3.024 2.772 0 1.944 1.638 2.88 3.024 2.88 1.134 0 2.16-.414 2.754-1.116v.9h2.286Zm-2.286-2.088c-.378.504-1.098.756-1.836.756-.9 0-1.638-.468-1.638-1.278 0-.828.738-1.314 1.638-1.314.738 0 1.458.252 1.836.756v1.08Zm5.687-7.884a1.367 1.367 0 1 0 0-2.736c-.738 0-1.368.612-1.368 1.368 0 .756.63 1.368 1.368 1.368ZM166.408 33v-8.694h-2.286V33h2.286Zm4.553 0V20.994h-2.286V33h2.286Zm1.511-1.134c.918.846 2.376 1.35 3.888 1.35 2.412 0 3.762-1.188 3.762-2.79 0-2.16-1.998-2.556-3.492-2.844-.972-.198-1.656-.396-1.656-.936 0-.504.54-.81 1.368-.81 1.062 0 2.052.45 2.574 1.008l.9-1.566c-.846-.684-2.016-1.188-3.492-1.188-2.286 0-3.564 1.278-3.564 2.736 0 2.07 1.926 2.43 3.42 2.718.99.198 1.746.414 1.746 1.026 0 .54-.468.882-1.458.882-1.08 0-2.376-.594-3.006-1.188l-.99 1.602Z"/><g clip-path="url(#a)"><path fill="#FCC404" d="M32.15 62a17.932 17.932 0 0 0-9.61 4l2.574 2.578a14.337 14.337 0 0 1 7.035-2.929V62Zm3.608 0v3.659a14.412 14.412 0 0 1 9.021 4.78 14.48 14.48 0 0 1 3.61 9.566 14.48 14.48 0 0 1-3.61 9.568 14.412 14.412 0 0 1-9.02 4.779v3.653c4.45-.45 8.575-2.54 11.575-5.866 3-3.326 4.661-7.65 4.661-12.134s-1.66-8.808-4.66-12.134a18.031 18.031 0 0 0-11.577-5.866V62ZM19.99 68.557A18.015 18.015 0 0 0 16 78.188h3.64a14.41 14.41 0 0 1 2.922-7.051l-2.572-2.58ZM41.7 73.29l-9.55 9.576-4.139-4.149-2.552 2.559 6.69 6.702L44.253 75.85 41.7 73.29ZM16 81.804a18.024 18.024 0 0 0 3.99 9.634l2.576-2.582a14.41 14.41 0 0 1-2.916-7.052H16Zm9.114 9.614-2.573 2.579a17.932 17.932 0 0 0 9.604 4v-3.651a14.337 14.337 0 0 1-7.03-2.93v.002Z"/></g><path fill="#FCC404" d="M72.087 69.672c0-3.216-2.352-5.52-5.584-5.52-3.216 0-5.568 2.304-5.568 5.52 0 3.216 2.352 5.52 5.568 5.52.928 0 1.792-.192 2.544-.544l.848 1.008 1.584-1.296-.784-.912c.88-.96 1.392-2.272 1.392-3.776Zm-5.584 3.504c-1.968 0-3.232-1.52-3.232-3.504 0-2 1.264-3.504 3.232-3.504 1.968 0 3.248 1.504 3.248 3.504 0 .768-.192 1.472-.544 2.032L67.99 70.28l-1.584 1.28 1.216 1.424c-.336.128-.72.192-1.12.192Zm7.178-2.432c0 2.624 1.52 4.448 4.784 4.448 3.232 0 4.752-1.808 4.752-4.464v-6.4h-2.304v6.336c0 1.488-.816 2.512-2.448 2.512-1.664 0-2.48-1.024-2.48-2.512v-6.336h-2.304v6.416ZM94.742 75 90.63 64.328h-2.848L83.654 75h2.496l.672-1.84h4.768l.672 1.84h2.48Zm-3.776-3.808H87.43l1.776-4.896 1.76 4.896ZM102.512 75v-2H98v-8.672h-2.272V75h6.784Zm3.863 0V64.328h-2.272V75h2.272Zm4.391 0v-4.448h5.168V68.6h-5.168v-2.32h5.28v-1.952h-7.553V75h2.273Zm9.14 0V64.328h-2.272V75h2.272Zm9.671 0v-1.968h-5.28v-2.48h5.168V68.6h-5.168v-2.32h5.28v-1.952h-7.552V75h7.552Zm5.984 0c3.344 0 5.664-2.112 5.664-5.328s-2.32-5.344-5.664-5.344h-4.208V75h4.208Zm-1.936-8.672h1.936c2.192 0 3.344 1.456 3.344 3.344 0 1.808-1.232 3.328-3.344 3.328h-1.936v-6.672Zm16.714 10.864c-1.088-1.92-1.616-3.68-1.616-6.08s.528-4.16 1.616-6.112l-1.28-.96c-1.552 1.76-2.528 4.496-2.528 7.072 0 2.576.976 5.328 2.528 7.072l1.28-.992ZM162.257 75l3.04-10.672h-2.56l-1.856 7.712-2.016-7.712h-1.776l-2.032 7.712-1.872-7.712h-2.544L153.697 75h2.416l1.856-7.328L159.841 75h2.416Zm5.072-8.864a1.215 1.215 0 1 0 0-2.432c-.656 0-1.216.544-1.216 1.216 0 .672.56 1.216 1.216 1.216ZM168.353 75v-7.728h-2.032V75h2.032Zm4.606.192c.848 0 1.392-.224 1.696-.496l-.432-1.536c-.112.112-.4.224-.704.224-.448 0-.704-.368-.704-.848v-3.488h1.568v-1.776h-1.568V65.16h-2.048v2.112h-1.28v1.776h1.28v4.032c0 1.376.768 2.112 2.192 2.112ZM183.038 75v-5.488c0-1.504-.816-2.432-2.512-2.432-1.264 0-2.224.608-2.72 1.2v-3.952h-2.032V75h2.032v-5.2c.352-.464.976-.912 1.76-.912.88 0 1.44.336 1.44 1.408V75h2.032Zm13.711 0v-1.968h-5.28v-2.48h5.168V68.6h-5.168v-2.32h5.28v-1.952h-7.552V75h7.552Zm8.784 0-2.768-3.968 2.592-3.76h-2.272l-1.584 2.384-1.6-2.384h-2.272l2.576 3.76L197.469 75h2.256l1.776-2.608 1.76 2.608h2.272Zm.12-3.872c0 2.384 1.712 4.064 4.096 4.064 1.584 0 2.544-.688 3.056-1.408l-1.328-1.232a1.95 1.95 0 0 1-1.632.832c-1.232 0-2.096-.912-2.096-2.256 0-1.344.864-2.24 2.096-2.24.704 0 1.264.304 1.632.832l1.328-1.232c-.512-.72-1.472-1.408-3.056-1.408-2.384 0-4.096 1.68-4.096 4.048Zm7.984 0c0 2.48 1.776 4.064 4.128 4.064 1.2 0 2.4-.352 3.184-1.072l-.896-1.312c-.496.48-1.344.768-2.064.768-1.312 0-2.096-.816-2.224-1.792h5.744v-.448c0-2.528-1.568-4.256-3.872-4.256-2.352 0-4 1.808-4 4.048Zm4-2.432c1.344 0 1.856.976 1.904 1.712h-3.808c.096-.768.64-1.712 1.904-1.712Zm7.372 5.312c.624.8 1.472 1.184 2.384 1.184 1.984 0 3.424-1.488 3.424-4.064s-1.44-4.048-3.424-4.048c-.944 0-1.792.416-2.384 1.168v-.976h-2.032v10.672h2.032v-3.936Zm3.696-2.88c0 1.344-.784 2.256-1.952 2.256-.656 0-1.408-.4-1.744-.88v-2.736c.336-.496 1.088-.88 1.744-.88 1.168 0 1.952.912 1.952 2.24Zm6.223 4.064c.848 0 1.392-.224 1.696-.496l-.432-1.536c-.112.112-.4.224-.704.224-.448 0-.704-.368-.704-.848v-3.488h1.568v-1.776h-1.568V65.16h-2.048v2.112h-1.28v1.776h1.28v4.032c0 1.376.768 2.112 2.192 2.112Zm3.822-9.056a1.215 1.215 0 1 0 0-2.432c-.656 0-1.216.544-1.216 1.216 0 .672.56 1.216 1.216 1.216ZM239.774 75v-7.728h-2.032V75h2.032Zm5.599.192c2.56 0 4.096-1.856 4.096-4.064 0-2.192-1.536-4.048-4.096-4.048-2.544 0-4.08 1.856-4.08 4.048 0 2.208 1.536 4.064 4.08 4.064Zm0-1.808c-1.264 0-1.968-1.04-1.968-2.256 0-1.2.704-2.24 1.968-2.24s1.984 1.04 1.984 2.24c0 1.216-.72 2.256-1.984 2.256ZM258.225 75v-5.456c0-1.504-.816-2.464-2.512-2.464-1.264 0-2.208.608-2.704 1.2v-1.008h-2.032V75h2.032v-5.2c.336-.464.96-.912 1.76-.912.864 0 1.424.368 1.424 1.44V75h2.032Zm1.345-1.008c.816.752 2.112 1.2 3.456 1.2 2.144 0 3.344-1.056 3.344-2.48 0-1.92-1.776-2.272-3.104-2.528-.864-.176-1.472-.352-1.472-.832 0-.448.48-.72 1.216-.72.944 0 1.824.4 2.288.896l.8-1.392c-.752-.608-1.792-1.056-3.104-1.056-2.032 0-3.168 1.136-3.168 2.432 0 1.84 1.712 2.16 3.04 2.416.88.176 1.552.368 1.552.912 0 .48-.416.784-1.296.784-.96 0-2.112-.528-2.672-1.056l-.88 1.424Zm9.193-2.88c0 2.4-.528 4.16-1.632 6.08l1.28.992c1.568-1.744 2.56-4.496 2.56-7.072 0-2.576-.992-5.312-2.56-7.072l-1.28.96c1.104 1.952 1.632 3.712 1.632 6.112Z"/><path fill="#71717A" d="M67.514 94v-1.036h-4.956v-3.22h4.858v-1.036h-4.858v-3.01h4.956v-1.036h-6.118V94h6.118Zm7.41 0-2.604-3.472 2.45-3.29h-1.218l-1.876 2.576-1.876-2.576h-1.218l2.45 3.29L68.442 94h1.204l2.03-2.772L73.706 94h1.218Zm2.259-1.022c.546.756 1.358 1.19 2.282 1.19 1.778 0 3.01-1.372 3.01-3.556 0-2.198-1.232-3.542-3.01-3.542-.952 0-1.792.49-2.282 1.176v-1.008h-1.05v9.338h1.05v-3.598Zm4.186-2.366c0 1.498-.812 2.618-2.17 2.618-.826 0-1.652-.504-2.016-1.092v-3.052c.364-.588 1.19-1.078 2.016-1.078 1.358 0 2.17 1.106 2.17 2.604Zm3.321-4.508a.717.717 0 0 0 .714-.714c0-.392-.322-.7-.714-.7-.378 0-.7.308-.7.7 0 .392.322.714.7.714ZM85.222 94v-6.762h-1.05V94h1.05Zm3.145 0v-4.788c.308-.546 1.19-1.078 1.834-1.078.168 0 .294.014.42.042v-1.078c-.924 0-1.708.518-2.254 1.232v-1.092h-1.05V94h1.05Zm3.179-3.388c0 2.114 1.442 3.556 3.444 3.556 1.106 0 2.016-.364 2.688-1.036l-.504-.686c-.532.546-1.316.854-2.086.854-1.456 0-2.352-1.064-2.436-2.338h5.474v-.266c0-2.03-1.204-3.626-3.248-3.626-1.932 0-3.332 1.582-3.332 3.542Zm3.318-2.674c1.54 0 2.212 1.246 2.226 2.254h-4.438c.056-1.036.77-2.254 2.212-2.254Zm4.374 5.166c.686.728 1.624 1.064 2.73 1.064 1.75 0 2.66-.91 2.66-2.044 0-1.498-1.358-1.834-2.534-2.1-.882-.21-1.652-.42-1.652-1.078 0-.602.574-1.022 1.498-1.022.868 0 1.61.364 2.016.854l.49-.728c-.546-.546-1.358-.98-2.506-.98-1.61 0-2.52.896-2.52 1.946 0 1.4 1.302 1.708 2.45 1.974.91.224 1.736.462 1.736 1.204 0 .658-.56 1.12-1.596 1.12-.924 0-1.778-.448-2.226-.966l-.546.756Zm6.886-5.194c0 .42.35.77.77.77.42 0 .77-.35.77-.77 0-.42-.35-.77-.77-.77-.42 0-.77.35-.77.77Zm0 5.46c0 .42.35.77.77.77.42 0 .77-.35.77-.77 0-.42-.35-.77-.77-.77-.42 0-.77.35-.77.77Zm6.15-.28c.644.756 1.442 1.078 2.436 1.078 1.666 0 2.968-.952 2.968-2.982v-6.524h-1.162v6.51c0 1.162-.728 1.96-1.876 1.96-.812 0-1.358-.434-1.764-.924l-.602.882Zm12.819.91v-4.648c0-1.638-1.19-2.282-2.618-2.282-1.106 0-1.974.364-2.702 1.12l.49.728c.602-.644 1.26-.938 2.072-.938.98 0 1.708.518 1.708 1.428v1.218c-.546-.63-1.316-.924-2.24-.924-1.148 0-2.366.714-2.366 2.226 0 1.47 1.218 2.24 2.366 2.24.91 0 1.68-.322 2.24-.938V94h1.05Zm-1.05-1.428c-.406.56-1.12.84-1.862.84-.98 0-1.666-.616-1.666-1.47 0-.868.686-1.484 1.666-1.484.742 0 1.456.28 1.862.84v1.274ZM132.811 94v-4.746c0-1.47-.742-2.184-2.156-2.184-1.008 0-1.932.588-2.408 1.148v-.98h-1.05V94h1.05v-4.942c.392-.546 1.176-1.05 2.002-1.05.91 0 1.512.378 1.512 1.568V94h1.05Zm7.711 0v-6.762h-1.05v4.97c-.392.546-1.176 1.022-2.002 1.022-.91 0-1.512-.35-1.512-1.54v-4.452h-1.05v4.774c0 1.47.742 2.156 2.156 2.156 1.008 0 1.89-.532 2.408-1.12V94h1.05Zm7.375 0v-4.648c0-1.638-1.19-2.282-2.618-2.282-1.106 0-1.974.364-2.702 1.12l.49.728c.602-.644 1.26-.938 2.072-.938.98 0 1.708.518 1.708 1.428v1.218c-.546-.63-1.316-.924-2.24-.924-1.148 0-2.366.714-2.366 2.226 0 1.47 1.218 2.24 2.366 2.24.91 0 1.68-.322 2.24-.938V94h1.05Zm-1.05-1.428c-.406.56-1.12.84-1.862.84-.98 0-1.666-.616-1.666-1.47 0-.868.686-1.484 1.666-1.484.742 0 1.456.28 1.862.84v1.274ZM151.052 94v-4.788c.308-.546 1.19-1.078 1.834-1.078.168 0 .294.014.42.042v-1.078c-.924 0-1.708.518-2.254 1.232v-1.092h-1.05V94h1.05Zm3.193 2.646c.196.056.546.098.77.098.896-.014 1.582-.392 1.988-1.372l3.388-8.134h-1.148l-2.24 5.544-2.254-5.544h-1.134l2.828 6.832-.448 1.022c-.238.56-.546.714-1.008.714a1.61 1.61 0 0 1-.574-.112l-.168.952ZM167.7 94v-9.338h-1.022l-2.338 2.408.7.714 1.498-1.582V94h1.162Zm8.258 0v-1.036h-4.578c2.604-2.058 4.536-3.794 4.536-5.698 0-1.862-1.582-2.744-3.136-2.744-1.316 0-2.534.532-3.248 1.47l.714.742c.546-.7 1.414-1.176 2.534-1.176.966 0 1.946.518 1.946 1.708 0 1.61-1.82 3.164-5.18 5.81V94h6.412Zm2.379 1.778c.644-.462 1.148-1.26 1.148-2.114 0-.672-.42-1.064-.882-1.064a.75.75 0 0 0-.742.756c0 .42.28.714.672.714.07 0 .168-.014.196-.028-.056.462-.462 1.008-.91 1.302l.518.434ZM191.024 94v-1.036h-4.578c2.604-2.058 4.536-3.794 4.536-5.698 0-1.862-1.582-2.744-3.136-2.744-1.316 0-2.534.532-3.248 1.47l.714.742c.546-.7 1.414-1.176 2.534-1.176.966 0 1.946.518 1.946 1.708 0 1.61-1.82 3.164-5.18 5.81V94h6.412Zm1.777-4.662c0 2.268 1.008 4.83 3.57 4.83 2.548 0 3.57-2.562 3.57-4.83 0-2.282-1.022-4.816-3.57-4.816-2.562 0-3.57 2.534-3.57 4.816Zm5.95 0c0 1.862-.602 3.794-2.38 3.794s-2.38-1.932-2.38-3.794.602-3.78 2.38-3.78 2.38 1.918 2.38 3.78ZM207.827 94v-1.036h-4.578c2.604-2.058 4.536-3.794 4.536-5.698 0-1.862-1.582-2.744-3.136-2.744-1.316 0-2.534.532-3.248 1.47l.714.742c.546-.7 1.414-1.176 2.534-1.176.966 0 1.946.518 1.946 1.708 0 1.61-1.82 3.164-5.18 5.81V94h6.412Zm7.111 0v-2.366h1.316v-1.022h-1.316v-5.95h-1.596l-4.004 6.006v.966h4.438V94h1.162Zm-1.162-3.388H210.5l3.276-4.872v4.872ZM16.608 129.496c.88.992 2.24 1.696 4.096 1.696 2.88 0 3.936-1.584 3.936-3.136 0-2.24-1.984-2.784-3.728-3.248-1.36-.368-2.592-.688-2.592-1.76 0-1.008.912-1.696 2.192-1.696 1.168 0 2.288.4 3.088 1.28l.8-.976c-.896-.944-2.16-1.488-3.792-1.488-2.096 0-3.664 1.2-3.664 2.96 0 2.096 1.904 2.576 3.616 3.024 1.408.384 2.704.736 2.704 2.016 0 .816-.608 1.84-2.512 1.84-1.504 0-2.656-.736-3.36-1.52l-.784 1.008Zm10.559-7.52a.82.82 0 0 0 .816-.816c0-.448-.368-.8-.816-.8-.432 0-.8.352-.8.8 0 .448.368.816.8.816Zm.608 9.024v-7.728h-1.2V131h1.2Zm8.81 0v-5.424c0-1.68-.848-2.496-2.464-2.496-1.152 0-2.208.672-2.752 1.312v-1.12h-1.2V131h1.2v-5.648c.448-.624 1.344-1.2 2.288-1.2 1.04 0 1.728.432 1.728 1.792V131h1.2Zm2.38 1.984c.912.896 1.808 1.152 3.12 1.152 1.888 0 3.68-.8 3.68-3.36v-7.504h-1.2v1.168c-.624-.848-1.552-1.36-2.592-1.36-2.032 0-3.44 1.536-3.44 4.016 0 2.496 1.424 4 3.44 4 1.088 0 2.032-.592 2.592-1.376v1.104c0 1.696-1.2 2.32-2.48 2.32-1.104 0-1.872-.288-2.512-1.056l-.608.896Zm5.6-4.208c-.416.672-1.344 1.264-2.304 1.264-1.552 0-2.48-1.248-2.48-2.944 0-1.712.928-2.944 2.48-2.944.96 0 1.888.576 2.304 1.248v3.376ZM49.37 131v-10.672h-1.2V131h1.2Zm1.946-3.872c0 2.416 1.648 4.064 3.936 4.064 1.264 0 2.303-.416 3.072-1.184l-.577-.784c-.608.624-1.504.976-2.384.976-1.663 0-2.688-1.216-2.784-2.672h6.256v-.304c0-2.32-1.376-4.144-3.712-4.144-2.208 0-3.807 1.808-3.807 4.048Zm3.791-3.056c1.76 0 2.529 1.424 2.544 2.576h-5.072c.064-1.184.88-2.576 2.528-2.576Z"/><path fill="#27272A" d="M459.704 128.056c0-2.096-1.744-2.704-3.392-3.168v-3.472c.896.128 1.728.512 2.352 1.216l.8-.976c-.768-.816-1.824-1.344-3.152-1.456v-1.488h-.976v1.456c-1.92.128-3.328 1.296-3.328 2.96 0 1.968 1.696 2.528 3.328 2.96v3.888c-1.264-.128-2.24-.784-2.864-1.488l-.8 1.008c.8.912 2.032 1.584 3.664 1.68v1.424h.976v-1.44c2.48-.176 3.392-1.664 3.392-3.104Zm-6.32-5.008c0-.944.8-1.616 1.952-1.68v3.264c-1.072-.304-1.952-.672-1.952-1.584Zm2.928 3.296c1.104.336 2.032.736 2.032 1.824 0 .736-.496 1.664-2.032 1.792v-3.616ZM464.66 131v-10.672h-1.168l-2.672 2.752.8.816 1.712-1.808V131h1.328Zm2.062-5.328c0 2.592 1.152 5.52 4.08 5.52 2.912 0 4.08-2.928 4.08-5.52 0-2.608-1.168-5.504-4.08-5.504-2.928 0-4.08 2.896-4.08 5.504Zm6.8 0c0 2.128-.688 4.336-2.72 4.336s-2.72-2.208-2.72-4.336.688-4.32 2.72-4.32 2.72 2.192 2.72 4.32Zm3.185 7.36c.736-.528 1.312-1.44 1.312-2.416 0-.768-.48-1.216-1.008-1.216-.48 0-.848.4-.848.864 0 .48.32.816.768.816.08 0 .192-.016.224-.032-.064.528-.528 1.152-1.04 1.488l.592.496Zm3-7.36c0 2.592 1.152 5.52 4.08 5.52 2.912 0 4.08-2.928 4.08-5.52 0-2.608-1.168-5.504-4.08-5.504-2.928 0-4.08 2.896-4.08 5.504Zm6.8 0c0 2.128-.688 4.336-2.72 4.336s-2.72-2.208-2.72-4.336.688-4.32 2.72-4.32 2.72 2.192 2.72 4.32Zm2.997 0c0 2.592 1.152 5.52 4.08 5.52 2.912 0 4.08-2.928 4.08-5.52 0-2.608-1.168-5.504-4.08-5.504-2.928 0-4.08 2.896-4.08 5.504Zm6.8 0c0 2.128-.688 4.336-2.72 4.336s-2.72-2.208-2.72-4.336.688-4.32 2.72-4.32 2.72 2.192 2.72 4.32Zm2.996 0c0 2.592 1.152 5.52 4.08 5.52 2.912 0 4.08-2.928 4.08-5.52 0-2.608-1.168-5.504-4.08-5.504-2.928 0-4.08 2.896-4.08 5.504Zm6.8 0c0 2.128-.688 4.336-2.72 4.336s-2.72-2.208-2.72-4.336.688-4.32 2.72-4.32 2.72 2.192 2.72 4.32Zm3.185 7.36c.736-.528 1.312-1.44 1.312-2.416 0-.768-.48-1.216-1.008-1.216-.48 0-.848.4-.848.864 0 .48.32.816.768.816.08 0 .192-.016.224-.032-.064.528-.528 1.152-1.04 1.488l.592.496Zm3-7.36c0 2.592 1.152 5.52 4.08 5.52 2.912 0 4.08-2.928 4.08-5.52 0-2.608-1.168-5.504-4.08-5.504-2.928 0-4.08 2.896-4.08 5.504Zm6.8 0c0 2.128-.688 4.336-2.72 4.336s-2.72-2.208-2.72-4.336.688-4.32 2.72-4.32 2.72 2.192 2.72 4.32Zm2.997 0c0 2.592 1.152 5.52 4.08 5.52 2.912 0 4.08-2.928 4.08-5.52 0-2.608-1.168-5.504-4.08-5.504-2.928 0-4.08 2.896-4.08 5.504Zm6.8 0c0 2.128-.688 4.336-2.72 4.336s-2.72-2.208-2.72-4.336.688-4.32 2.72-4.32 2.72 2.192 2.72 4.32Zm2.997 0c0 2.592 1.152 5.52 4.08 5.52 2.912 0 4.08-2.928 4.08-5.52 0-2.608-1.168-5.504-4.08-5.504-2.928 0-4.08 2.896-4.08 5.504Zm6.8 0c0 2.128-.688 4.336-2.72 4.336s-2.72-2.208-2.72-4.336.688-4.32 2.72-4.32 2.72 2.192 2.72 4.32Z"/><path stroke="#D4D4D8" d="M16 143.5h525"/><path fill="#71717A" d="m26.384 167-4.304-10.672h-1.648L16.144 167h1.472l.944-2.368h5.408l.944 2.368h1.472Zm-2.816-3.552h-4.624l2.32-5.936 2.304 5.936Zm4.147 5.536c.912.896 1.808 1.152 3.12 1.152 1.888 0 3.68-.8 3.68-3.36v-7.504h-1.2v1.168c-.624-.848-1.552-1.36-2.592-1.36-2.032 0-3.44 1.536-3.44 4.016 0 2.496 1.424 4 3.44 4 1.088 0 2.032-.592 2.592-1.376v1.104c0 1.696-1.2 2.32-2.48 2.32-1.104 0-1.872-.288-2.512-1.056l-.608.896Zm5.6-4.208c-.416.672-1.344 1.264-2.304 1.264-1.552 0-2.48-1.248-2.48-2.944 0-1.712.928-2.944 2.48-2.944.96 0 1.888.576 2.304 1.248v3.376Zm3.588 4.208c.912.896 1.808 1.152 3.12 1.152 1.888 0 3.68-.8 3.68-3.36v-7.504h-1.2v1.168c-.624-.848-1.552-1.36-2.592-1.36-2.032 0-3.44 1.536-3.44 4.016 0 2.496 1.424 4 3.44 4 1.088 0 2.032-.592 2.592-1.376v1.104c0 1.696-1.2 2.32-2.48 2.32-1.104 0-1.872-.288-2.512-1.056l-.608.896Zm5.6-4.208c-.416.672-1.344 1.264-2.304 1.264-1.552 0-2.48-1.248-2.48-2.944 0-1.712.928-2.944 2.48-2.944.96 0 1.888.576 2.304 1.248v3.376ZM47.306 167v-5.472c.352-.624 1.36-1.232 2.096-1.232.192 0 .336.016.48.048v-1.232c-1.056 0-1.952.592-2.576 1.408v-1.248h-1.2V167h1.2Zm3.634-3.872c0 2.416 1.648 4.064 3.936 4.064 1.264 0 2.303-.416 3.072-1.184l-.577-.784c-.608.624-1.504.976-2.384.976-1.663 0-2.688-1.216-2.784-2.672h6.256v-.304c0-2.32-1.376-4.144-3.712-4.144-2.208 0-3.807 1.808-3.807 4.048Zm3.791-3.056c1.76 0 2.529 1.424 2.544 2.576h-5.072c.064-1.184.88-2.576 2.528-2.576Zm5.656 8.912c.912.896 1.808 1.152 3.12 1.152 1.888 0 3.68-.8 3.68-3.36v-7.504h-1.2v1.168c-.624-.848-1.552-1.36-2.592-1.36-2.032 0-3.44 1.536-3.44 4.016 0 2.496 1.424 4 3.44 4 1.088 0 2.032-.592 2.592-1.376v1.104c0 1.696-1.2 2.32-2.48 2.32-1.104 0-1.872-.288-2.512-1.056l-.608.896Zm5.6-4.208c-.416.672-1.344 1.264-2.304 1.264-1.552 0-2.48-1.248-2.48-2.944 0-1.712.928-2.944 2.48-2.944.96 0 1.888.576 2.304 1.248v3.376ZM75.623 167v-5.312c0-1.872-1.36-2.608-2.992-2.608-1.264 0-2.256.416-3.088 1.28l.56.832c.688-.736 1.44-1.072 2.368-1.072 1.12 0 1.952.592 1.952 1.632v1.392c-.624-.72-1.504-1.056-2.56-1.056-1.312 0-2.704.816-2.704 2.544 0 1.68 1.392 2.56 2.704 2.56 1.04 0 1.92-.368 2.56-1.072v.88h1.2Zm-1.2-1.632c-.464.64-1.28.96-2.128.96-1.12 0-1.904-.704-1.904-1.68 0-.992.784-1.696 1.904-1.696.848 0 1.664.32 2.128.96v1.456Zm5.557 1.824c.704 0 1.136-.208 1.44-.496l-.352-.896c-.16.176-.48.32-.816.32-.528 0-.784-.416-.784-.992v-4.8h1.568v-1.056h-1.568v-2.112h-1.2v2.112h-1.28v1.056h1.28v5.056c0 1.152.576 1.808 1.712 1.808Zm2.303-4.064c0 2.416 1.648 4.064 3.936 4.064 1.264 0 2.304-.416 3.072-1.184l-.576-.784c-.608.624-1.504.976-2.384.976-1.664 0-2.688-1.216-2.784-2.672h6.256v-.304c0-2.32-1.376-4.144-3.712-4.144-2.208 0-3.808 1.808-3.808 4.048Zm3.792-3.056c1.76 0 2.528 1.424 2.544 2.576h-5.072c.064-1.184.88-2.576 2.528-2.576Z"/><path fill="#27272A" d="M455.704 164.056c0-2.096-1.744-2.704-3.392-3.168v-3.472c.896.128 1.728.512 2.352 1.216l.8-.976c-.768-.816-1.824-1.344-3.152-1.456v-1.488h-.976v1.456c-1.92.128-3.328 1.296-3.328 2.96 0 1.968 1.696 2.528 3.328 2.96v3.888c-1.264-.128-2.24-.784-2.864-1.488l-.8 1.008c.8.912 2.032 1.584 3.664 1.68v1.424h.976v-1.44c2.48-.176 3.392-1.664 3.392-3.104Zm-6.32-5.008c0-.944.8-1.616 1.952-1.68v3.264c-1.072-.304-1.952-.672-1.952-1.584Zm2.928 3.296c1.104.336 2.032.736 2.032 1.824 0 .736-.496 1.664-2.032 1.792v-3.616ZM464.676 167v-1.184h-5.232c2.976-2.352 5.184-4.336 5.184-6.512 0-2.128-1.808-3.136-3.584-3.136-1.504 0-2.896.608-3.712 1.68l.816.848c.624-.8 1.616-1.344 2.896-1.344 1.104 0 2.224.592 2.224 1.952 0 1.84-2.08 3.616-5.92 6.64V167h7.328Zm2.031-5.328c0 2.592 1.152 5.52 4.08 5.52 2.912 0 4.08-2.928 4.08-5.52 0-2.608-1.168-5.504-4.08-5.504-2.928 0-4.08 2.896-4.08 5.504Zm6.8 0c0 2.128-.688 4.336-2.72 4.336s-2.72-2.208-2.72-4.336.688-4.32 2.72-4.32 2.72 2.192 2.72 4.32Zm3.185 7.36c.736-.528 1.312-1.44 1.312-2.416 0-.768-.48-1.216-1.008-1.216-.48 0-.848.4-.848.864 0 .48.32.816.768.816.08 0 .192-.016.224-.032-.064.528-.528 1.152-1.04 1.488l.592.496Zm2.999-7.36c0 2.592 1.152 5.52 4.08 5.52 2.912 0 4.08-2.928 4.08-5.52 0-2.608-1.168-5.504-4.08-5.504-2.928 0-4.08 2.896-4.08 5.504Zm6.8 0c0 2.128-.688 4.336-2.72 4.336s-2.72-2.208-2.72-4.336.688-4.32 2.72-4.32 2.72 2.192 2.72 4.32Zm2.997 0c0 2.592 1.152 5.52 4.08 5.52 2.912 0 4.08-2.928 4.08-5.52 0-2.608-1.168-5.504-4.08-5.504-2.928 0-4.08 2.896-4.08 5.504Zm6.8 0c0 2.128-.688 4.336-2.72 4.336s-2.72-2.208-2.72-4.336.688-4.32 2.72-4.32 2.72 2.192 2.72 4.32Zm2.997 0c0 2.592 1.152 5.52 4.08 5.52 2.912 0 4.08-2.928 4.08-5.52 0-2.608-1.168-5.504-4.08-5.504-2.928 0-4.08 2.896-4.08 5.504Zm6.8 0c0 2.128-.688 4.336-2.72 4.336s-2.72-2.208-2.72-4.336.688-4.32 2.72-4.32 2.72 2.192 2.72 4.32Zm3.185 7.36c.736-.528 1.312-1.44 1.312-2.416 0-.768-.48-1.216-1.008-1.216-.48 0-.848.4-.848.864 0 .48.32.816.768.816.08 0 .192-.016.224-.032-.064.528-.528 1.152-1.04 1.488l.592.496Zm2.999-7.36c0 2.592 1.152 5.52 4.08 5.52 2.912 0 4.08-2.928 4.08-5.52 0-2.608-1.168-5.504-4.08-5.504-2.928 0-4.08 2.896-4.08 5.504Zm6.8 0c0 2.128-.688 4.336-2.72 4.336s-2.72-2.208-2.72-4.336.688-4.32 2.72-4.32 2.72 2.192 2.72 4.32Zm2.997 0c0 2.592 1.152 5.52 4.08 5.52 2.912 0 4.08-2.928 4.08-5.52 0-2.608-1.168-5.504-4.08-5.504-2.928 0-4.08 2.896-4.08 5.504Zm6.8 0c0 2.128-.688 4.336-2.72 4.336s-2.72-2.208-2.72-4.336.688-4.32 2.72-4.32 2.72 2.192 2.72 4.32Zm2.997 0c0 2.592 1.152 5.52 4.08 5.52 2.912 0 4.08-2.928 4.08-5.52 0-2.608-1.168-5.504-4.08-5.504-2.928 0-4.08 2.896-4.08 5.504Zm6.8 0c0 2.128-.688 4.336-2.72 4.336s-2.72-2.208-2.72-4.336.688-4.32 2.72-4.32 2.72 2.192 2.72 4.32Z"/><path stroke="#D4D4D8" d="M16 179.5h525"/><path fill="#71717A" d="M16.608 209.496c.88.992 2.24 1.696 4.096 1.696 2.88 0 3.936-1.584 3.936-3.136 0-2.24-1.984-2.784-3.728-3.248-1.36-.368-2.592-.688-2.592-1.76 0-1.008.912-1.696 2.192-1.696 1.168 0 2.288.4 3.088 1.28l.8-.976c-.896-.944-2.16-1.488-3.792-1.488-2.096 0-3.664 1.2-3.664 2.96 0 2.096 1.904 2.576 3.616 3.024 1.408.384 2.704.736 2.704 2.016 0 .816-.608 1.84-2.512 1.84-1.504 0-2.656-.736-3.36-1.52l-.784 1.008ZM32.991 211v-7.728h-1.2v5.68c-.448.624-1.344 1.168-2.288 1.168-1.04 0-1.728-.4-1.728-1.76v-5.088h-1.2v5.456c0 1.68.848 2.464 2.464 2.464 1.152 0 2.16-.608 2.752-1.28V211h1.2Zm12.925 0v-5.584c0-1.552-.752-2.336-2.16-2.336-1.12 0-2.16.736-2.593 1.44-.223-.8-.895-1.44-2.08-1.44-1.136 0-2.175.816-2.495 1.312v-1.12h-1.2V211h1.2v-5.648c.416-.624 1.248-1.2 2.032-1.2 1.008 0 1.424.624 1.424 1.6V211h1.2v-5.664c.4-.608 1.248-1.184 2.047-1.184.992 0 1.425.624 1.425 1.6V211h1.2Zm12.921 0v-5.584c0-1.552-.752-2.336-2.16-2.336-1.12 0-2.16.736-2.592 1.44-.224-.8-.896-1.44-2.08-1.44-1.136 0-2.176.816-2.496 1.312v-1.12h-1.2V211h1.2v-5.648c.416-.624 1.248-1.2 2.032-1.2 1.008 0 1.424.624 1.424 1.6V211h1.2v-5.664c.4-.608 1.248-1.184 2.048-1.184.992 0 1.424.624 1.424 1.6V211h1.2Zm8.426 0v-5.312c0-1.872-1.36-2.608-2.992-2.608-1.264 0-2.256.416-3.088 1.28l.56.832c.688-.736 1.44-1.072 2.368-1.072 1.12 0 1.952.592 1.952 1.632v1.392c-.624-.72-1.504-1.056-2.56-1.056-1.312 0-2.704.816-2.704 2.544 0 1.68 1.392 2.56 2.704 2.56 1.04 0 1.92-.368 2.56-1.072v.88h1.2Zm-1.2-1.632c-.464.64-1.28.96-2.128.96-1.12 0-1.904-.704-1.904-1.68 0-.992.784-1.696 1.904-1.696.848 0 1.664.32 2.128.96v1.456ZM70.87 211v-5.472c.352-.624 1.36-1.232 2.096-1.232.192 0 .336.016.48.048v-1.232c-1.056 0-1.952.592-2.576 1.408v-1.248h-1.2V211h1.2Zm3.649 3.024c.224.064.624.112.88.112 1.024-.016 1.808-.448 2.272-1.568l3.872-9.296H80.23l-2.56 6.336-2.576-6.336h-1.296l3.232 7.808-.512 1.168c-.272.64-.624.816-1.152.816a1.84 1.84 0 0 1-.656-.128l-.192 1.088Z"/><path fill="#27272A" d="M26.08 235v-10.672h-1.328v8.432l-6.144-8.432h-1.36V235h1.328v-8.608L24.8 235h1.28Zm8.864 0v-7.728h-1.2v5.68c-.448.624-1.344 1.168-2.288 1.168-1.04 0-1.728-.4-1.728-1.76v-5.088h-1.2v5.456c0 1.68.848 2.464 2.464 2.464 1.152 0 2.16-.608 2.752-1.28V235h1.2Zm3.597 0v-10.672h-1.2V235h1.2Zm3.593 0v-10.672h-1.2V235h1.2Zm8.426 0v-5.312c0-1.872-1.36-2.608-2.992-2.608-1.264 0-2.256.416-3.088 1.28l.56.832c.688-.736 1.44-1.072 2.368-1.072 1.12 0 1.952.592 1.952 1.632v1.392c-.624-.72-1.504-1.056-2.56-1.056-1.312 0-2.704.816-2.704 2.544 0 1.68 1.392 2.56 2.704 2.56 1.04 0 1.92-.368 2.56-1.072v.88h1.2Zm-1.2-1.632c-.464.64-1.28.96-2.128.96-1.12 0-1.904-.704-1.904-1.68 0-.992.784-1.696 1.904-1.696.848 0 1.664.32 2.128.96v1.456Zm8.93.464c.625.864 1.553 1.36 2.609 1.36 2.032 0 3.44-1.568 3.44-4.064 0-2.512-1.408-4.048-3.44-4.048a3.23 3.23 0 0 0-2.608 1.344v-1.152h-1.2v10.672h1.2v-4.112Zm4.785-2.704c0 1.712-.928 2.992-2.48 2.992-.944 0-1.888-.576-2.304-1.248v-3.488c.416-.672 1.36-1.232 2.304-1.232 1.552 0 2.48 1.264 2.48 2.976Zm6.58 4.064c2.351 0 3.823-1.824 3.823-4.064s-1.472-4.048-3.824-4.048-3.824 1.808-3.824 4.048 1.472 4.064 3.824 4.064Zm0-1.072c-1.649 0-2.577-1.408-2.577-2.992 0-1.568.928-2.976 2.576-2.976 1.648 0 2.56 1.408 2.56 2.976 0 1.584-.912 2.992-2.56 2.992Zm6.98.88v-5.472c.351-.624 1.36-1.232 2.095-1.232.192 0 .336.016.48.048v-1.232c-1.056 0-1.952.592-2.576 1.408v-1.248h-1.2V235h1.2Zm6.033.192c.704 0 1.136-.208 1.44-.496l-.352-.896c-.16.176-.48.32-.816.32-.528 0-.784-.416-.784-.992v-4.8h1.568v-1.056h-1.568v-2.112h-1.2v2.112h-1.28v1.056h1.28v5.056c0 1.152.576 1.808 1.712 1.808Zm4.703 0c.704 0 1.136-.208 1.44-.496l-.352-.896c-.16.176-.48.32-.816.32-.528 0-.784-.416-.784-.992v-4.8h1.568v-1.056h-1.568v-2.112h-1.2v2.112h-1.28v1.056h1.28v5.056c0 1.152.576 1.808 1.712 1.808Zm3.343-9.216a.82.82 0 0 0 .816-.816c0-.448-.368-.8-.816-.8-.432 0-.8.352-.8.8 0 .448.368.816.8.816Zm.608 9.024v-7.728h-1.2V235h1.2Zm4.346.192c.704 0 1.136-.208 1.44-.496l-.352-.896c-.16.176-.48.32-.816.32-.528 0-.784-.416-.784-.992v-4.8h1.568v-1.056h-1.568v-2.112h-1.2v2.112h-1.28v1.056h1.28v5.056c0 1.152.576 1.808 1.712 1.808Zm6.127 0c2.352 0 3.824-1.824 3.824-4.064s-1.472-4.048-3.824-4.048-3.824 1.808-3.824 4.048 1.472 4.064 3.824 4.064Zm0-1.072c-1.648 0-2.576-1.408-2.576-2.992 0-1.568.928-2.976 2.576-2.976 1.648 0 2.56 1.408 2.56 2.976 0 1.584-.912 2.992-2.56 2.992Zm6.98.88v-5.472c.352-.624 1.36-1.232 2.096-1.232.192 0 .336.016.48.048v-1.232c-1.056 0-1.952.592-2.576 1.408v-1.248h-1.2V235h1.2Zm14.238 0v-5.312c0-1.872-1.36-2.608-2.992-2.608-1.264 0-2.256.416-3.088 1.28l.56.832c.688-.736 1.44-1.072 2.368-1.072 1.12 0 1.952.592 1.952 1.632v1.392c-.624-.72-1.504-1.056-2.56-1.056-1.312 0-2.704.816-2.704 2.544 0 1.68 1.392 2.56 2.704 2.56 1.04 0 1.92-.368 2.56-1.072v.88h1.2Zm-1.2-1.632c-.464.64-1.28.96-2.128.96-1.12 0-1.904-.704-1.904-1.68 0-.992.784-1.696 1.904-1.696.848 0 1.664.32 2.128.96v1.456Zm3.158-2.24c0 2.304 1.552 4.064 3.856 4.064 1.408 0 2.24-.576 2.832-1.344l-.8-.736c-.512.688-1.168 1.008-1.968 1.008-1.648 0-2.672-1.28-2.672-2.992s1.024-2.976 2.672-2.976c.8 0 1.456.304 1.968 1.008l.8-.736c-.592-.768-1.424-1.344-2.832-1.344-2.304 0-3.856 1.76-3.856 4.048Zm7.922 0c0 2.304 1.552 4.064 3.856 4.064 1.408 0 2.24-.576 2.832-1.344l-.8-.736c-.512.688-1.168 1.008-1.968 1.008-1.648 0-2.672-1.28-2.672-2.992s1.024-2.976 2.672-2.976c.8 0 1.456.304 1.968 1.008l.8-.736c-.592-.768-1.424-1.344-2.832-1.344-2.304 0-3.856 1.76-3.856 4.048ZM147.679 235v-7.728h-1.2v5.68c-.448.624-1.344 1.168-2.288 1.168-1.04 0-1.728-.4-1.728-1.76v-5.088h-1.2v5.456c0 1.68.848 2.464 2.464 2.464 1.152 0 2.16-.608 2.752-1.28V235h1.2Zm12.924 0v-5.584c0-1.552-.752-2.336-2.16-2.336-1.12 0-2.16.736-2.592 1.44-.224-.8-.896-1.44-2.08-1.44-1.136 0-2.176.816-2.496 1.312v-1.12h-1.2V235h1.2v-5.648c.416-.624 1.248-1.2 2.032-1.2 1.008 0 1.424.624 1.424 1.6V235h1.2v-5.664c.4-.608 1.248-1.184 2.048-1.184.992 0 1.424.624 1.424 1.6V235h1.2Zm1.722-1.024c.784.832 1.856 1.216 3.12 1.216 2 0 3.04-1.04 3.04-2.336 0-1.712-1.552-2.096-2.896-2.4-1.008-.24-1.888-.48-1.888-1.232 0-.688.656-1.168 1.712-1.168.992 0 1.84.416 2.304.976l.56-.832c-.624-.624-1.552-1.12-2.864-1.12-1.84 0-2.88 1.024-2.88 2.224 0 1.6 1.488 1.952 2.8 2.256 1.04.256 1.984.528 1.984 1.376 0 .752-.64 1.28-1.824 1.28-1.056 0-2.032-.512-2.544-1.104l-.624.864ZM176.466 235v-5.312c0-1.872-1.36-2.608-2.992-2.608-1.264 0-2.256.416-3.088 1.28l.56.832c.688-.736 1.44-1.072 2.368-1.072 1.12 0 1.952.592 1.952 1.632v1.392c-.624-.72-1.504-1.056-2.56-1.056-1.312 0-2.704.816-2.704 2.544 0 1.68 1.392 2.56 2.704 2.56 1.04 0 1.92-.368 2.56-1.072v.88h1.2Zm-1.2-1.632c-.464.64-1.28.96-2.128.96-1.12 0-1.904-.704-1.904-1.68 0-.992.784-1.696 1.904-1.696.848 0 1.664.32 2.128.96v1.456ZM185.288 235v-5.424c0-1.68-.848-2.496-2.464-2.496-1.152 0-2.208.672-2.752 1.312v-1.12h-1.2V235h1.2v-5.648c.448-.624 1.344-1.2 2.288-1.2 1.04 0 1.728.432 1.728 1.792V235h1.2Zm8.473.192c.704 0 1.136-.208 1.44-.496l-.352-.896c-.16.176-.48.32-.816.32-.528 0-.784-.416-.784-.992v-4.8h1.568v-1.056h-1.568v-2.112h-1.2v2.112h-1.28v1.056h1.28v5.056c0 1.152.576 1.808 1.712 1.808Zm3.344-9.216a.82.82 0 0 0 .816-.816c0-.448-.368-.8-.816-.8-.432 0-.8.352-.8.8 0 .448.368.816.8.816Zm.608 9.024v-7.728h-1.2V235h1.2Zm8.809 0v-5.424c0-1.68-.848-2.496-2.464-2.496-1.152 0-2.208.672-2.752 1.312v-1.12h-1.2V235h1.2v-5.648c.448-.624 1.344-1.2 2.288-1.2 1.04 0 1.728.432 1.728 1.792V235h1.2Zm1.949-3.872c0 2.304 1.552 4.064 3.856 4.064 1.408 0 2.24-.576 2.832-1.344l-.8-.736c-.512.688-1.168 1.008-1.968 1.008-1.648 0-2.672-1.28-2.672-2.992s1.024-2.976 2.672-2.976c.8 0 1.456.304 1.968 1.008l.8-.736c-.592-.768-1.424-1.344-2.832-1.344-2.304 0-3.856 1.76-3.856 4.048Zm8.962-5.152a.82.82 0 0 0 .816-.816c0-.448-.368-.8-.816-.8-.432 0-.8.352-.8.8 0 .448.368.816.8.816Zm.608 9.024v-7.728h-1.2V235h1.2Zm9.193 0v-10.672h-1.2v4.112c-.624-.848-1.568-1.36-2.608-1.36-2.032 0-3.44 1.6-3.44 4.064 0 2.512 1.424 4.048 3.44 4.048 1.088 0 2.032-.56 2.608-1.344V235h1.2Zm-1.2-2.096c-.432.672-1.36 1.216-2.32 1.216-1.552 0-2.48-1.264-2.48-2.976s.928-2.992 2.48-2.992c.96 0 1.888.576 2.32 1.248v3.504Zm10.02 2.096v-7.728h-1.2v5.68c-.448.624-1.344 1.168-2.288 1.168-1.04 0-1.728-.4-1.728-1.76v-5.088h-1.2v5.456c0 1.68.848 2.464 2.464 2.464 1.152 0 2.16-.608 2.752-1.28V235h1.2Zm8.812 0v-5.424c0-1.68-.848-2.496-2.464-2.496-1.152 0-2.208.672-2.752 1.312v-1.12h-1.2V235h1.2v-5.648c.448-.624 1.344-1.2 2.288-1.2 1.04 0 1.728.432 1.728 1.792V235h1.2Zm4.349.192c.704 0 1.136-.208 1.44-.496l-.352-.896c-.16.176-.48.32-.816.32-.528 0-.784-.416-.784-.992v-4.8h1.568v-1.056h-1.568v-2.112h-1.2v2.112h-1.28v1.056h1.28v5.056c0 1.152.576 1.808 1.712 1.808Zm2.511-.912c0 .48.4.88.88.88s.88-.4.88-.88-.4-.88-.88-.88-.88.4-.88.88Zm12.932.72 4.304-10.672h-1.52l-3.6 9.216-3.6-9.216h-1.52L263.01 235h1.648Zm4.25-3.872c0 2.416 1.648 4.064 3.936 4.064 1.264 0 2.304-.416 3.072-1.184l-.576-.784c-.608.624-1.504.976-2.384.976-1.664 0-2.688-1.216-2.784-2.672h6.256v-.304c0-2.32-1.376-4.144-3.712-4.144-2.208 0-3.808 1.808-3.808 4.048Zm3.792-3.056c1.76 0 2.528 1.424 2.544 2.576h-5.072c.064-1.184.88-2.576 2.528-2.576Zm5 5.904c.784.832 1.856 1.216 3.12 1.216 2 0 3.04-1.04 3.04-2.336 0-1.712-1.552-2.096-2.896-2.4-1.008-.24-1.888-.48-1.888-1.232 0-.688.656-1.168 1.712-1.168.992 0 1.84.416 2.304.976l.56-.832c-.624-.624-1.552-1.12-2.864-1.12-1.84 0-2.88 1.024-2.88 2.224 0 1.6 1.488 1.952 2.8 2.256 1.04.256 1.984.528 1.984 1.376 0 .752-.64 1.28-1.824 1.28-1.056 0-2.032-.512-2.544-1.104l-.624.864Zm10.061 1.216c.704 0 1.136-.208 1.44-.496l-.352-.896c-.16.176-.48.32-.816.32-.528 0-.784-.416-.784-.992v-4.8h1.568v-1.056h-1.568v-2.112h-1.2v2.112h-1.28v1.056h1.28v5.056c0 1.152.576 1.808 1.712 1.808Zm3.344-9.216a.82.82 0 0 0 .816-.816c0-.448-.368-.8-.816-.8-.432 0-.8.352-.8.8 0 .448.368.816.8.816Zm.608 9.024v-7.728h-1.2V235h1.2Zm3.593 0v-1.152c.576.784 1.52 1.344 2.608 1.344 2.016 0 3.44-1.536 3.44-4.048 0-2.464-1.424-4.064-3.44-4.064-1.056 0-1.984.512-2.608 1.36v-4.112h-1.2V235h1.2Zm0-5.6c.416-.672 1.36-1.248 2.304-1.248 1.568 0 2.496 1.28 2.496 2.992s-.928 2.976-2.496 2.976c-.944 0-1.888-.544-2.304-1.216V229.4Zm14.419 5.6v-7.728h-1.2v5.68c-.448.624-1.344 1.168-2.288 1.168-1.04 0-1.728-.4-1.728-1.76v-5.088h-1.2v5.456c0 1.68.848 2.464 2.464 2.464 1.152 0 2.16-.608 2.752-1.28V235h1.2Zm3.597 0v-10.672h-1.2V235h1.2Zm8.81 0v-7.728h-1.2v5.68c-.448.624-1.344 1.168-2.288 1.168-1.04 0-1.728-.4-1.728-1.76v-5.088h-1.2v5.456c0 1.68.848 2.464 2.464 2.464 1.152 0 2.16-.608 2.752-1.28V235h1.2Zm12.924 0v-5.584c0-1.552-.752-2.336-2.16-2.336-1.12 0-2.16.736-2.592 1.44-.224-.8-.896-1.44-2.08-1.44-1.136 0-2.176.816-2.496 1.312v-1.12h-1.2V235h1.2v-5.648c.416-.624 1.248-1.2 2.032-1.2 1.008 0 1.424.624 1.424 1.6V235h1.2v-5.664c.4-.608 1.248-1.184 2.048-1.184.992 0 1.424.624 1.424 1.6V235h1.2Zm12.551 0v-5.312c0-1.872-1.36-2.608-2.992-2.608-1.264 0-2.256.416-3.088 1.28l.56.832c.688-.736 1.44-1.072 2.368-1.072 1.12 0 1.952.592 1.952 1.632v1.392c-.624-.72-1.504-1.056-2.56-1.056-1.312 0-2.704.816-2.704 2.544 0 1.68 1.392 2.56 2.704 2.56 1.04 0 1.92-.368 2.56-1.072v.88h1.2Zm-1.2-1.632c-.464.64-1.28.96-2.128.96-1.12 0-1.904-.704-1.904-1.68 0-.992.784-1.696 1.904-1.696.848 0 1.664.32 2.128.96v1.456Zm3.158-2.24c0 2.304 1.552 4.064 3.856 4.064 1.408 0 2.24-.576 2.832-1.344l-.8-.736c-.512.688-1.168 1.008-1.968 1.008-1.648 0-2.673-1.28-2.673-2.992s1.025-2.976 2.673-2.976c.8 0 1.456.304 1.968 1.008l.8-.736c-.592-.768-1.424-1.344-2.832-1.344-2.304 0-3.856 1.76-3.856 4.048ZM368.859 235v-10.672h-1.2v4.112c-.624-.848-1.568-1.36-2.608-1.36-2.032 0-3.44 1.6-3.44 4.064 0 2.512 1.424 4.048 3.44 4.048 1.088 0 2.032-.56 2.608-1.344V235h1.2Zm-1.2-2.096c-.432.672-1.36 1.216-2.32 1.216-1.552 0-2.48-1.264-2.48-2.976s.928-2.992 2.48-2.992c.96 0 1.888.576 2.32 1.248v3.504Zm4.196-6.928a.82.82 0 0 0 .816-.816c0-.448-.368-.8-.816-.8-.432 0-.8.352-.8.8 0 .448.368.816.8.816Zm.608 9.024v-7.728h-1.2V235h1.2Zm8.425 0v-5.312c0-1.872-1.36-2.608-2.992-2.608-1.264 0-2.256.416-3.088 1.28l.56.832c.688-.736 1.44-1.072 2.368-1.072 1.12 0 1.952.592 1.952 1.632v1.392c-.624-.72-1.504-1.056-2.56-1.056-1.312 0-2.704.816-2.704 2.544 0 1.68 1.392 2.56 2.704 2.56 1.04 0 1.92-.368 2.56-1.072v.88h1.2Zm-1.2-1.632c-.464.64-1.28.96-2.128.96-1.12 0-1.904-.704-1.904-1.68 0-.992.784-1.696 1.904-1.696.848 0 1.664.32 2.128.96v1.456ZM393.822 235v-5.584c0-1.552-.752-2.336-2.16-2.336-1.12 0-2.16.736-2.592 1.44-.224-.8-.896-1.44-2.08-1.44-1.136 0-2.176.816-2.496 1.312v-1.12h-1.2V235h1.2v-5.648c.416-.624 1.248-1.2 2.032-1.2 1.008 0 1.424.624 1.424 1.6V235h1.2v-5.664c.4-.608 1.248-1.184 2.048-1.184.992 0 1.424.624 1.424 1.6V235h1.2Zm5.847-1.024c.784.832 1.856 1.216 3.12 1.216 2 0 3.04-1.04 3.04-2.336 0-1.712-1.552-2.096-2.896-2.4-1.008-.24-1.888-.48-1.888-1.232 0-.688.656-1.168 1.712-1.168.992 0 1.84.416 2.304.976l.56-.832c-.624-.624-1.552-1.12-2.864-1.12-1.84 0-2.88 1.024-2.88 2.224 0 1.6 1.488 1.952 2.8 2.256 1.04.256 1.984.528 1.984 1.376 0 .752-.64 1.28-1.824 1.28-1.056 0-2.032-.512-2.544-1.104l-.624.864Zm8.701-8a.82.82 0 0 0 .816-.816c0-.448-.368-.8-.816-.8-.432 0-.8.352-.8.8 0 .448.368.816.8.816Zm.608 9.024v-7.728h-1.2V235h1.2Zm4.346.192c.704 0 1.136-.208 1.44-.496l-.352-.896c-.16.176-.48.32-.816.32-.528 0-.784-.416-.784-.992v-4.8h1.568v-1.056h-1.568v-2.112h-1.2v2.112h-1.28v1.056h1.28v5.056c0 1.152.576 1.808 1.712 1.808Zm12.908-.192v-5.312c0-1.872-1.36-2.608-2.992-2.608-1.264 0-2.256.416-3.088 1.28l.56.832c.688-.736 1.44-1.072 2.368-1.072 1.12 0 1.952.592 1.952 1.632v1.392c-.624-.72-1.504-1.056-2.56-1.056-1.312 0-2.704.816-2.704 2.544 0 1.68 1.392 2.56 2.704 2.56 1.04 0 1.92-.368 2.56-1.072v.88h1.2Zm-1.2-1.632c-.464.64-1.28.96-2.128.96-1.12 0-1.904-.704-1.904-1.68 0-.992.784-1.696 1.904-1.696.848 0 1.664.32 2.128.96v1.456ZM439.166 235v-5.584c0-1.552-.752-2.336-2.16-2.336-1.121 0-2.16.736-2.592 1.44-.224-.8-.896-1.44-2.08-1.44-1.136 0-2.176.816-2.496 1.312v-1.12h-1.2V235h1.2v-5.648c.416-.624 1.248-1.2 2.032-1.2 1.008 0 1.424.624 1.424 1.6V235h1.2v-5.664c.4-.608 1.248-1.184 2.048-1.184.992 0 1.424.624 1.424 1.6V235h1.2Zm1.945-3.872c0 2.416 1.648 4.064 3.936 4.064 1.264 0 2.304-.416 3.072-1.184l-.576-.784c-.608.624-1.504.976-2.384.976-1.664 0-2.688-1.216-2.784-2.672h6.256v-.304c0-2.32-1.376-4.144-3.712-4.144-2.208 0-3.808 1.808-3.808 4.048Zm3.792-3.056c1.76 0 2.528 1.424 2.544 2.576h-5.072c.064-1.184.88-2.576 2.528-2.576Zm7.624 7.12c.704 0 1.136-.208 1.44-.496l-.352-.896c-.16.176-.48.32-.816.32-.528 0-.784-.416-.784-.992v-4.8h1.568v-1.056h-1.568v-2.112h-1.2v2.112h-1.28v1.056h1.28v5.056c0 1.152.576 1.808 1.712 1.808Zm13.66-7.92h-1.2v1.152a3.2 3.2 0 0 0-2.592-1.344c-2.032 0-3.44 1.536-3.44 4.048 0 2.496 1.408 4.064 3.44 4.064 1.04 0 1.968-.496 2.592-1.36v4.112h1.2v-10.672Zm-1.2 5.6c-.416.672-1.344 1.248-2.304 1.248-1.552 0-2.48-1.28-2.48-2.992s.928-2.976 2.48-2.976c.96 0 1.888.56 2.304 1.232v3.488Zm10.02 2.128v-7.728h-1.2v5.68c-.448.624-1.344 1.168-2.288 1.168-1.04 0-1.728-.4-1.728-1.76v-5.088h-1.2v5.456c0 1.68.848 2.464 2.464 2.464 1.152 0 2.16-.608 2.752-1.28V235h1.2Zm8.428 0v-5.312c0-1.872-1.36-2.608-2.992-2.608-1.264 0-2.256.416-3.088 1.28l.56.832c.688-.736 1.44-1.072 2.368-1.072 1.12 0 1.952.592 1.952 1.632v1.392c-.624-.72-1.504-1.056-2.56-1.056-1.312 0-2.704.816-2.704 2.544 0 1.68 1.392 2.56 2.704 2.56 1.04 0 1.92-.368 2.56-1.072v.88h1.2Zm-1.2-1.632c-.464.64-1.28.96-2.128.96-1.12 0-1.904-.704-1.904-1.68 0-.992.784-1.696 1.904-1.696.848 0 1.664.32 2.128.96v1.456ZM496.369 235v-5.584c0-1.552-.752-2.336-2.16-2.336-1.12 0-2.16.736-2.592 1.44-.224-.8-.896-1.44-2.08-1.44-1.136 0-2.176.816-2.496 1.312v-1.12h-1.2V235h1.2v-5.648c.416-.624 1.248-1.2 2.032-1.2 1.008 0 1.424.624 1.424 1.6V235h1.2v-5.664c.4-.608 1.248-1.184 2.048-1.184.992 0 1.424.624 1.424 1.6V235h1.2ZM20.576 255l3.216-7.728H22.48l-2.56 6.336-2.576-6.336h-1.296L19.264 255h1.312Zm4.02-3.872c0 2.416 1.648 4.064 3.936 4.064 1.264 0 2.304-.416 3.072-1.184l-.576-.784c-.608.624-1.504.976-2.384.976-1.664 0-2.688-1.216-2.784-2.672h6.256v-.304c0-2.32-1.376-4.144-3.712-4.144-2.208 0-3.808 1.808-3.808 4.048Zm3.792-3.056c1.76 0 2.528 1.424 2.544 2.576H25.86c.064-1.184.88-2.576 2.528-2.576ZM40.49 255v-5.456c0-1.68-.848-2.464-2.464-2.464-1.168 0-2.224.672-2.768 1.312v-4.064h-1.2V255h1.2v-5.648c.464-.624 1.36-1.2 2.288-1.2 1.04 0 1.744.4 1.744 1.76V255h1.2Zm2.989-9.024a.82.82 0 0 0 .816-.816c0-.448-.368-.8-.816-.8-.432 0-.8.352-.8.8 0 .448.367.816.8.816Zm.608 9.024v-7.728h-1.2V255h1.2Zm1.945-3.872c0 2.304 1.552 4.064 3.856 4.064 1.408 0 2.24-.576 2.832-1.344l-.8-.736c-.512.688-1.168 1.008-1.968 1.008-1.648 0-2.672-1.28-2.672-2.992s1.024-2.976 2.672-2.976c.8 0 1.456.304 1.968 1.008l.8-.736c-.592-.768-1.424-1.344-2.832-1.344-2.304 0-3.856 1.76-3.856 4.048ZM60.82 255v-7.728h-1.2v5.68c-.448.624-1.344 1.168-2.288 1.168-1.04 0-1.728-.4-1.728-1.76v-5.088h-1.2v5.456c0 1.68.848 2.464 2.464 2.464 1.152 0 2.16-.608 2.752-1.28V255h1.2Zm3.597 0v-10.672h-1.2V255h1.2Zm8.425 0v-5.312c0-1.872-1.36-2.608-2.992-2.608-1.264 0-2.256.416-3.088 1.28l.56.832c.688-.736 1.44-1.072 2.368-1.072 1.12 0 1.952.592 1.952 1.632v1.392c-.624-.72-1.504-1.056-2.56-1.056-1.312 0-2.704.816-2.704 2.544 0 1.68 1.392 2.56 2.704 2.56 1.04 0 1.92-.368 2.56-1.072v.88h1.2Zm-1.2-1.632c-.464.64-1.28.96-2.128.96-1.12 0-1.904-.704-1.904-1.68 0-.992.784-1.696 1.904-1.696.848 0 1.664.32 2.128.96v1.456Zm7.283-2.24c0 2.416 1.648 4.064 3.936 4.064 1.264 0 2.304-.416 3.072-1.184l-.576-.784c-.608.624-1.504.976-2.384.976-1.664 0-2.688-1.216-2.784-2.672h6.256v-.304c0-2.32-1.376-4.144-3.712-4.144-2.208 0-3.808 1.808-3.808 4.048Zm3.792-3.056c1.76 0 2.528 1.424 2.544 2.576h-5.072c.064-1.184.88-2.576 2.528-2.576ZM89.588 255v-10.672h-1.2V255h1.2Zm1.945-3.872c0 2.416 1.648 4.064 3.936 4.064 1.264 0 2.304-.416 3.072-1.184l-.576-.784c-.608.624-1.504.976-2.384.976-1.664 0-2.688-1.216-2.784-2.672h6.256v-.304c0-2.32-1.376-4.144-3.712-4.144-2.208 0-3.808 1.808-3.808 4.048Zm3.792-3.056c1.76 0 2.528 1.424 2.544 2.576h-5.072c.064-1.184.88-2.576 2.528-2.576Zm16.2 6.928v-5.584c0-1.552-.752-2.336-2.16-2.336-1.12 0-2.16.736-2.592 1.44-.224-.8-.896-1.44-2.08-1.44-1.136 0-2.176.816-2.496 1.312v-1.12h-1.2V255h1.2v-5.648c.416-.624 1.248-1.2 2.032-1.2 1.008 0 1.424.624 1.424 1.6V255h1.2v-5.664c.4-.608 1.248-1.184 2.048-1.184.992 0 1.424.624 1.424 1.6V255h1.2Zm1.946-3.872c0 2.416 1.648 4.064 3.936 4.064 1.264 0 2.304-.416 3.072-1.184l-.576-.784c-.608.624-1.504.976-2.384.976-1.664 0-2.688-1.216-2.784-2.672h6.256v-.304c0-2.32-1.376-4.144-3.712-4.144-2.208 0-3.808 1.808-3.808 4.048Zm3.792-3.056c1.76 0 2.528 1.424 2.544 2.576h-5.072c.064-1.184.88-2.576 2.528-2.576ZM129.35 255v-5.424c0-1.68-.848-2.496-2.464-2.496-1.152 0-2.208.672-2.752 1.312v-1.12h-1.2V255h1.2v-5.648c.448-.624 1.344-1.2 2.288-1.2 1.04 0 1.728.432 1.728 1.792V255h1.2Zm4.349.192c.704 0 1.136-.208 1.44-.496l-.352-.896c-.16.176-.48.32-.816.32-.528 0-.784-.416-.784-.992v-4.8h1.568v-1.056h-1.568v-2.112h-1.2v2.112h-1.28v1.056h1.28v5.056c0 1.152.576 1.808 1.712 1.808Zm9.167-.192v-7.728h-1.2v5.68c-.448.624-1.344 1.168-2.288 1.168-1.04 0-1.728-.4-1.728-1.76v-5.088h-1.2v5.456c0 1.68.848 2.464 2.464 2.464 1.152 0 2.16-.608 2.752-1.28V255h1.2Zm12.925 0v-5.584c0-1.552-.752-2.336-2.16-2.336-1.121 0-2.16.736-2.592 1.44-.224-.8-.896-1.44-2.08-1.44-1.136 0-2.176.816-2.496 1.312v-1.12h-1.2V255h1.2v-5.648c.416-.624 1.248-1.2 2.032-1.2 1.008 0 1.424.624 1.424 1.6V255h1.2v-5.664c.4-.608 1.248-1.184 2.048-1.184.992 0 1.424.624 1.424 1.6V255h1.2Zm5.846-1.024c.784.832 1.856 1.216 3.12 1.216 2 0 3.04-1.04 3.04-2.336 0-1.712-1.552-2.096-2.896-2.4-1.008-.24-1.888-.48-1.888-1.232 0-.688.656-1.168 1.712-1.168.992 0 1.84.416 2.304.976l.56-.832c-.624-.624-1.552-1.12-2.864-1.12-1.84 0-2.88 1.024-2.88 2.224 0 1.6 1.488 1.952 2.8 2.256 1.04.256 1.984.528 1.984 1.376 0 .752-.64 1.28-1.824 1.28-1.056 0-2.032-.512-2.544-1.104l-.624.864Zm7.662-2.848c0 2.416 1.648 4.064 3.936 4.064 1.264 0 2.304-.416 3.072-1.184l-.576-.784c-.608.624-1.504.976-2.384.976-1.664 0-2.688-1.216-2.784-2.672h6.256v-.304c0-2.32-1.376-4.144-3.712-4.144-2.208 0-3.808 1.808-3.808 4.048Zm3.792-3.056c1.76 0 2.528 1.424 2.544 2.576h-5.072c.064-1.184.88-2.576 2.528-2.576ZM185.562 255v-10.672h-1.199v4.112c-.624-.848-1.568-1.36-2.608-1.36-2.032 0-3.44 1.6-3.44 4.064 0 2.512 1.424 4.048 3.44 4.048 1.088 0 2.032-.56 2.608-1.344V255h1.199Zm-1.199-2.096c-.432.672-1.36 1.216-2.32 1.216-1.552 0-2.481-1.264-2.481-2.976s.929-2.992 2.481-2.992c.96 0 1.888.576 2.32 1.248v3.504Zm7.056 1.072c.784.832 1.856 1.216 3.12 1.216 2 0 3.04-1.04 3.04-2.336 0-1.712-1.552-2.096-2.896-2.4-1.008-.24-1.888-.48-1.888-1.232 0-.688.656-1.168 1.712-1.168.992 0 1.84.416 2.304.976l.56-.832c-.624-.624-1.552-1.12-2.864-1.12-1.84 0-2.88 1.024-2.88 2.224 0 1.6 1.488 1.952 2.8 2.256 1.04.256 1.984.528 1.984 1.376 0 .752-.64 1.28-1.824 1.28-1.056 0-2.032-.512-2.544-1.104l-.624.864Zm8.701-8a.82.82 0 0 0 .816-.816c0-.448-.368-.8-.816-.8-.432 0-.8.352-.8.8 0 .448.368.816.8.816Zm.608 9.024v-7.728h-1.2V255h1.2Zm4.346.192c.704 0 1.136-.208 1.44-.496l-.352-.896c-.16.176-.48.32-.816.32-.528 0-.784-.416-.784-.992v-4.8h1.568v-1.056h-1.568v-2.112h-1.2v2.112h-1.28v1.056h1.28v5.056c0 1.152.576 1.808 1.712 1.808Zm12.908-.192v-5.312c0-1.872-1.36-2.608-2.992-2.608-1.264 0-2.256.416-3.088 1.28l.56.832c.688-.736 1.44-1.072 2.368-1.072 1.12 0 1.952.592 1.952 1.632v1.392c-.624-.72-1.504-1.056-2.56-1.056-1.312 0-2.704.816-2.704 2.544 0 1.68 1.392 2.56 2.704 2.56 1.04 0 1.92-.368 2.56-1.072v.88h1.2Zm-1.2-1.632c-.464.64-1.28.96-2.128.96-1.12 0-1.904-.704-1.904-1.68 0-.992.784-1.696 1.904-1.696.848 0 1.664.32 2.128.96v1.456ZM230.916 255v-5.584c0-1.552-.752-2.336-2.16-2.336-1.121 0-2.16.736-2.592 1.44-.224-.8-.896-1.44-2.08-1.44-1.136 0-2.176.816-2.496 1.312v-1.12h-1.2V255h1.2v-5.648c.416-.624 1.248-1.2 2.032-1.2 1.008 0 1.424.624 1.424 1.6V255h1.2v-5.664c.4-.608 1.248-1.184 2.048-1.184.992 0 1.424.624 1.424 1.6V255h1.2Zm1.945-3.872c0 2.416 1.648 4.064 3.936 4.064 1.264 0 2.304-.416 3.072-1.184l-.576-.784c-.608.624-1.504.976-2.384.976-1.664 0-2.688-1.216-2.784-2.672h6.256v-.304c0-2.32-1.376-4.144-3.712-4.144-2.208 0-3.808 1.808-3.808 4.048Zm3.792-3.056c1.76 0 2.528 1.424 2.544 2.576h-5.072c.064-1.184.88-2.576 2.528-2.576Zm7.624 7.12c.704 0 1.136-.208 1.44-.496l-.352-.896c-.16.176-.48.32-.816.32-.528 0-.784-.416-.784-.992v-4.8h1.568v-1.056h-1.568v-2.112h-1.2v2.112h-1.28v1.056h1.28v5.056c0 1.152.576 1.808 1.712 1.808Zm13.676-.192v-10.672h-1.2v4.112c-.624-.848-1.568-1.36-2.608-1.36-2.032 0-3.44 1.6-3.44 4.064 0 2.512 1.424 4.048 3.44 4.048 1.088 0 2.032-.56 2.608-1.344V255h1.2Zm-1.2-2.096c-.432.672-1.36 1.216-2.32 1.216-1.552 0-2.48-1.264-2.48-2.976s.928-2.992 2.48-2.992c.96 0 1.888.576 2.32 1.248v3.504ZM266.772 255v-7.728h-1.2v5.68c-.448.624-1.344 1.168-2.288 1.168-1.04 0-1.728-.4-1.728-1.76v-5.088h-1.2v5.456c0 1.68.848 2.464 2.464 2.464 1.152 0 2.16-.608 2.752-1.28V255h1.2Zm2.989-9.024a.82.82 0 0 0 .816-.816c0-.448-.368-.8-.816-.8-.432 0-.8.352-.8.8 0 .448.368.816.8.816Zm.608 9.024v-7.728h-1.2V255h1.2Zm2.154-.72c0 .48.4.88.88.88s.88-.4.88-.88-.4-.88-.88-.88-.88.4-.88.88Z"/><path fill="#71717A" d="M24.24 291v-1.184h-5.664v-3.68h5.552v-1.184h-5.552v-3.44h5.664v-1.184h-6.992V291h6.992Zm8.47 0-2.977-3.968 2.8-3.76h-1.392l-2.144 2.944-2.144-2.944h-1.392l2.8 3.76-2.96 3.968h1.376l2.32-3.168 2.32 3.168h1.392Zm.433-3.872c0 2.304 1.552 4.064 3.856 4.064 1.408 0 2.24-.576 2.832-1.344l-.8-.736c-.512.688-1.168 1.008-1.968 1.008-1.648 0-2.672-1.28-2.672-2.992s1.024-2.976 2.672-2.976c.8 0 1.456.304 1.968 1.008l.8-.736c-.592-.768-1.424-1.344-2.832-1.344-2.304 0-3.856 1.76-3.856 4.048Zm7.922 0c0 2.416 1.648 4.064 3.936 4.064 1.264 0 2.303-.416 3.072-1.184l-.577-.784c-.608.624-1.504.976-2.384.976-1.663 0-2.688-1.216-2.784-2.672h6.256v-.304c0-2.32-1.376-4.144-3.712-4.144-2.208 0-3.807 1.808-3.807 4.048Zm3.791-3.056c1.76 0 2.529 1.424 2.544 2.576h-5.072c.064-1.184.88-2.576 2.528-2.576Zm6.872 5.76c.624.864 1.552 1.36 2.608 1.36 2.032 0 3.44-1.568 3.44-4.064 0-2.512-1.408-4.048-3.44-4.048a3.23 3.23 0 0 0-2.608 1.344v-1.152h-1.2v10.672h1.2v-4.112Zm4.784-2.704c0 1.712-.928 2.992-2.48 2.992-.944 0-1.888-.576-2.304-1.248v-3.488c.416-.672 1.36-1.232 2.304-1.232 1.552 0 2.48 1.264 2.48 2.976Zm5.156 4.064c.704 0 1.136-.208 1.44-.496l-.352-.896c-.16.176-.48.32-.816.32-.528 0-.784-.416-.784-.992v-4.8h1.568v-1.056h-1.568v-2.112h-1.2v2.112h-1.28v1.056h1.28v5.056c0 1.152.576 1.808 1.712 1.808Zm3.343-9.216a.82.82 0 0 0 .816-.816c0-.448-.368-.8-.816-.8-.432 0-.8.352-.8.8 0 .448.368.816.8.816Zm.608 9.024v-7.728h-1.2V291h1.2Zm5.77.192c2.352 0 3.824-1.824 3.824-4.064s-1.472-4.048-3.825-4.048c-2.352 0-3.824 1.808-3.824 4.048s1.473 4.064 3.825 4.064Zm0-1.072c-1.648 0-2.576-1.408-2.576-2.992 0-1.568.927-2.976 2.575-2.976 1.648 0 2.56 1.408 2.56 2.976 0 1.584-.911 2.992-2.56 2.992Zm12.196.88v-5.424c0-1.68-.848-2.496-2.464-2.496-1.152 0-2.208.672-2.752 1.312v-1.12h-1.2V291h1.2v-5.648c.448-.624 1.344-1.2 2.288-1.2 1.04 0 1.728.432 1.728 1.792V291h1.2Zm1.724-1.024c.784.832 1.856 1.216 3.12 1.216 2 0 3.04-1.04 3.04-2.336 0-1.712-1.552-2.096-2.896-2.4-1.008-.24-1.888-.48-1.888-1.232 0-.688.656-1.168 1.712-1.168.992 0 1.84.416 2.304.976l.56-.832c-.624-.624-1.552-1.12-2.864-1.12-1.84 0-2.88 1.024-2.88 2.224 0 1.6 1.488 1.952 2.8 2.256 1.04.256 1.984.528 1.984 1.376 0 .752-.64 1.28-1.824 1.28-1.056 0-2.032-.512-2.544-1.104l-.624.864Z"/><path fill="#27272A" d="M26.08 315v-10.672h-1.328v8.432l-6.144-8.432h-1.36V315h1.328v-8.608L24.8 315h1.28Zm8.864 0v-7.728h-1.2v5.68c-.448.624-1.344 1.168-2.288 1.168-1.04 0-1.728-.4-1.728-1.76v-5.088h-1.2v5.456c0 1.68.848 2.464 2.464 2.464 1.152 0 2.16-.608 2.752-1.28V315h1.2Zm3.597 0v-10.672h-1.2V315h1.2Zm3.593 0v-10.672h-1.2V315h1.2Zm8.426 0v-5.312c0-1.872-1.36-2.608-2.992-2.608-1.264 0-2.256.416-3.088 1.28l.56.832c.688-.736 1.44-1.072 2.368-1.072 1.12 0 1.952.592 1.952 1.632v1.392c-.624-.72-1.504-1.056-2.56-1.056-1.312 0-2.704.816-2.704 2.544 0 1.68 1.392 2.56 2.704 2.56 1.04 0 1.92-.368 2.56-1.072v.88h1.2Zm-1.2-1.632c-.464.64-1.28.96-2.128.96-1.12 0-1.904-.704-1.904-1.68 0-.992.784-1.696 1.904-1.696.848 0 1.664.32 2.128.96v1.456Zm8.93.464c.625.864 1.553 1.36 2.609 1.36 2.032 0 3.44-1.568 3.44-4.064 0-2.512-1.408-4.048-3.44-4.048a3.23 3.23 0 0 0-2.608 1.344v-1.152h-1.2v10.672h1.2v-4.112Zm4.785-2.704c0 1.712-.928 2.992-2.48 2.992-.944 0-1.888-.576-2.304-1.248v-3.488c.416-.672 1.36-1.232 2.304-1.232 1.552 0 2.48 1.264 2.48 2.976Zm6.58 4.064c2.351 0 3.823-1.824 3.823-4.064s-1.472-4.048-3.824-4.048-3.824 1.808-3.824 4.048 1.472 4.064 3.824 4.064Zm0-1.072c-1.649 0-2.577-1.408-2.577-2.992 0-1.568.928-2.976 2.576-2.976 1.648 0 2.56 1.408 2.56 2.976 0 1.584-.912 2.992-2.56 2.992Zm6.98.88v-5.472c.351-.624 1.36-1.232 2.095-1.232.192 0 .336.016.48.048v-1.232c-1.056 0-1.952.592-2.576 1.408v-1.248h-1.2V315h1.2Zm6.033.192c.704 0 1.136-.208 1.44-.496l-.352-.896c-.16.176-.48.32-.816.32-.528 0-.784-.416-.784-.992v-4.8h1.568v-1.056h-1.568v-2.112h-1.2v2.112h-1.28v1.056h1.28v5.056c0 1.152.576 1.808 1.712 1.808Zm4.703 0c.704 0 1.136-.208 1.44-.496l-.352-.896c-.16.176-.48.32-.816.32-.528 0-.784-.416-.784-.992v-4.8h1.568v-1.056h-1.568v-2.112h-1.2v2.112h-1.28v1.056h1.28v5.056c0 1.152.576 1.808 1.712 1.808Zm3.343-9.216a.82.82 0 0 0 .816-.816c0-.448-.368-.8-.816-.8-.432 0-.8.352-.8.8 0 .448.368.816.8.816Zm.608 9.024v-7.728h-1.2V315h1.2Zm4.346.192c.704 0 1.136-.208 1.44-.496l-.352-.896c-.16.176-.48.32-.816.32-.528 0-.784-.416-.784-.992v-4.8h1.568v-1.056h-1.568v-2.112h-1.2v2.112h-1.28v1.056h1.28v5.056c0 1.152.576 1.808 1.712 1.808Zm6.127 0c2.352 0 3.824-1.824 3.824-4.064s-1.472-4.048-3.824-4.048-3.824 1.808-3.824 4.048 1.472 4.064 3.824 4.064Zm0-1.072c-1.648 0-2.576-1.408-2.576-2.992 0-1.568.928-2.976 2.576-2.976 1.648 0 2.56 1.408 2.56 2.976 0 1.584-.912 2.992-2.56 2.992Zm6.98.88v-5.472c.352-.624 1.36-1.232 2.096-1.232.192 0 .336.016.48.048v-1.232c-1.056 0-1.952.592-2.576 1.408v-1.248h-1.2V315h1.2Zm14.238 0v-5.312c0-1.872-1.36-2.608-2.992-2.608-1.264 0-2.256.416-3.088 1.28l.56.832c.688-.736 1.44-1.072 2.368-1.072 1.12 0 1.952.592 1.952 1.632v1.392c-.624-.72-1.504-1.056-2.56-1.056-1.312 0-2.704.816-2.704 2.544 0 1.68 1.392 2.56 2.704 2.56 1.04 0 1.92-.368 2.56-1.072v.88h1.2Zm-1.2-1.632c-.464.64-1.28.96-2.128.96-1.12 0-1.904-.704-1.904-1.68 0-.992.784-1.696 1.904-1.696.848 0 1.664.32 2.128.96v1.456Zm3.158-2.24c0 2.304 1.552 4.064 3.856 4.064 1.408 0 2.24-.576 2.832-1.344l-.8-.736c-.512.688-1.168 1.008-1.968 1.008-1.648 0-2.672-1.28-2.672-2.992s1.024-2.976 2.672-2.976c.8 0 1.456.304 1.968 1.008l.8-.736c-.592-.768-1.424-1.344-2.832-1.344-2.304 0-3.856 1.76-3.856 4.048Zm7.922 0c0 2.304 1.552 4.064 3.856 4.064 1.408 0 2.24-.576 2.832-1.344l-.8-.736c-.512.688-1.168 1.008-1.968 1.008-1.648 0-2.672-1.28-2.672-2.992s1.024-2.976 2.672-2.976c.8 0 1.456.304 1.968 1.008l.8-.736c-.592-.768-1.424-1.344-2.832-1.344-2.304 0-3.856 1.76-3.856 4.048ZM147.679 315v-7.728h-1.2v5.68c-.448.624-1.344 1.168-2.288 1.168-1.04 0-1.728-.4-1.728-1.76v-5.088h-1.2v5.456c0 1.68.848 2.464 2.464 2.464 1.152 0 2.16-.608 2.752-1.28V315h1.2Zm12.924 0v-5.584c0-1.552-.752-2.336-2.16-2.336-1.12 0-2.16.736-2.592 1.44-.224-.8-.896-1.44-2.08-1.44-1.136 0-2.176.816-2.496 1.312v-1.12h-1.2V315h1.2v-5.648c.416-.624 1.248-1.2 2.032-1.2 1.008 0 1.424.624 1.424 1.6V315h1.2v-5.664c.4-.608 1.248-1.184 2.048-1.184.992 0 1.424.624 1.424 1.6V315h1.2Zm1.722-1.024c.784.832 1.856 1.216 3.12 1.216 2 0 3.04-1.04 3.04-2.336 0-1.712-1.552-2.096-2.896-2.4-1.008-.24-1.888-.48-1.888-1.232 0-.688.656-1.168 1.712-1.168.992 0 1.84.416 2.304.976l.56-.832c-.624-.624-1.552-1.12-2.864-1.12-1.84 0-2.88 1.024-2.88 2.224 0 1.6 1.488 1.952 2.8 2.256 1.04.256 1.984.528 1.984 1.376 0 .752-.64 1.28-1.824 1.28-1.056 0-2.032-.512-2.544-1.104l-.624.864ZM176.466 315v-5.312c0-1.872-1.36-2.608-2.992-2.608-1.264 0-2.256.416-3.088 1.28l.56.832c.688-.736 1.44-1.072 2.368-1.072 1.12 0 1.952.592 1.952 1.632v1.392c-.624-.72-1.504-1.056-2.56-1.056-1.312 0-2.704.816-2.704 2.544 0 1.68 1.392 2.56 2.704 2.56 1.04 0 1.92-.368 2.56-1.072v.88h1.2Zm-1.2-1.632c-.464.64-1.28.96-2.128.96-1.12 0-1.904-.704-1.904-1.68 0-.992.784-1.696 1.904-1.696.848 0 1.664.32 2.128.96v1.456ZM185.288 315v-5.424c0-1.68-.848-2.496-2.464-2.496-1.152 0-2.208.672-2.752 1.312v-1.12h-1.2V315h1.2v-5.648c.448-.624 1.344-1.2 2.288-1.2 1.04 0 1.728.432 1.728 1.792V315h1.2Zm8.473.192c.704 0 1.136-.208 1.44-.496l-.352-.896c-.16.176-.48.32-.816.32-.528 0-.784-.416-.784-.992v-4.8h1.568v-1.056h-1.568v-2.112h-1.2v2.112h-1.28v1.056h1.28v5.056c0 1.152.576 1.808 1.712 1.808Zm3.344-9.216a.82.82 0 0 0 .816-.816c0-.448-.368-.8-.816-.8-.432 0-.8.352-.8.8 0 .448.368.816.8.816Zm.608 9.024v-7.728h-1.2V315h1.2Zm8.809 0v-5.424c0-1.68-.848-2.496-2.464-2.496-1.152 0-2.208.672-2.752 1.312v-1.12h-1.2V315h1.2v-5.648c.448-.624 1.344-1.2 2.288-1.2 1.04 0 1.728.432 1.728 1.792V315h1.2Zm1.949-3.872c0 2.304 1.552 4.064 3.856 4.064 1.408 0 2.24-.576 2.832-1.344l-.8-.736c-.512.688-1.168 1.008-1.968 1.008-1.648 0-2.672-1.28-2.672-2.992s1.024-2.976 2.672-2.976c.8 0 1.456.304 1.968 1.008l.8-.736c-.592-.768-1.424-1.344-2.832-1.344-2.304 0-3.856 1.76-3.856 4.048Zm8.962-5.152a.82.82 0 0 0 .816-.816c0-.448-.368-.8-.816-.8-.432 0-.8.352-.8.8 0 .448.368.816.8.816Zm.608 9.024v-7.728h-1.2V315h1.2Zm9.193 0v-10.672h-1.2v4.112c-.624-.848-1.568-1.36-2.608-1.36-2.032 0-3.44 1.6-3.44 4.064 0 2.512 1.424 4.048 3.44 4.048 1.088 0 2.032-.56 2.608-1.344V315h1.2Zm-1.2-2.096c-.432.672-1.36 1.216-2.32 1.216-1.552 0-2.48-1.264-2.48-2.976s.928-2.992 2.48-2.992c.96 0 1.888.576 2.32 1.248v3.504Zm10.02 2.096v-7.728h-1.2v5.68c-.448.624-1.344 1.168-2.288 1.168-1.04 0-1.728-.4-1.728-1.76v-5.088h-1.2v5.456c0 1.68.848 2.464 2.464 2.464 1.152 0 2.16-.608 2.752-1.28V315h1.2Zm8.812 0v-5.424c0-1.68-.848-2.496-2.464-2.496-1.152 0-2.208.672-2.752 1.312v-1.12h-1.2V315h1.2v-5.648c.448-.624 1.344-1.2 2.288-1.2 1.04 0 1.728.432 1.728 1.792V315h1.2Zm4.349.192c.704 0 1.136-.208 1.44-.496l-.352-.896c-.16.176-.48.32-.816.32-.528 0-.784-.416-.784-.992v-4.8h1.568v-1.056h-1.568v-2.112h-1.2v2.112h-1.28v1.056h1.28v5.056c0 1.152.576 1.808 1.712 1.808Zm2.511-.912c0 .48.4.88.88.88s.88-.4.88-.88-.4-.88-.88-.88-.88.4-.88.88Zm12.932.72 4.304-10.672h-1.52l-3.6 9.216-3.6-9.216h-1.52L263.01 315h1.648Zm4.25-3.872c0 2.416 1.648 4.064 3.936 4.064 1.264 0 2.304-.416 3.072-1.184l-.576-.784c-.608.624-1.504.976-2.384.976-1.664 0-2.688-1.216-2.784-2.672h6.256v-.304c0-2.32-1.376-4.144-3.712-4.144-2.208 0-3.808 1.808-3.808 4.048Zm3.792-3.056c1.76 0 2.528 1.424 2.544 2.576h-5.072c.064-1.184.88-2.576 2.528-2.576Zm5 5.904c.784.832 1.856 1.216 3.12 1.216 2 0 3.04-1.04 3.04-2.336 0-1.712-1.552-2.096-2.896-2.4-1.008-.24-1.888-.48-1.888-1.232 0-.688.656-1.168 1.712-1.168.992 0 1.84.416 2.304.976l.56-.832c-.624-.624-1.552-1.12-2.864-1.12-1.84 0-2.88 1.024-2.88 2.224 0 1.6 1.488 1.952 2.8 2.256 1.04.256 1.984.528 1.984 1.376 0 .752-.64 1.28-1.824 1.28-1.056 0-2.032-.512-2.544-1.104l-.624.864Zm10.061 1.216c.704 0 1.136-.208 1.44-.496l-.352-.896c-.16.176-.48.32-.816.32-.528 0-.784-.416-.784-.992v-4.8h1.568v-1.056h-1.568v-2.112h-1.2v2.112h-1.28v1.056h1.28v5.056c0 1.152.576 1.808 1.712 1.808Zm3.344-9.216a.82.82 0 0 0 .816-.816c0-.448-.368-.8-.816-.8-.432 0-.8.352-.8.8 0 .448.368.816.8.816Zm.608 9.024v-7.728h-1.2V315h1.2Zm3.593 0v-1.152c.576.784 1.52 1.344 2.608 1.344 2.016 0 3.44-1.536 3.44-4.048 0-2.464-1.424-4.064-3.44-4.064-1.056 0-1.984.512-2.608 1.36v-4.112h-1.2V315h1.2Zm0-5.6c.416-.672 1.36-1.248 2.304-1.248 1.568 0 2.496 1.28 2.496 2.992s-.928 2.976-2.496 2.976c-.944 0-1.888-.544-2.304-1.216V309.4Zm14.419 5.6v-7.728h-1.2v5.68c-.448.624-1.344 1.168-2.288 1.168-1.04 0-1.728-.4-1.728-1.76v-5.088h-1.2v5.456c0 1.68.848 2.464 2.464 2.464 1.152 0 2.16-.608 2.752-1.28V315h1.2Zm3.597 0v-10.672h-1.2V315h1.2Zm8.81 0v-7.728h-1.2v5.68c-.448.624-1.344 1.168-2.288 1.168-1.04 0-1.728-.4-1.728-1.76v-5.088h-1.2v5.456c0 1.68.848 2.464 2.464 2.464 1.152 0 2.16-.608 2.752-1.28V315h1.2Zm12.924 0v-5.584c0-1.552-.752-2.336-2.16-2.336-1.12 0-2.16.736-2.592 1.44-.224-.8-.896-1.44-2.08-1.44-1.136 0-2.176.816-2.496 1.312v-1.12h-1.2V315h1.2v-5.648c.416-.624 1.248-1.2 2.032-1.2 1.008 0 1.424.624 1.424 1.6V315h1.2v-5.664c.4-.608 1.248-1.184 2.048-1.184.992 0 1.424.624 1.424 1.6V315h1.2Zm12.551 0v-5.312c0-1.872-1.36-2.608-2.992-2.608-1.264 0-2.256.416-3.088 1.28l.56.832c.688-.736 1.44-1.072 2.368-1.072 1.12 0 1.952.592 1.952 1.632v1.392c-.624-.72-1.504-1.056-2.56-1.056-1.312 0-2.704.816-2.704 2.544 0 1.68 1.392 2.56 2.704 2.56 1.04 0 1.92-.368 2.56-1.072v.88h1.2Zm-1.2-1.632c-.464.64-1.28.96-2.128.96-1.12 0-1.904-.704-1.904-1.68 0-.992.784-1.696 1.904-1.696.848 0 1.664.32 2.128.96v1.456Zm3.158-2.24c0 2.304 1.552 4.064 3.856 4.064 1.408 0 2.24-.576 2.832-1.344l-.8-.736c-.512.688-1.168 1.008-1.968 1.008-1.648 0-2.673-1.28-2.673-2.992s1.025-2.976 2.673-2.976c.8 0 1.456.304 1.968 1.008l.8-.736c-.592-.768-1.424-1.344-2.832-1.344-2.304 0-3.856 1.76-3.856 4.048ZM368.859 315v-10.672h-1.2v4.112c-.624-.848-1.568-1.36-2.608-1.36-2.032 0-3.44 1.6-3.44 4.064 0 2.512 1.424 4.048 3.44 4.048 1.088 0 2.032-.56 2.608-1.344V315h1.2Zm-1.2-2.096c-.432.672-1.36 1.216-2.32 1.216-1.552 0-2.48-1.264-2.48-2.976s.928-2.992 2.48-2.992c.96 0 1.888.576 2.32 1.248v3.504Zm4.196-6.928a.82.82 0 0 0 .816-.816c0-.448-.368-.8-.816-.8-.432 0-.8.352-.8.8 0 .448.368.816.8.816Zm.608 9.024v-7.728h-1.2V315h1.2Zm8.425 0v-5.312c0-1.872-1.36-2.608-2.992-2.608-1.264 0-2.256.416-3.088 1.28l.56.832c.688-.736 1.44-1.072 2.368-1.072 1.12 0 1.952.592 1.952 1.632v1.392c-.624-.72-1.504-1.056-2.56-1.056-1.312 0-2.704.816-2.704 2.544 0 1.68 1.392 2.56 2.704 2.56 1.04 0 1.92-.368 2.56-1.072v.88h1.2Zm-1.2-1.632c-.464.64-1.28.96-2.128.96-1.12 0-1.904-.704-1.904-1.68 0-.992.784-1.696 1.904-1.696.848 0 1.664.32 2.128.96v1.456ZM393.822 315v-5.584c0-1.552-.752-2.336-2.16-2.336-1.12 0-2.16.736-2.592 1.44-.224-.8-.896-1.44-2.08-1.44-1.136 0-2.176.816-2.496 1.312v-1.12h-1.2V315h1.2v-5.648c.416-.624 1.248-1.2 2.032-1.2 1.008 0 1.424.624 1.424 1.6V315h1.2v-5.664c.4-.608 1.248-1.184 2.048-1.184.992 0 1.424.624 1.424 1.6V315h1.2Zm5.847-1.024c.784.832 1.856 1.216 3.12 1.216 2 0 3.04-1.04 3.04-2.336 0-1.712-1.552-2.096-2.896-2.4-1.008-.24-1.888-.48-1.888-1.232 0-.688.656-1.168 1.712-1.168.992 0 1.84.416 2.304.976l.56-.832c-.624-.624-1.552-1.12-2.864-1.12-1.84 0-2.88 1.024-2.88 2.224 0 1.6 1.488 1.952 2.8 2.256 1.04.256 1.984.528 1.984 1.376 0 .752-.64 1.28-1.824 1.28-1.056 0-2.032-.512-2.544-1.104l-.624.864Zm8.701-8a.82.82 0 0 0 .816-.816c0-.448-.368-.8-.816-.8-.432 0-.8.352-.8.8 0 .448.368.816.8.816Zm.608 9.024v-7.728h-1.2V315h1.2Zm4.346.192c.704 0 1.136-.208 1.44-.496l-.352-.896c-.16.176-.48.32-.816.32-.528 0-.784-.416-.784-.992v-4.8h1.568v-1.056h-1.568v-2.112h-1.2v2.112h-1.28v1.056h1.28v5.056c0 1.152.576 1.808 1.712 1.808Zm12.908-.192v-5.312c0-1.872-1.36-2.608-2.992-2.608-1.264 0-2.256.416-3.088 1.28l.56.832c.688-.736 1.44-1.072 2.368-1.072 1.12 0 1.952.592 1.952 1.632v1.392c-.624-.72-1.504-1.056-2.56-1.056-1.312 0-2.704.816-2.704 2.544 0 1.68 1.392 2.56 2.704 2.56 1.04 0 1.92-.368 2.56-1.072v.88h1.2Zm-1.2-1.632c-.464.64-1.28.96-2.128.96-1.12 0-1.904-.704-1.904-1.68 0-.992.784-1.696 1.904-1.696.848 0 1.664.32 2.128.96v1.456ZM439.166 315v-5.584c0-1.552-.752-2.336-2.16-2.336-1.121 0-2.16.736-2.592 1.44-.224-.8-.896-1.44-2.08-1.44-1.136 0-2.176.816-2.496 1.312v-1.12h-1.2V315h1.2v-5.648c.416-.624 1.248-1.2 2.032-1.2 1.008 0 1.424.624 1.424 1.6V315h1.2v-5.664c.4-.608 1.248-1.184 2.048-1.184.992 0 1.424.624 1.424 1.6V315h1.2Zm1.945-3.872c0 2.416 1.648 4.064 3.936 4.064 1.264 0 2.304-.416 3.072-1.184l-.576-.784c-.608.624-1.504.976-2.384.976-1.664 0-2.688-1.216-2.784-2.672h6.256v-.304c0-2.32-1.376-4.144-3.712-4.144-2.208 0-3.808 1.808-3.808 4.048Zm3.792-3.056c1.76 0 2.528 1.424 2.544 2.576h-5.072c.064-1.184.88-2.576 2.528-2.576Zm7.624 7.12c.704 0 1.136-.208 1.44-.496l-.352-.896c-.16.176-.48.32-.816.32-.528 0-.784-.416-.784-.992v-4.8h1.568v-1.056h-1.568v-2.112h-1.2v2.112h-1.28v1.056h1.28v5.056c0 1.152.576 1.808 1.712 1.808Zm13.66-7.92h-1.2v1.152a3.2 3.2 0 0 0-2.592-1.344c-2.032 0-3.44 1.536-3.44 4.048 0 2.496 1.408 4.064 3.44 4.064 1.04 0 1.968-.496 2.592-1.36v4.112h1.2v-10.672Zm-1.2 5.6c-.416.672-1.344 1.248-2.304 1.248-1.552 0-2.48-1.28-2.48-2.992s.928-2.976 2.48-2.976c.96 0 1.888.56 2.304 1.232v3.488Zm10.02 2.128v-7.728h-1.2v5.68c-.448.624-1.344 1.168-2.288 1.168-1.04 0-1.728-.4-1.728-1.76v-5.088h-1.2v5.456c0 1.68.848 2.464 2.464 2.464 1.152 0 2.16-.608 2.752-1.28V315h1.2Zm8.428 0v-5.312c0-1.872-1.36-2.608-2.992-2.608-1.264 0-2.256.416-3.088 1.28l.56.832c.688-.736 1.44-1.072 2.368-1.072 1.12 0 1.952.592 1.952 1.632v1.392c-.624-.72-1.504-1.056-2.56-1.056-1.312 0-2.704.816-2.704 2.544 0 1.68 1.392 2.56 2.704 2.56 1.04 0 1.92-.368 2.56-1.072v.88h1.2Zm-1.2-1.632c-.464.64-1.28.96-2.128.96-1.12 0-1.904-.704-1.904-1.68 0-.992.784-1.696 1.904-1.696.848 0 1.664.32 2.128.96v1.456ZM496.369 315v-5.584c0-1.552-.752-2.336-2.16-2.336-1.12 0-2.16.736-2.592 1.44-.224-.8-.896-1.44-2.08-1.44-1.136 0-2.176.816-2.496 1.312v-1.12h-1.2V315h1.2v-5.648c.416-.624 1.248-1.2 2.032-1.2 1.008 0 1.424.624 1.424 1.6V315h1.2v-5.664c.4-.608 1.248-1.184 2.048-1.184.992 0 1.424.624 1.424 1.6V315h1.2ZM20.576 335l3.216-7.728H22.48l-2.56 6.336-2.576-6.336h-1.296L19.264 335h1.312Zm4.02-3.872c0 2.416 1.648 4.064 3.936 4.064 1.264 0 2.304-.416 3.072-1.184l-.576-.784c-.608.624-1.504.976-2.384.976-1.664 0-2.688-1.216-2.784-2.672h6.256v-.304c0-2.32-1.376-4.144-3.712-4.144-2.208 0-3.808 1.808-3.808 4.048Zm3.792-3.056c1.76 0 2.528 1.424 2.544 2.576H25.86c.064-1.184.88-2.576 2.528-2.576ZM40.49 335v-5.456c0-1.68-.848-2.464-2.464-2.464-1.168 0-2.224.672-2.768 1.312v-4.064h-1.2V335h1.2v-5.648c.464-.624 1.36-1.2 2.288-1.2 1.04 0 1.744.4 1.744 1.76V335h1.2Zm2.989-9.024a.82.82 0 0 0 .816-.816c0-.448-.368-.8-.816-.8-.432 0-.8.352-.8.8 0 .448.367.816.8.816Zm.608 9.024v-7.728h-1.2V335h1.2Zm1.945-3.872c0 2.304 1.552 4.064 3.856 4.064 1.408 0 2.24-.576 2.832-1.344l-.8-.736c-.512.688-1.168 1.008-1.968 1.008-1.648 0-2.672-1.28-2.672-2.992s1.024-2.976 2.672-2.976c.8 0 1.456.304 1.968 1.008l.8-.736c-.592-.768-1.424-1.344-2.832-1.344-2.304 0-3.856 1.76-3.856 4.048ZM60.82 335v-7.728h-1.2v5.68c-.448.624-1.344 1.168-2.288 1.168-1.04 0-1.728-.4-1.728-1.76v-5.088h-1.2v5.456c0 1.68.848 2.464 2.464 2.464 1.152 0 2.16-.608 2.752-1.28V335h1.2Zm3.597 0v-10.672h-1.2V335h1.2Zm8.425 0v-5.312c0-1.872-1.36-2.608-2.992-2.608-1.264 0-2.256.416-3.088 1.28l.56.832c.688-.736 1.44-1.072 2.368-1.072 1.12 0 1.952.592 1.952 1.632v1.392c-.624-.72-1.504-1.056-2.56-1.056-1.312 0-2.704.816-2.704 2.544 0 1.68 1.392 2.56 2.704 2.56 1.04 0 1.92-.368 2.56-1.072v.88h1.2Zm-1.2-1.632c-.464.64-1.28.96-2.128.96-1.12 0-1.904-.704-1.904-1.68 0-.992.784-1.696 1.904-1.696.848 0 1.664.32 2.128.96v1.456Zm7.283-2.24c0 2.416 1.648 4.064 3.936 4.064 1.264 0 2.304-.416 3.072-1.184l-.576-.784c-.608.624-1.504.976-2.384.976-1.664 0-2.688-1.216-2.784-2.672h6.256v-.304c0-2.32-1.376-4.144-3.712-4.144-2.208 0-3.808 1.808-3.808 4.048Zm3.792-3.056c1.76 0 2.528 1.424 2.544 2.576h-5.072c.064-1.184.88-2.576 2.528-2.576ZM89.588 335v-10.672h-1.2V335h1.2Zm1.945-3.872c0 2.416 1.648 4.064 3.936 4.064 1.264 0 2.304-.416 3.072-1.184l-.576-.784c-.608.624-1.504.976-2.384.976-1.664 0-2.688-1.216-2.784-2.672h6.256v-.304c0-2.32-1.376-4.144-3.712-4.144-2.208 0-3.808 1.808-3.808 4.048Zm3.792-3.056c1.76 0 2.528 1.424 2.544 2.576h-5.072c.064-1.184.88-2.576 2.528-2.576Zm16.2 6.928v-5.584c0-1.552-.752-2.336-2.16-2.336-1.12 0-2.16.736-2.592 1.44-.224-.8-.896-1.44-2.08-1.44-1.136 0-2.176.816-2.496 1.312v-1.12h-1.2V335h1.2v-5.648c.416-.624 1.248-1.2 2.032-1.2 1.008 0 1.424.624 1.424 1.6V335h1.2v-5.664c.4-.608 1.248-1.184 2.048-1.184.992 0 1.424.624 1.424 1.6V335h1.2Zm1.946-3.872c0 2.416 1.648 4.064 3.936 4.064 1.264 0 2.304-.416 3.072-1.184l-.576-.784c-.608.624-1.504.976-2.384.976-1.664 0-2.688-1.216-2.784-2.672h6.256v-.304c0-2.32-1.376-4.144-3.712-4.144-2.208 0-3.808 1.808-3.808 4.048Zm3.792-3.056c1.76 0 2.528 1.424 2.544 2.576h-5.072c.064-1.184.88-2.576 2.528-2.576ZM129.35 335v-5.424c0-1.68-.848-2.496-2.464-2.496-1.152 0-2.208.672-2.752 1.312v-1.12h-1.2V335h1.2v-5.648c.448-.624 1.344-1.2 2.288-1.2 1.04 0 1.728.432 1.728 1.792V335h1.2Zm4.349.192c.704 0 1.136-.208 1.44-.496l-.352-.896c-.16.176-.48.32-.816.32-.528 0-.784-.416-.784-.992v-4.8h1.568v-1.056h-1.568v-2.112h-1.2v2.112h-1.28v1.056h1.28v5.056c0 1.152.576 1.808 1.712 1.808Zm9.167-.192v-7.728h-1.2v5.68c-.448.624-1.344 1.168-2.288 1.168-1.04 0-1.728-.4-1.728-1.76v-5.088h-1.2v5.456c0 1.68.848 2.464 2.464 2.464 1.152 0 2.16-.608 2.752-1.28V335h1.2Zm12.925 0v-5.584c0-1.552-.752-2.336-2.16-2.336-1.121 0-2.16.736-2.592 1.44-.224-.8-.896-1.44-2.08-1.44-1.136 0-2.176.816-2.496 1.312v-1.12h-1.2V335h1.2v-5.648c.416-.624 1.248-1.2 2.032-1.2 1.008 0 1.424.624 1.424 1.6V335h1.2v-5.664c.4-.608 1.248-1.184 2.048-1.184.992 0 1.424.624 1.424 1.6V335h1.2Zm5.846-1.024c.784.832 1.856 1.216 3.12 1.216 2 0 3.04-1.04 3.04-2.336 0-1.712-1.552-2.096-2.896-2.4-1.008-.24-1.888-.48-1.888-1.232 0-.688.656-1.168 1.712-1.168.992 0 1.84.416 2.304.976l.56-.832c-.624-.624-1.552-1.12-2.864-1.12-1.84 0-2.88 1.024-2.88 2.224 0 1.6 1.488 1.952 2.8 2.256 1.04.256 1.984.528 1.984 1.376 0 .752-.64 1.28-1.824 1.28-1.056 0-2.032-.512-2.544-1.104l-.624.864Zm7.662-2.848c0 2.416 1.648 4.064 3.936 4.064 1.264 0 2.304-.416 3.072-1.184l-.576-.784c-.608.624-1.504.976-2.384.976-1.664 0-2.688-1.216-2.784-2.672h6.256v-.304c0-2.32-1.376-4.144-3.712-4.144-2.208 0-3.808 1.808-3.808 4.048Zm3.792-3.056c1.76 0 2.528 1.424 2.544 2.576h-5.072c.064-1.184.88-2.576 2.528-2.576ZM185.562 335v-10.672h-1.199v4.112c-.624-.848-1.568-1.36-2.608-1.36-2.032 0-3.44 1.6-3.44 4.064 0 2.512 1.424 4.048 3.44 4.048 1.088 0 2.032-.56 2.608-1.344V335h1.199Zm-1.199-2.096c-.432.672-1.36 1.216-2.32 1.216-1.552 0-2.481-1.264-2.481-2.976s.929-2.992 2.481-2.992c.96 0 1.888.576 2.32 1.248v3.504Zm7.056 1.072c.784.832 1.856 1.216 3.12 1.216 2 0 3.04-1.04 3.04-2.336 0-1.712-1.552-2.096-2.896-2.4-1.008-.24-1.888-.48-1.888-1.232 0-.688.656-1.168 1.712-1.168.992 0 1.84.416 2.304.976l.56-.832c-.624-.624-1.552-1.12-2.864-1.12-1.84 0-2.88 1.024-2.88 2.224 0 1.6 1.488 1.952 2.8 2.256 1.04.256 1.984.528 1.984 1.376 0 .752-.64 1.28-1.824 1.28-1.056 0-2.032-.512-2.544-1.104l-.624.864Zm8.701-8a.82.82 0 0 0 .816-.816c0-.448-.368-.8-.816-.8-.432 0-.8.352-.8.8 0 .448.368.816.8.816Zm.608 9.024v-7.728h-1.2V335h1.2Zm4.346.192c.704 0 1.136-.208 1.44-.496l-.352-.896c-.16.176-.48.32-.816.32-.528 0-.784-.416-.784-.992v-4.8h1.568v-1.056h-1.568v-2.112h-1.2v2.112h-1.28v1.056h1.28v5.056c0 1.152.576 1.808 1.712 1.808Zm12.908-.192v-5.312c0-1.872-1.36-2.608-2.992-2.608-1.264 0-2.256.416-3.088 1.28l.56.832c.688-.736 1.44-1.072 2.368-1.072 1.12 0 1.952.592 1.952 1.632v1.392c-.624-.72-1.504-1.056-2.56-1.056-1.312 0-2.704.816-2.704 2.544 0 1.68 1.392 2.56 2.704 2.56 1.04 0 1.92-.368 2.56-1.072v.88h1.2Zm-1.2-1.632c-.464.64-1.28.96-2.128.96-1.12 0-1.904-.704-1.904-1.68 0-.992.784-1.696 1.904-1.696.848 0 1.664.32 2.128.96v1.456ZM230.916 335v-5.584c0-1.552-.752-2.336-2.16-2.336-1.121 0-2.16.736-2.592 1.44-.224-.8-.896-1.44-2.08-1.44-1.136 0-2.176.816-2.496 1.312v-1.12h-1.2V335h1.2v-5.648c.416-.624 1.248-1.2 2.032-1.2 1.008 0 1.424.624 1.424 1.6V335h1.2v-5.664c.4-.608 1.248-1.184 2.048-1.184.992 0 1.424.624 1.424 1.6V335h1.2Zm1.945-3.872c0 2.416 1.648 4.064 3.936 4.064 1.264 0 2.304-.416 3.072-1.184l-.576-.784c-.608.624-1.504.976-2.384.976-1.664 0-2.688-1.216-2.784-2.672h6.256v-.304c0-2.32-1.376-4.144-3.712-4.144-2.208 0-3.808 1.808-3.808 4.048Zm3.792-3.056c1.76 0 2.528 1.424 2.544 2.576h-5.072c.064-1.184.88-2.576 2.528-2.576Zm7.624 7.12c.704 0 1.136-.208 1.44-.496l-.352-.896c-.16.176-.48.32-.816.32-.528 0-.784-.416-.784-.992v-4.8h1.568v-1.056h-1.568v-2.112h-1.2v2.112h-1.28v1.056h1.28v5.056c0 1.152.576 1.808 1.712 1.808Zm13.676-.192v-10.672h-1.2v4.112c-.624-.848-1.568-1.36-2.608-1.36-2.032 0-3.44 1.6-3.44 4.064 0 2.512 1.424 4.048 3.44 4.048 1.088 0 2.032-.56 2.608-1.344V335h1.2Zm-1.2-2.096c-.432.672-1.36 1.216-2.32 1.216-1.552 0-2.48-1.264-2.48-2.976s.928-2.992 2.48-2.992c.96 0 1.888.576 2.32 1.248v3.504ZM266.772 335v-7.728h-1.2v5.68c-.448.624-1.344 1.168-2.288 1.168-1.04 0-1.728-.4-1.728-1.76v-5.088h-1.2v5.456c0 1.68.848 2.464 2.464 2.464 1.152 0 2.16-.608 2.752-1.28V335h1.2Zm2.989-9.024a.82.82 0 0 0 .816-.816c0-.448-.368-.8-.816-.8-.432 0-.8.352-.8.8 0 .448.368.816.8.816Zm.608 9.024v-7.728h-1.2V335h1.2Zm2.154-.72c0 .48.4.88.88.88s.88-.4.88-.88-.4-.88-.88-.88-.88.4-.88.88Z"/><defs><clipPath id="a"><path fill="#fff" d="M16 62h36v36H16z"/></clipPath></defs></svg>