<svg xmlns="http://www.w3.org/2000/svg" width="1440" height="1024" fill="none"><path fill="#FAFAFA" d="M0 0h1440v1024H0z"/><path fill="#6366F1" d="M385.532 233v-1.722h-4.62v-2.17h4.522V227.4h-4.522v-2.03h4.62v-1.708h-6.608V233h6.608Zm11.69 0v-4.886c0-1.386-.742-2.044-1.988-2.044-1.036 0-1.932.616-2.324 1.232-.252-.77-.882-1.232-1.876-1.232-1.036 0-1.932.644-2.212 1.05v-.882h-1.778V233h1.778v-4.55c.266-.378.784-.798 1.4-.798.728 0 1.008.448 1.008 1.078V233h1.792v-4.564c.252-.364.77-.784 1.4-.784.728 0 1.008.448 1.008 1.078V233h1.792Zm3.522-.868c.546.7 1.288 1.036 2.086 1.036 1.736 0 2.996-1.302 2.996-3.556s-1.26-3.542-2.996-3.542c-.826 0-1.568.364-2.086 1.022v-.854h-1.778v9.338h1.778v-3.444Zm3.234-2.52c0 1.176-.686 1.974-1.708 1.974-.574 0-1.232-.35-1.526-.77v-2.394c.294-.434.952-.77 1.526-.77 1.022 0 1.708.798 1.708 1.96Zm4.955 3.388v-9.338h-1.778V233h1.778Zm4.899.168c2.24 0 3.584-1.624 3.584-3.556 0-1.918-1.344-3.542-3.584-3.542-2.226 0-3.57 1.624-3.57 3.542 0 1.932 1.344 3.556 3.57 3.556Zm0-1.582c-1.106 0-1.722-.91-1.722-1.974 0-1.05.616-1.96 1.722-1.96 1.106 0 1.736.91 1.736 1.96 0 1.064-.63 1.974-1.736 1.974Zm4.666 4.06c.224.056.672.098.882.098 1.162-.028 2.058-.364 2.562-1.638l3.178-7.868h-1.918l-1.764 4.704-1.764-4.704h-1.904l2.744 6.86-.252.574c-.168.364-.476.49-.938.49-.168 0-.406-.042-.56-.112l-.266 1.596Zm6.981-6.034c0 2.17 1.554 3.556 3.612 3.556 1.05 0 2.1-.308 2.786-.938l-.784-1.148c-.434.42-1.176.672-1.806.672-1.148 0-1.834-.714-1.946-1.568h5.026v-.392c0-2.212-1.372-3.724-3.388-3.724-2.058 0-3.5 1.582-3.5 3.542Zm3.5-2.128c1.176 0 1.624.854 1.666 1.498h-3.332c.084-.672.56-1.498 1.666-1.498Zm4.239 2.128c0 2.17 1.554 3.556 3.612 3.556 1.05 0 2.1-.308 2.786-.938l-.784-1.148c-.434.42-1.176.672-1.806.672-1.148 0-1.834-.714-1.946-1.568h5.026v-.392c0-2.212-1.372-3.724-3.388-3.724-2.058 0-3.5 1.582-3.5 3.542Zm3.5-2.128c1.176 0 1.624.854 1.666 1.498h-3.332c.084-.672.56-1.498 1.666-1.498Zm4.084 4.634c.714.658 1.848 1.05 3.024 1.05 1.876 0 2.926-.924 2.926-2.17 0-1.68-1.554-1.988-2.716-2.212-.756-.154-1.288-.308-1.288-.728 0-.392.42-.63 1.064-.63.826 0 1.596.35 2.002.784l.7-1.218c-.658-.532-1.568-.924-2.716-.924-1.778 0-2.772.994-2.772 2.128 0 1.61 1.498 1.89 2.66 2.114.77.154 1.358.322 1.358.798 0 .42-.364.686-1.134.686-.84 0-1.848-.462-2.338-.924l-.77 1.246Z"/><g clip-path="url(#a)"><path fill="#18181C" fill-rule="evenodd" d="m468 225.769-6 6.462-6-6.462h12Z" clip-rule="evenodd"/></g><rect width="149" height="40" x="1249" y="209" fill="#6366F1" rx="3"/><path fill="#fff" d="M1281.76 234.192c1.93 0 3.21-.896 4.11-2.112l-1.14-.624c-.61.912-1.71 1.552-2.97 1.552-2.29 0-4.07-1.808-4.07-4.336 0-2.544 1.78-4.336 4.07-4.336 1.26 0 2.36.656 2.97 1.552l1.12-.624c-.85-1.2-2.16-2.112-4.09-2.112-3.03 0-5.44 2.24-5.44 5.52 0 3.28 2.41 5.52 5.44 5.52Zm6.95-.192v-5.472c.35-.624 1.36-1.232 2.1-1.232.19 0 .33.016.48.048v-1.232c-1.06 0-1.95.592-2.58 1.408v-1.248h-1.2V234h1.2Zm3.64-3.872c0 2.416 1.64 4.064 3.93 4.064 1.27 0 2.31-.416 3.07-1.184l-.57-.784c-.61.624-1.51.976-2.39.976-1.66 0-2.68-1.216-2.78-2.672h6.26v-.304c0-2.32-1.38-4.144-3.72-4.144-2.2 0-3.8 1.808-3.8 4.048Zm3.79-3.056c1.76 0 2.53 1.424 2.54 2.576h-5.07c.06-1.184.88-2.576 2.53-2.576Zm11.7 6.928v-5.312c0-1.872-1.36-2.608-2.99-2.608-1.26 0-2.26.416-3.09 1.28l.56.832c.69-.736 1.44-1.072 2.37-1.072 1.12 0 1.95.592 1.95 1.632v1.392c-.62-.72-1.5-1.056-2.56-1.056-1.31 0-2.7.816-2.7 2.544 0 1.68 1.39 2.56 2.7 2.56 1.04 0 1.92-.368 2.56-1.072v.88h1.2Zm-1.2-1.632c-.46.64-1.28.96-2.13.96-1.12 0-1.9-.704-1.9-1.68 0-.992.78-1.696 1.9-1.696.85 0 1.67.32 2.13.96v1.456Zm5.56 1.824c.7 0 1.13-.208 1.44-.496l-.35-.896c-.16.176-.48.32-.82.32-.53 0-.78-.416-.78-.992v-4.8h1.56v-1.056h-1.56v-2.112h-1.2v2.112h-1.28v1.056h1.28v5.056c0 1.152.57 1.808 1.71 1.808Zm2.3-4.064c0 2.416 1.65 4.064 3.94 4.064 1.26 0 2.3-.416 3.07-1.184l-.58-.784c-.6.624-1.5.976-2.38.976-1.66 0-2.69-1.216-2.78-2.672h6.25v-.304c0-2.32-1.37-4.144-3.71-4.144-2.21 0-3.81 1.808-3.81 4.048Zm3.79-3.056c1.76 0 2.53 1.424 2.55 2.576h-5.07c.06-1.184.88-2.576 2.52-2.576Zm9.42 1.6c0 3.312 2.44 5.536 5.48 5.536 1.75 0 3.2-.736 4.2-1.84v-3.856h-5v1.184h3.67v2.176c-.53.528-1.59 1.152-2.87 1.152-2.33 0-4.11-1.824-4.11-4.352 0-2.544 1.78-4.336 4.11-4.336 1.28 0 2.42.608 3.09 1.472l1.06-.656c-.95-1.168-2.26-2-4.15-2-3.04 0-5.48 2.208-5.48 5.52ZM1340.7 234v-5.472c.35-.624 1.36-1.232 2.09-1.232.19 0 .34.016.48.048v-1.232c-1.05 0-1.95.592-2.57 1.408v-1.248h-1.2V234h1.2Zm7.45.192c2.36 0 3.83-1.824 3.83-4.064s-1.47-4.048-3.83-4.048c-2.35 0-3.82 1.808-3.82 4.048s1.47 4.064 3.82 4.064Zm0-1.072c-1.64 0-2.57-1.408-2.57-2.992 0-1.568.93-2.976 2.57-2.976 1.65 0 2.56 1.408 2.56 2.976 0 1.584-.91 2.992-2.56 2.992Zm12.2.88v-7.728h-1.2v5.68c-.45.624-1.34 1.168-2.29 1.168-1.04 0-1.73-.4-1.73-1.76v-5.088h-1.2v5.456c0 1.68.85 2.464 2.47 2.464 1.15 0 2.16-.608 2.75-1.28V234h1.2Zm3.6-1.168c.62.864 1.55 1.36 2.6 1.36 2.04 0 3.44-1.568 3.44-4.064 0-2.512-1.4-4.048-3.44-4.048-1.08 0-2.04.56-2.6 1.344v-1.152h-1.2v10.672h1.2v-4.112Zm4.78-2.704c0 1.712-.93 2.992-2.48 2.992-.94 0-1.89-.576-2.3-1.248v-3.488c.41-.672 1.36-1.232 2.3-1.232 1.55 0 2.48 1.264 2.48 2.976Z"/><g filter="url(#b)"><rect width="1044" height="261" x="368" y="276" fill="#fff" rx="3"/><g fill="#000" clip-path="url(#c)"><path d="M384.544 303.672c0 3.36 2.56 5.536 5.68 5.536 1.936 0 3.456-.8 4.544-2.016v-4.08h-5.088v1.952h2.848v1.296c-.464.416-1.328.816-2.304.816-1.936 0-3.344-1.488-3.344-3.504s1.408-3.504 3.344-3.504c1.12 0 2.032.592 2.528 1.344l1.888-1.024c-.816-1.264-2.208-2.336-4.416-2.336-3.12 0-5.68 2.144-5.68 5.52ZM398.556 309v-5.104c.336-.496 1.232-.864 1.904-.864.224 0 .416.016.56.048v-1.984c-.96 0-1.92.544-2.464 1.232v-1.056h-2.032V309h2.032Zm7.317.192c2.56 0 4.096-1.856 4.096-4.064 0-2.192-1.536-4.048-4.096-4.048-2.544 0-4.08 1.856-4.08 4.048 0 2.208 1.536 4.064 4.08 4.064Zm0-1.808c-1.264 0-1.968-1.04-1.968-2.256 0-1.2.704-2.24 1.968-2.24s1.984 1.04 1.984 2.24c0 1.216-.72 2.256-1.984 2.256ZM418.725 309v-7.728h-2.032v5.232c-.352.448-.976.88-1.76.88-.864 0-1.424-.352-1.424-1.424v-4.688h-2.032v5.488c0 1.504.8 2.432 2.496 2.432 1.264 0 2.192-.576 2.72-1.168V309h2.032Zm4.049-.992c.624.8 1.472 1.184 2.384 1.184 1.984 0 3.424-1.488 3.424-4.064s-1.44-4.048-3.424-4.048c-.944 0-1.792.416-2.384 1.168v-.976h-2.032v10.672h2.032v-3.936Zm3.696-2.88c0 1.344-.784 2.256-1.952 2.256-.656 0-1.408-.4-1.744-.88v-2.736c.336-.496 1.088-.88 1.744-.88 1.168 0 1.952.912 1.952 2.24ZM438.612 309l.896-2.704h1.648l.4-1.296h-1.616l.88-2.656h1.6l.384-1.28h-1.552l.928-2.736h-1.52l-.896 2.736h-1.504l.896-2.736h-1.504l-.896 2.736h-1.616l-.4 1.28h1.568l-.864 2.656h-1.568l-.416 1.296h1.536l-.912 2.704h1.504l.912-2.704h1.52l-.928 2.704h1.52Zm-.176-4h-1.488l.864-2.656h1.504l-.88 2.656Zm13.426 4v-2h-4.448c2.864-2.016 4.368-3.6 4.368-5.424 0-2.128-1.808-3.408-4.08-3.408-1.488 0-3.072.544-4.112 1.744l1.296 1.504c.72-.752 1.648-1.232 2.848-1.232.896 0 1.744.464 1.744 1.392 0 1.312-1.28 2.416-5.648 5.632V309h8.032Zm-67.148 17.338c0 2.898 2.142 4.844 4.802 4.844 1.526 0 2.8-.644 3.668-1.61v-3.374h-4.368v1.036h3.206v1.904c-.462.462-1.386 1.008-2.506 1.008-2.044 0-3.598-1.596-3.598-3.808 0-2.226 1.554-3.794 3.598-3.794 1.12 0 2.114.532 2.702 1.288l.924-.574c-.826-1.022-1.974-1.75-3.626-1.75-2.66 0-4.802 1.932-4.802 4.83ZM396.08 331v-4.788c.308-.546 1.19-1.078 1.834-1.078.168 0 .294.014.42.042v-1.078c-.924 0-1.708.518-2.254 1.232v-1.092h-1.05V331h1.05Zm6.526.168c2.058 0 3.346-1.596 3.346-3.556s-1.288-3.542-3.346-3.542-3.346 1.582-3.346 3.542c0 1.96 1.288 3.556 3.346 3.556Zm0-.938c-1.442 0-2.254-1.232-2.254-2.618 0-1.372.812-2.604 2.254-2.604s2.24 1.232 2.24 2.604c0 1.386-.798 2.618-2.24 2.618Zm10.671.77v-6.762h-1.05v4.97c-.392.546-1.176 1.022-2.002 1.022-.91 0-1.512-.35-1.512-1.54v-4.452h-1.05v4.774c0 1.47.742 2.156 2.156 2.156 1.008 0 1.89-.532 2.408-1.12V331h1.05Zm3.147-1.022c.546.756 1.358 1.19 2.282 1.19 1.778 0 3.01-1.372 3.01-3.556 0-2.198-1.232-3.542-3.01-3.542-.952 0-1.792.49-2.282 1.176v-1.008h-1.05v9.338h1.05v-3.598Zm4.186-2.366c0 1.498-.812 2.618-2.17 2.618-.826 0-1.652-.504-2.016-1.092v-3.052c.364-.588 1.19-1.078 2.016-1.078 1.358 0 2.17 1.106 2.17 2.604ZM432.973 331v-9.338h-1.05v3.598c-.546-.742-1.372-1.19-2.282-1.19-1.778 0-3.01 1.4-3.01 3.556 0 2.198 1.246 3.542 3.01 3.542.952 0 1.778-.49 2.282-1.176V331h1.05Zm-1.05-1.834c-.378.588-1.19 1.064-2.03 1.064-1.358 0-2.17-1.106-2.17-2.604s.812-2.618 2.17-2.618c.84 0 1.652.504 2.03 1.092v3.066Zm2.76-1.554c0 2.114 1.442 3.556 3.444 3.556 1.106 0 2.016-.364 2.688-1.036l-.504-.686c-.532.546-1.316.854-2.086.854-1.456 0-2.352-1.064-2.436-2.338h5.474v-.266c0-2.03-1.204-3.626-3.248-3.626-1.932 0-3.332 1.582-3.332 3.542Zm3.318-2.674c1.54 0 2.212 1.246 2.226 2.254h-4.438c.056-1.036.77-2.254 2.212-2.254Zm4.375 5.166c.686.728 1.624 1.064 2.73 1.064 1.75 0 2.66-.91 2.66-2.044 0-1.498-1.358-1.834-2.534-2.1-.882-.21-1.652-.42-1.652-1.078 0-.602.574-1.022 1.498-1.022.868 0 1.61.364 2.016.854l.49-.728c-.546-.546-1.358-.98-2.506-.98-1.61 0-2.52.896-2.52 1.946 0 1.4 1.302 1.708 2.45 1.974.91.224 1.736.462 1.736 1.204 0 .658-.56 1.12-1.596 1.12-.924 0-1.778-.448-2.226-.966l-.546.756Zm6.704-2.492c0 2.016 1.358 3.556 3.374 3.556 1.232 0 1.96-.504 2.478-1.176l-.7-.644c-.448.602-1.022.882-1.722.882-1.442 0-2.338-1.12-2.338-2.618 0-1.498.896-2.604 2.338-2.604.7 0 1.274.266 1.722.882l.7-.644c-.518-.672-1.246-1.176-2.478-1.176-2.016 0-3.374 1.54-3.374 3.542Zm8.374 3.388v-4.788c.308-.546 1.19-1.078 1.834-1.078.168 0 .294.014.42.042v-1.078c-.924 0-1.708.518-2.254 1.232v-1.092h-1.05V331h1.05Zm4.089-7.896a.717.717 0 0 0 .714-.714c0-.392-.322-.7-.714-.7-.378 0-.7.308-.7.7 0 .392.322.714.7.714Zm.532 7.896v-6.762h-1.05V331h1.05Zm3.144-1.022c.546.756 1.358 1.19 2.282 1.19 1.778 0 3.01-1.372 3.01-3.556 0-2.198-1.232-3.542-3.01-3.542-.952 0-1.792.49-2.282 1.176v-1.008h-1.05v9.338h1.05v-3.598Zm4.186-2.366c0 1.498-.812 2.618-2.17 2.618-.826 0-1.652-.504-2.016-1.092v-3.052c.364-.588 1.19-1.078 2.016-1.078 1.358 0 2.17 1.106 2.17 2.604Zm4.511 3.556c.616 0 .994-.182 1.26-.434l-.308-.784c-.14.154-.42.28-.714.28-.462 0-.686-.364-.686-.868v-4.2h1.372v-.924h-1.372v-1.848h-1.05v1.848h-1.12v.924h1.12v4.424c0 1.008.504 1.582 1.498 1.582Zm2.925-8.064a.717.717 0 0 0 .714-.714c0-.392-.322-.7-.714-.7-.378 0-.7.308-.7.7 0 .392.322.714.7.714Zm.532 7.896v-6.762h-1.05V331h1.05Zm5.049.168c2.058 0 3.346-1.596 3.346-3.556s-1.288-3.542-3.346-3.542-3.346 1.582-3.346 3.542c0 1.96 1.288 3.556 3.346 3.556Zm0-.938c-1.442 0-2.254-1.232-2.254-2.618 0-1.372.812-2.604 2.254-2.604s2.24 1.232 2.24 2.604c0 1.386-.798 2.618-2.24 2.618Zm10.672.77v-4.746c0-1.47-.742-2.184-2.156-2.184-1.008 0-1.932.588-2.408 1.148v-.98h-1.05V331h1.05v-4.942c.392-.546 1.176-1.05 2.002-1.05.91 0 1.512.378 1.512 1.568V331h1.05Zm1.887-.63c0 .42.35.77.77.77.42 0 .77-.35.77-.77 0-.42-.35-.77-.77-.77-.42 0-.77.35-.77.77Z"/></g><g clip-path="url(#d)"><path fill="#6366F1" d="m399.296 362.625 2.7-2.595-9-8.651-9 8.651 2.7 2.595 6.3-6.056 6.3 6.056Z"/></g><path fill="#6366F1" d="m415.32 361 3.766-9.338h-1.33l-3.15 8.064-3.15-8.064h-1.33l3.752 9.338h1.442Zm5.463-7.896a.717.717 0 0 0 .714-.714c0-.392-.322-.7-.714-.7-.378 0-.7.308-.7.7 0 .392.322.714.7.714Zm.532 7.896v-6.762h-1.05V361h1.05Zm1.702-3.388c0 2.114 1.442 3.556 3.444 3.556 1.106 0 2.016-.364 2.688-1.036l-.504-.686c-.532.546-1.316.854-2.086.854-1.456 0-2.352-1.064-2.436-2.338h5.474v-.266c0-2.03-1.204-3.626-3.248-3.626-1.932 0-3.332 1.582-3.332 3.542Zm3.318-2.674c1.54 0 2.212 1.246 2.226 2.254h-4.438c.056-1.036.77-2.254 2.212-2.254ZM438.2 361l2.156-6.762h-1.092l-1.652 5.39-1.778-5.39h-.896l-1.778 5.39-1.652-5.39h-1.092l2.156 6.762h1.05l1.764-5.432L437.15 361h1.05Zm6.653-4.662c0 2.898 2.142 4.844 4.802 4.844 1.526 0 2.8-.644 3.668-1.61v-3.374h-4.368v1.036h3.206v1.904c-.462.462-1.386 1.008-2.506 1.008-2.044 0-3.598-1.596-3.598-3.808 0-2.226 1.554-3.794 3.598-3.794 1.12 0 2.114.532 2.702 1.288l.924-.574c-.826-1.022-1.974-1.75-3.626-1.75-2.66 0-4.802 1.932-4.802 4.83ZM456.219 361v-4.788c.308-.546 1.19-1.078 1.834-1.078.168 0 .294.014.42.042v-1.078c-.924 0-1.708.518-2.254 1.232v-1.092h-1.05V361h1.05Zm6.525.168c2.058 0 3.346-1.596 3.346-3.556s-1.288-3.542-3.346-3.542-3.346 1.582-3.346 3.542c0 1.96 1.288 3.556 3.346 3.556Zm0-.938c-1.442 0-2.254-1.232-2.254-2.618 0-1.372.812-2.604 2.254-2.604s2.24 1.232 2.24 2.604c0 1.386-.798 2.618-2.24 2.618Zm10.672.77v-6.762h-1.05v4.97c-.392.546-1.176 1.022-2.002 1.022-.91 0-1.512-.35-1.512-1.54v-4.452h-1.05v4.774c0 1.47.742 2.156 2.156 2.156 1.008 0 1.89-.532 2.408-1.12V361h1.05Zm3.147-1.022c.546.756 1.358 1.19 2.282 1.19 1.778 0 3.01-1.372 3.01-3.556 0-2.198-1.232-3.542-3.01-3.542-.952 0-1.792.49-2.282 1.176v-1.008h-1.05v9.338h1.05v-3.598Zm4.186-2.366c0 1.498-.812 2.618-2.17 2.618-.826 0-1.652-.504-2.016-1.092v-3.052c.364-.588 1.19-1.078 2.016-1.078 1.358 0 2.17 1.106 2.17 2.604ZM496.345 361v-9.338h-1.666l-2.912 7.112-2.898-7.112h-1.666V361h1.162v-7.77l3.164 7.77h.476l3.178-7.77V361h1.162Zm1.745-3.388c0 2.114 1.442 3.556 3.444 3.556 1.106 0 2.016-.364 2.688-1.036l-.504-.686c-.532.546-1.316.854-2.086.854-1.456 0-2.352-1.064-2.436-2.338h5.474v-.266c0-2.03-1.204-3.626-3.248-3.626-1.932 0-3.332 1.582-3.332 3.542Zm3.318-2.674c1.54 0 2.212 1.246 2.226 2.254h-4.438c.056-1.036.77-2.254 2.212-2.254ZM515.582 361v-4.886c0-1.358-.658-2.044-1.89-2.044-.98 0-1.89.644-2.268 1.26-.196-.7-.784-1.26-1.82-1.26-.994 0-1.904.714-2.184 1.148v-.98h-1.05V361h1.05v-4.942c.364-.546 1.092-1.05 1.778-1.05.882 0 1.246.546 1.246 1.4V361h1.05v-4.956c.35-.532 1.092-1.036 1.792-1.036.868 0 1.246.546 1.246 1.4V361h1.05Zm3.145 0v-1.008c.504.686 1.33 1.176 2.282 1.176 1.764 0 3.01-1.344 3.01-3.542 0-2.156-1.246-3.556-3.01-3.556-.924 0-1.736.448-2.282 1.19v-3.598h-1.05V361h1.05Zm0-4.9c.364-.588 1.19-1.092 2.016-1.092 1.372 0 2.184 1.12 2.184 2.618 0 1.498-.812 2.604-2.184 2.604-.826 0-1.652-.476-2.016-1.064V356.1Zm6.611 1.512c0 2.114 1.442 3.556 3.444 3.556 1.106 0 2.016-.364 2.688-1.036l-.504-.686c-.532.546-1.316.854-2.086.854-1.456 0-2.352-1.064-2.436-2.338h5.474v-.266c0-2.03-1.204-3.626-3.248-3.626-1.932 0-3.332 1.582-3.332 3.542Zm3.318-2.674c1.54 0 2.212 1.246 2.226 2.254h-4.438c.056-1.036.77-2.254 2.212-2.254Zm6.012 6.062v-4.788c.308-.546 1.19-1.078 1.834-1.078.168 0 .294.014.42.042v-1.078c-.924 0-1.708.518-2.254 1.232v-1.092h-1.05V361h1.05Zm2.983-.896c.686.728 1.624 1.064 2.73 1.064 1.75 0 2.66-.91 2.66-2.044 0-1.498-1.358-1.834-2.534-2.1-.882-.21-1.652-.42-1.652-1.078 0-.602.574-1.022 1.498-1.022.868 0 1.61.364 2.016.854l.49-.728c-.546-.546-1.358-.98-2.506-.98-1.61 0-2.52.896-2.52 1.946 0 1.4 1.302 1.708 2.45 1.974.91.224 1.736.462 1.736 1.204 0 .658-.56 1.12-1.596 1.12-.924 0-1.778-.448-2.226-.966l-.546.756Z"/><path fill="#52525B" d="M1390.43 306.571a2.571 2.571 0 0 1 0-5.142 2.571 2.571 0 0 1 0 5.142Zm-12.86 0a2.571 2.571 0 0 1 0-5.142 2.571 2.571 0 0 1 0 5.142Zm6.43 0a2.571 2.571 0 0 1 0-5.142 2.571 2.571 0 0 1 0 5.142Z"/><path fill="#fff" d="M424 393h224v48H424z"/><circle cx="442" cy="417" r="18" fill="#B15DC1"/><path fill="#fff" d="m440.489 422-4.228-4.9 3.892-4.438h-1.456l-4.13 4.83v-4.83h-1.162V422h1.162v-3.136l.938-1.064 3.542 4.2h1.442Zm9.108 0v-9.338h-1.162v4.018h-5.46v-4.018h-1.162V422h1.162v-4.284h5.46V422h1.162Z"/><g clip-path="url(#e)"><path fill="#fff" d="M472 393h173v48H472z"/><path fill="#000" d="m481.344 410-4.832-5.6 4.448-5.072h-1.664l-4.72 5.52v-5.52h-1.328V410h1.328v-3.584l1.072-1.216 4.048 4.8h1.648Zm7.232 0v-5.312c0-1.872-1.36-2.608-2.992-2.608-1.264 0-2.256.416-3.088 1.28l.56.832c.688-.736 1.44-1.072 2.368-1.072 1.12 0 1.952.592 1.952 1.632v1.392c-.624-.72-1.504-1.056-2.56-1.056-1.312 0-2.704.816-2.704 2.544 0 1.68 1.392 2.56 2.704 2.56 1.04 0 1.92-.368 2.56-1.072v.88h1.2Zm-1.2-1.632c-.464.64-1.28.96-2.128.96-1.12 0-1.904-.704-1.904-1.68 0-.992.784-1.696 1.904-1.696.848 0 1.664.32 2.128.96v1.456Zm4.805 1.632v-5.472c.352-.624 1.36-1.232 2.096-1.232.192 0 .336.016.48.048v-1.232c-1.056 0-1.952.592-2.576 1.408v-1.248h-1.2V410h1.2Zm3.634-3.872c0 2.416 1.648 4.064 3.936 4.064 1.264 0 2.304-.416 3.072-1.184l-.576-.784c-.608.624-1.504.976-2.384.976-1.664 0-2.689-1.216-2.784-2.672h6.256v-.304c0-2.32-1.376-4.144-3.712-4.144-2.209 0-3.808 1.808-3.808 4.048Zm3.792-3.056c1.76 0 2.528 1.424 2.544 2.576h-5.072c.064-1.184.88-2.576 2.528-2.576ZM511.694 410v-5.424c0-1.68-.848-2.496-2.464-2.496-1.152 0-2.208.672-2.752 1.312v-1.12h-1.2V410h1.2v-5.648c.448-.624 1.344-1.2 2.288-1.2 1.04 0 1.728.432 1.728 1.792V410h1.2Zm15.466 0v-10.672h-1.328v4.592h-6.24v-4.592h-1.328V410h1.328v-4.896h6.24V410h1.328Zm8.478 0v-5.312c0-1.872-1.36-2.608-2.992-2.608-1.264 0-2.256.416-3.088 1.28l.56.832c.688-.736 1.44-1.072 2.368-1.072 1.12 0 1.952.592 1.952 1.632v1.392c-.624-.72-1.504-1.056-2.56-1.056-1.312 0-2.704.816-2.704 2.544 0 1.68 1.392 2.56 2.704 2.56 1.04 0 1.92-.368 2.56-1.072v.88h1.2Zm-1.2-1.632c-.464.64-1.28.96-2.128.96-1.12 0-1.904-.704-1.904-1.68 0-.992.784-1.696 1.904-1.696.848 0 1.664.32 2.128.96v1.456Zm4.806 1.632v-5.472c.352-.624 1.36-1.232 2.096-1.232.192 0 .336.016.48.048v-1.232c-1.056 0-1.952.592-2.576 1.408v-1.248h-1.2V410h1.2Zm6.033.192c.704 0 1.136-.208 1.44-.496l-.352-.896c-.16.176-.48.32-.816.32-.528 0-.784-.416-.784-.992v-4.8h1.568v-1.056h-1.568v-2.112h-1.2v2.112h-1.28v1.056h1.28v5.056c0 1.152.576 1.808 1.712 1.808Z"/><path fill="#fff" d="M472 417h173v24H472z"/><path fill="#A1A1AA" d="M480.772 433v-8.004h-1.428l-2.496 6.096-2.484-6.096h-1.428V433h.996v-6.66l2.712 6.66h.408l2.724-6.66V433h.996Zm1.327-.768c.588.624 1.392.912 2.34.912 1.5 0 2.28-.78 2.28-1.752 0-1.284-1.164-1.572-2.172-1.8-.756-.18-1.416-.36-1.416-.924 0-.516.492-.876 1.284-.876.744 0 1.38.312 1.728.732l.42-.624c-.468-.468-1.164-.84-2.148-.84-1.38 0-2.16.768-2.16 1.668 0 1.2 1.116 1.464 2.1 1.692.78.192 1.488.396 1.488 1.032 0 .564-.48.96-1.368.96-.792 0-1.524-.384-1.908-.828l-.468.648Zm5.902.228c0 .36.3.66.66.66.36 0 .66-.3.66-.66 0-.36-.3-.66-.66-.66-.36 0-.66.3-.66.66Zm7.829.78v-8.484h-.66v8.484h.66Z"/><path fill="#6366F1" d="m506.258 433-2.58-3.168 2.568-2.628h-1.14l-3.048 3.084v-5.292h-.9V433h.9v-1.656l.96-.948 2.088 2.604h1.152Zm5.888 0v-4.092c0-1.26-.636-1.848-1.848-1.848-.876 0-1.668.504-2.076.984v-3.048h-.9V433h.9v-4.236c.348-.468 1.02-.9 1.716-.9.78 0 1.308.3 1.308 1.32V433h.9Zm6.321 0v-3.984c0-1.404-1.02-1.956-2.244-1.956-.948 0-1.692.312-2.316.96l.42.624c.516-.552 1.08-.804 1.776-.804.84 0 1.464.444 1.464 1.224v1.044c-.468-.54-1.128-.792-1.92-.792-.984 0-2.028.612-2.028 1.908 0 1.26 1.044 1.92 2.028 1.92.78 0 1.44-.276 1.92-.804v.66h.9Zm-.9-1.224c-.348.48-.96.72-1.596.72-.84 0-1.428-.528-1.428-1.26 0-.744.588-1.272 1.428-1.272.636 0 1.248.24 1.596.72v1.092Zm3.604 1.224v-4.104c.264-.468 1.02-.924 1.572-.924.144 0 .252.012.36.036v-.924c-.792 0-1.464.444-1.932 1.056v-.936h-.9V433h.9Zm4.525.144c.528 0 .852-.156 1.08-.372l-.264-.672c-.12.132-.36.24-.612.24-.396 0-.588-.312-.588-.744v-3.6h1.176v-.792h-1.176v-1.584h-.9v1.584h-.96v.792h.96v3.792c0 .864.432 1.356 1.284 1.356Zm1.583-3.072c0 2.124 1.62 3.768 3.804 3.768.888 0 1.752-.276 2.496-.756l-.216-.312c-.648.408-1.38.672-2.232.672-1.992 0-3.444-1.464-3.444-3.396 0-2.244 1.992-4.296 4.308-4.296 2.04 0 3.396 1.428 3.396 3.396 0 1.656-.828 2.184-1.296 2.184-.312 0-.564-.216-.564-.624 0-.072.012-.18.024-.252l.684-3.252h-.816l-.156.744c-.228-.516-.756-.936-1.536-.936-1.416 0-2.82 1.344-2.82 3.012 0 1.164.72 1.956 1.836 1.956.768 0 1.476-.456 1.896-1.044l.012.072c.036.504.42.972 1.092.972 1.008 0 2.076-.948 2.076-2.832 0-2.1-1.512-3.804-3.78-3.804-2.496 0-4.764 2.136-4.764 4.728Zm5.496.156c-.348.504-.96 1.08-1.788 1.08-.768 0-1.224-.564-1.224-1.332 0-1.152.924-2.292 2.124-2.292.708 0 1.104.516 1.236.888l-.348 1.656Zm4.371 4.26c.684.672 1.356.864 2.34.864 1.416 0 2.76-.6 2.76-2.52v-5.628h-.9v.876c-.468-.636-1.164-1.02-1.944-1.02-1.524 0-2.58 1.152-2.58 3.012 0 1.872 1.068 3 2.58 3 .816 0 1.524-.444 1.944-1.032v.828c0 1.272-.9 1.74-1.86 1.74-.828 0-1.404-.216-1.884-.792l-.456.672Zm4.2-3.156c-.312.504-1.008.948-1.728.948-1.164 0-1.86-.936-1.86-2.208 0-1.284.696-2.208 1.86-2.208.72 0 1.416.432 1.728.936v2.532ZM551.944 433v-4.188c0-1.164-.564-1.752-1.62-1.752-.84 0-1.62.552-1.944 1.08-.168-.6-.672-1.08-1.56-1.08-.852 0-1.632.612-1.872.984v-.84h-.9V433h.9v-4.236c.312-.468.936-.9 1.524-.9.756 0 1.068.468 1.068 1.2V433h.9v-4.248c.3-.456.936-.888 1.536-.888.744 0 1.068.468 1.068 1.2V433h.9Zm6.32 0v-3.984c0-1.404-1.02-1.956-2.244-1.956-.948 0-1.692.312-2.316.96l.42.624c.516-.552 1.08-.804 1.776-.804.84 0 1.464.444 1.464 1.224v1.044c-.468-.54-1.128-.792-1.92-.792-.984 0-2.028.612-2.028 1.908 0 1.26 1.044 1.92 2.028 1.92.78 0 1.44-.276 1.92-.804v.66h.9Zm-.9-1.224c-.348.48-.96.72-1.596.72-.84 0-1.428-.528-1.428-1.26 0-.744.588-1.272 1.428-1.272.636 0 1.248.24 1.596.72v1.092Zm3.148-5.544a.615.615 0 0 0 .612-.612c0-.336-.276-.6-.612-.6-.324 0-.6.264-.6.6 0 .336.276.612.6.612Zm.456 6.768v-5.796h-.9V433h.9Zm2.695 0v-8.004h-.9V433h.9Zm1.616-.54c0 .36.3.66.66.66.36 0 .66-.3.66-.66 0-.36-.3-.66-.66-.66-.36 0-.66.3-.66.66Zm2.527-2.364c0 1.728 1.164 3.048 2.892 3.048 1.056 0 1.68-.432 2.124-1.008l-.6-.552c-.384.516-.876.756-1.476.756-1.236 0-2.004-.96-2.004-2.244 0-1.284.768-2.232 2.004-2.232.6 0 1.092.228 1.476.756l.6-.552c-.444-.576-1.068-1.008-2.124-1.008-1.728 0-2.892 1.32-2.892 3.036Zm8.81 3.048c1.764 0 2.868-1.368 2.868-3.048s-1.104-3.036-2.868-3.036c-1.764 0-2.868 1.356-2.868 3.036s1.104 3.048 2.868 3.048Zm0-.804c-1.236 0-1.932-1.056-1.932-2.244 0-1.176.696-2.232 1.932-2.232s1.92 1.056 1.92 2.232c0 1.188-.684 2.244-1.92 2.244Zm12.231.66v-4.188c0-1.164-.564-1.752-1.62-1.752-.84 0-1.62.552-1.944 1.08-.168-.6-.672-1.08-1.56-1.08-.852 0-1.632.612-1.872.984v-.84h-.9V433h.9v-4.236c.312-.468.936-.9 1.524-.9.756 0 1.068.468 1.068 1.2V433h.9v-4.248c.3-.456.936-.888 1.536-.888.744 0 1.068.468 1.068 1.2V433h.9Z"/></g><path fill="#fff" d="M660 393h224v48H660z"/><circle cx="678" cy="417" r="18" fill="#3747AC"/><path fill="#fff" d="M675.646 422v-3.71h2.59c1.848 0 2.926-1.288 2.926-2.814s-1.05-2.814-2.926-2.814h-3.752V422h1.162Zm4.312-6.524c0 1.05-.756 1.778-1.862 1.778h-2.45v-3.556h2.45c1.106 0 1.862.728 1.862 1.778Z"/><g clip-path="url(#f)"><path fill="#fff" d="M708 393h173v48H708z"/><path fill="#000" d="m717.344 410-4.832-5.6 4.448-5.072h-1.664l-4.72 5.52v-5.52h-1.328V410h1.328v-3.584l1.072-1.216 4.048 4.8h1.648Zm2.665 0v-5.472c.352-.624 1.36-1.232 2.096-1.232.192 0 .336.016.48.048v-1.232c-1.056 0-1.952.592-2.576 1.408v-1.248h-1.2V410h1.2Zm4.674-9.024a.82.82 0 0 0 .816-.816c0-.448-.368-.8-.816-.8-.432 0-.8.352-.8.8 0 .448.368.816.8.816Zm.608 9.024v-7.728h-1.2V410h1.2Zm1.721-1.024c.784.832 1.856 1.216 3.12 1.216 2 0 3.04-1.04 3.04-2.336 0-1.712-1.552-2.096-2.896-2.4-1.008-.24-1.888-.48-1.888-1.232 0-.688.656-1.168 1.712-1.168.992 0 1.84.416 2.304.976l.56-.832c-.624-.624-1.552-1.12-2.864-1.12-1.84 0-2.88 1.024-2.88 2.224 0 1.6 1.488 1.952 2.8 2.256 1.04.256 1.984.528 1.984 1.376 0 .752-.64 1.28-1.824 1.28-1.056 0-2.032-.512-2.544-1.104l-.624.864Zm10.062 1.216c.704 0 1.136-.208 1.44-.496l-.352-.896c-.16.176-.48.32-.816.32-.528 0-.784-.416-.784-.992v-4.8h1.568v-1.056h-1.568v-2.112h-1.2v2.112h-1.28v1.056h1.28v5.056c0 1.152.576 1.808 1.712 1.808Zm3.343-9.216a.82.82 0 0 0 .816-.816c0-.448-.368-.8-.816-.8-.432 0-.8.352-.8.8 0 .448.368.816.8.816Zm.608 9.024v-7.728h-1.2V410h1.2Zm8.81 0v-5.424c0-1.68-.848-2.496-2.464-2.496-1.152 0-2.208.672-2.752 1.312v-1.12h-1.2V410h1.2v-5.648c.448-.624 1.344-1.2 2.288-1.2 1.04 0 1.728.432 1.728 1.792V410h1.2Zm1.948-3.872c0 2.416 1.648 4.064 3.936 4.064 1.264 0 2.304-.416 3.072-1.184l-.576-.784c-.608.624-1.504.976-2.384.976-1.664 0-2.688-1.216-2.784-2.672h6.256v-.304c0-2.32-1.376-4.144-3.712-4.144-2.208 0-3.808 1.808-3.808 4.048Zm3.792-3.056c1.76 0 2.528 1.424 2.544 2.576h-5.072c.064-1.184.88-2.576 2.528-2.576ZM766.748 410v-4.24h2.96c2.112 0 3.344-1.472 3.344-3.216 0-1.744-1.2-3.216-3.344-3.216h-4.288V410h1.328Zm4.928-7.456c0 1.2-.864 2.032-2.128 2.032h-2.8v-4.064h2.8c1.264 0 2.128.832 2.128 2.032Zm8.806 7.456v-5.312c0-1.872-1.36-2.608-2.992-2.608-1.264 0-2.256.416-3.088 1.28l.56.832c.688-.736 1.44-1.072 2.368-1.072 1.12 0 1.952.592 1.952 1.632v1.392c-.624-.72-1.504-1.056-2.56-1.056-1.312 0-2.704.816-2.704 2.544 0 1.68 1.392 2.56 2.704 2.56 1.04 0 1.92-.368 2.56-1.072v.88h1.2Zm-1.2-1.632c-.464.64-1.28.96-2.128.96-1.12 0-1.904-.704-1.904-1.68 0-.992.784-1.696 1.904-1.696.848 0 1.664.32 2.128.96v1.456Zm4.806 1.632v-5.472c.352-.624 1.36-1.232 2.096-1.232.192 0 .336.016.48.048v-1.232c-1.056 0-1.952.592-2.576 1.408v-1.248h-1.2V410h1.2Zm10.881 0-3.44-4.224 3.424-3.504h-1.52l-4.064 4.112v-7.056h-1.2V410h1.2v-2.208l1.28-1.264 2.784 3.472h1.536Zm.653-1.024c.784.832 1.856 1.216 3.12 1.216 2 0 3.04-1.04 3.04-2.336 0-1.712-1.552-2.096-2.896-2.4-1.008-.24-1.888-.48-1.888-1.232 0-.688.656-1.168 1.712-1.168.992 0 1.84.416 2.304.976l.56-.832c-.624-.624-1.552-1.12-2.864-1.12-1.84 0-2.88 1.024-2.88 2.224 0 1.6 1.488 1.952 2.8 2.256 1.04.256 1.984.528 1.984 1.376 0 .752-.64 1.28-1.824 1.28-1.056 0-2.032-.512-2.544-1.104l-.624.864Z"/><path fill="#fff" d="M708 417h173v24H708z"/><path fill="#A1A1AA" d="M716.772 433v-8.004h-1.428l-2.496 6.096-2.484-6.096h-1.428V433h.996v-6.66l2.712 6.66h.408l2.724-6.66V433h.996Zm2.731 0v-4.104c.264-.468 1.02-.924 1.572-.924.144 0 .252.012.36.036v-.924c-.792 0-1.464.444-1.932 1.056v-.936h-.9V433h.9Zm2.557-.768c.588.624 1.392.912 2.34.912 1.5 0 2.28-.78 2.28-1.752 0-1.284-1.164-1.572-2.172-1.8-.756-.18-1.416-.36-1.416-.924 0-.516.492-.876 1.284-.876.744 0 1.38.312 1.728.732l.42-.624c-.468-.468-1.164-.84-2.148-.84-1.38 0-2.16.768-2.16 1.668 0 1.2 1.116 1.464 2.1 1.692.78.192 1.488.396 1.488 1.032 0 .564-.48.96-1.368.96-.792 0-1.524-.384-1.908-.828l-.468.648Zm5.902.228c0 .36.3.66.66.66.36 0 .66-.3.66-.66 0-.36-.3-.66-.66-.66-.36 0-.66.3-.66.66Zm7.868.78v-8.484h-.66v8.484h.66Z"/><path fill="#6366F1" d="m746.051 433-2.58-3.168 2.568-2.628h-1.14l-3.048 3.084v-5.292h-.9V433h.9v-1.656l.96-.948 2.088 2.604h1.152Zm1.964-.876c.468.648 1.164 1.02 1.956 1.02 1.524 0 2.58-1.176 2.58-3.048 0-1.884-1.056-3.036-2.58-3.036-.816 0-1.536.42-1.956 1.008v-.864h-.9v8.004h.9v-3.084Zm3.588-2.028c0 1.284-.696 2.244-1.86 2.244-.708 0-1.416-.432-1.728-.936v-2.616c.312-.504 1.02-.924 1.728-.924 1.164 0 1.86.948 1.86 2.232Zm6.926 2.904v-3.984c0-1.404-1.02-1.956-2.244-1.956-.948 0-1.692.312-2.316.96l.42.624c.516-.552 1.08-.804 1.776-.804.84 0 1.464.444 1.464 1.224v1.044c-.468-.54-1.128-.792-1.92-.792-.984 0-2.028.612-2.028 1.908 0 1.26 1.044 1.92 2.028 1.92.78 0 1.44-.276 1.92-.804v.66h.9Zm-.9-1.224c-.348.48-.96.72-1.596.72-.84 0-1.428-.528-1.428-1.26 0-.744.588-1.272 1.428-1.272.636 0 1.248.24 1.596.72v1.092Zm3.605 1.224v-4.104c.264-.468 1.02-.924 1.572-.924.144 0 .252.012.36.036v-.924c-.792 0-1.464.444-1.932 1.056v-.936h-.9V433h.9Zm8.161 0-2.58-3.168 2.568-2.628h-1.14l-3.048 3.084v-5.292h-.9V433h.9v-1.656l.96-.948 2.088 2.604h1.152Zm.489-.768c.588.624 1.392.912 2.34.912 1.5 0 2.28-.78 2.28-1.752 0-1.284-1.164-1.572-2.172-1.8-.756-.18-1.416-.36-1.416-.924 0-.516.492-.876 1.284-.876.744 0 1.38.312 1.728.732l.42-.624c-.468-.468-1.164-.84-2.148-.84-1.38 0-2.16.768-2.16 1.668 0 1.2 1.116 1.464 2.1 1.692.78.192 1.488.396 1.488 1.032 0 .564-.48.96-1.368.96-.792 0-1.524-.384-1.908-.828l-.468.648Zm5.602-2.16c0 2.124 1.62 3.768 3.804 3.768.888 0 1.752-.276 2.496-.756l-.216-.312c-.648.408-1.38.672-2.232.672-1.992 0-3.444-1.464-3.444-3.396 0-2.244 1.992-4.296 4.308-4.296 2.04 0 3.396 1.428 3.396 3.396 0 1.656-.828 2.184-1.296 2.184-.312 0-.564-.216-.564-.624 0-.072.012-.18.024-.252l.684-3.252h-.816l-.156.744c-.228-.516-.756-.936-1.536-.936-1.416 0-2.82 1.344-2.82 3.012 0 1.164.72 1.956 1.836 1.956.768 0 1.476-.456 1.896-1.044l.012.072c.036.504.42.972 1.092.972 1.008 0 2.076-.948 2.076-2.832 0-2.1-1.512-3.804-3.78-3.804-2.496 0-4.764 2.136-4.764 4.728Zm5.496.156c-.348.504-.96 1.08-1.788 1.08-.768 0-1.224-.564-1.224-1.332 0-1.152.924-2.292 2.124-2.292.708 0 1.104.516 1.236.888l-.348 1.656Zm4.371 4.26c.684.672 1.356.864 2.34.864 1.416 0 2.76-.6 2.76-2.52v-5.628h-.9v.876c-.468-.636-1.164-1.02-1.944-1.02-1.524 0-2.58 1.152-2.58 3.012 0 1.872 1.068 3 2.58 3 .816 0 1.524-.444 1.944-1.032v.828c0 1.272-.9 1.74-1.86 1.74-.828 0-1.404-.216-1.884-.792l-.456.672Zm4.2-3.156c-.312.504-1.008.948-1.728.948-1.164 0-1.86-.936-1.86-2.208 0-1.284.696-2.208 1.86-2.208.72 0 1.416.432 1.728.936v2.532ZM800.151 433v-4.188c0-1.164-.564-1.752-1.62-1.752-.84 0-1.62.552-1.944 1.08-.168-.6-.672-1.08-1.56-1.08-.852 0-1.632.612-1.872.984v-.84h-.9V433h.9v-4.236c.312-.468.936-.9 1.524-.9.756 0 1.068.468 1.068 1.2V433h.9v-4.248c.3-.456.936-.888 1.536-.888.744 0 1.068.468 1.068 1.2V433h.9Zm6.32 0v-3.984c0-1.404-1.02-1.956-2.244-1.956-.948 0-1.692.312-2.316.96l.42.624c.516-.552 1.08-.804 1.776-.804.84 0 1.464.444 1.464 1.224v1.044c-.468-.54-1.128-.792-1.92-.792-.984 0-2.028.612-2.028 1.908 0 1.26 1.044 1.92 2.028 1.92.78 0 1.44-.276 1.92-.804v.66h.9Zm-.9-1.224c-.348.48-.96.72-1.596.72-.84 0-1.428-.528-1.428-1.26 0-.744.588-1.272 1.428-1.272.636 0 1.248.24 1.596.72v1.092Zm3.148-5.544a.615.615 0 0 0 .612-.612c0-.336-.276-.6-.612-.6-.324 0-.6.264-.6.6 0 .336.276.612.6.612Zm.456 6.768v-5.796h-.9V433h.9Zm2.695 0v-8.004h-.9V433h.9Zm1.616-.54c0 .36.3.66.66.66.36 0 .66-.3.66-.66 0-.36-.3-.66-.66-.66-.36 0-.66.3-.66.66Zm2.527-2.364c0 1.728 1.164 3.048 2.892 3.048 1.056 0 1.68-.432 2.124-1.008l-.6-.552c-.384.516-.876.756-1.476.756-1.236 0-2.004-.96-2.004-2.244 0-1.284.768-2.232 2.004-2.232.6 0 1.092.228 1.476.756l.6-.552c-.444-.576-1.068-1.008-2.124-1.008-1.728 0-2.892 1.32-2.892 3.036Zm8.81 3.048c1.764 0 2.868-1.368 2.868-3.048s-1.104-3.036-2.868-3.036c-1.764 0-2.868 1.356-2.868 3.036s1.104 3.048 2.868 3.048Zm0-.804c-1.236 0-1.932-1.056-1.932-2.244 0-1.176.696-2.232 1.932-2.232s1.92 1.056 1.92 2.232c0 1.188-.684 2.244-1.92 2.244Zm12.231.66v-4.188c0-1.164-.564-1.752-1.62-1.752-.84 0-1.62.552-1.944 1.08-.168-.6-.672-1.08-1.56-1.08-.852 0-1.632.612-1.872.984v-.84h-.9V433h.9v-4.236c.312-.468.936-.9 1.524-.9.756 0 1.068.468 1.068 1.2V433h.9v-4.248c.3-.456.936-.888 1.536-.888.744 0 1.068.468 1.068 1.2V433h.9Z"/></g><path fill="#fff" d="M896 393h224v48H896z"/><circle cx="914" cy="417" r="18" fill="#318335"/><path fill="#fff" d="m912.707 422-2.52-3.808c1.274-.112 2.422-1.036 2.422-2.716 0-1.722-1.218-2.814-2.926-2.814h-3.752V422h1.162v-3.71h1.862l2.38 3.71h1.372Zm-1.302-6.524c0 1.05-.756 1.792-1.862 1.792h-2.45v-3.57h2.45c1.106 0 1.862.728 1.862 1.778Zm7.299 6.524c1.708 0 2.702-1.022 2.702-2.52 0-1.12-.826-2.142-1.82-2.296.854-.182 1.638-.966 1.638-2.142 0-1.4-.994-2.38-2.618-2.38h-4.158V422h4.256Zm-3.094-8.302h2.8c1.05 0 1.61.672 1.61 1.512 0 .854-.56 1.498-1.61 1.498h-2.8v-3.01Zm0 4.046h2.856c1.148 0 1.736.756 1.736 1.61 0 .994-.644 1.61-1.736 1.61h-2.856v-3.22Z"/><g clip-path="url(#g)"><path fill="#fff" d="M944 393h173v48H944z"/><path fill="#000" d="m952.992 410-2.88-4.352c1.456-.128 2.768-1.184 2.768-3.104 0-1.968-1.392-3.216-3.344-3.216h-4.288V410h1.328v-4.24h2.128l2.72 4.24h1.568Zm-1.488-7.456c0 1.2-.864 2.048-2.128 2.048h-2.8v-4.08h2.8c1.264 0 2.128.832 2.128 2.032Zm2.998 10.48c.224.064.624.112.88.112 1.024-.016 1.808-.448 2.272-1.568l3.872-9.296h-1.312l-2.56 6.336-2.576-6.336h-1.296l3.232 7.808-.512 1.168c-.272.64-.624.816-1.152.816a1.84 1.84 0 0 1-.656-.128l-.192 1.088ZM968.81 410v-5.312c0-1.872-1.36-2.608-2.992-2.608-1.264 0-2.256.416-3.088 1.28l.56.832c.688-.736 1.44-1.072 2.368-1.072 1.12 0 1.952.592 1.952 1.632v1.392c-.624-.72-1.504-1.056-2.56-1.056-1.312 0-2.704.816-2.704 2.544 0 1.68 1.392 2.56 2.704 2.56 1.04 0 1.92-.368 2.56-1.072v.88h1.2Zm-1.2-1.632c-.464.64-1.28.96-2.128.96-1.12 0-1.904-.704-1.904-1.68 0-.992.784-1.696 1.904-1.696.848 0 1.664.32 2.128.96v1.456ZM977.632 410v-5.424c0-1.68-.848-2.496-2.464-2.496-1.152 0-2.208.672-2.752 1.312v-1.12h-1.2V410h1.2v-5.648c.448-.624 1.344-1.2 2.288-1.2 1.04 0 1.728.432 1.728 1.792V410h1.2Zm11.433 0c1.952 0 3.088-1.168 3.088-2.88 0-1.28-.944-2.448-2.08-2.624.976-.208 1.872-1.104 1.872-2.448 0-1.6-1.136-2.72-2.992-2.72h-4.752V410h4.864Zm-3.536-9.488h3.2c1.2 0 1.84.768 1.84 1.728 0 .976-.64 1.712-1.84 1.712h-3.2v-3.44Zm0 4.624h3.264c1.312 0 1.984.864 1.984 1.84 0 1.136-.736 1.84-1.984 1.84h-3.264v-3.68ZM1000.25 410v-5.312c0-1.872-1.362-2.608-2.994-2.608-1.264 0-2.256.416-3.088 1.28l.56.832c.688-.736 1.44-1.072 2.368-1.072 1.12 0 1.952.592 1.952 1.632v1.392c-.624-.72-1.504-1.056-2.56-1.056-1.312 0-2.704.816-2.704 2.544 0 1.68 1.392 2.56 2.704 2.56 1.04 0 1.92-.368 2.56-1.072v.88h1.202Zm-1.202-1.632c-.464.64-1.28.96-2.128.96-1.12 0-1.904-.704-1.904-1.68 0-.992.784-1.696 1.904-1.696.848 0 1.664.32 2.128.96v1.456Zm4.802 1.632v-5.472c.36-.624 1.36-1.232 2.1-1.232.19 0 .34.016.48.048v-1.232c-1.06 0-1.95.592-2.58 1.408v-1.248h-1.2V410h1.2Zm6.04.192c.7 0 1.13-.208 1.44-.496l-.36-.896c-.16.176-.48.32-.81.32-.53 0-.79-.416-.79-.992v-4.8h1.57v-1.056h-1.57v-2.112h-1.2v2.112h-1.28v1.056h1.28v5.056c0 1.152.58 1.808 1.72 1.808Zm6.12 0c2.36 0 3.83-1.824 3.83-4.064s-1.47-4.048-3.83-4.048c-2.35 0-3.82 1.808-3.82 4.048s1.47 4.064 3.82 4.064Zm0-1.072c-1.64 0-2.57-1.408-2.57-2.992 0-1.568.93-2.976 2.57-2.976 1.65 0 2.56 1.408 2.56 2.976 0 1.584-.91 2.992-2.56 2.992Zm12.2.88v-5.424c0-1.68-.85-2.496-2.46-2.496-1.16 0-2.21.672-2.76 1.312v-1.12h-1.2V410h1.2v-5.648c.45-.624 1.35-1.2 2.29-1.2 1.04 0 1.73.432 1.73 1.792V410h1.2Z"/><path fill="#fff" d="M944 417h173v24H944z"/><path fill="#A1A1AA" d="M952.772 433v-8.004h-1.428l-2.496 6.096-2.484-6.096h-1.428V433h.996v-6.66l2.712 6.66h.408l2.724-6.66V433h.996Zm2.731 0v-4.104c.264-.468 1.02-.924 1.572-.924.144 0 .252.012.36.036v-.924c-.792 0-1.464.444-1.932 1.056v-.936h-.9V433h.9Zm1.885-.54c0 .36.3.66.66.66.36 0 .66-.3.66-.66 0-.36-.3-.66-.66-.66-.36 0-.66.3-.66.66Zm7.442.78v-8.484h-.66v8.484h.66Z"/><path fill="#6366F1" d="M971.28 433v-4.104c.264-.468 1.02-.924 1.572-.924.144 0 .252.012.36.036v-.924c-.792 0-1.464.444-1.932 1.056v-.936h-.9V433h.9Zm3.961 0v-.864a2.44 2.44 0 0 0 1.956 1.008c1.512 0 2.58-1.152 2.58-3.036 0-1.848-1.068-3.048-2.58-3.048-.792 0-1.488.384-1.956 1.02v-3.084h-.9V433h.9Zm0-4.2c.312-.504 1.02-.936 1.728-.936 1.176 0 1.872.96 1.872 2.244 0 1.284-.696 2.232-1.872 2.232-.708 0-1.416-.408-1.728-.912V428.8Zm10.527 4.2v-3.984c0-1.404-1.02-1.956-2.244-1.956-.948 0-1.692.312-2.316.96l.42.624c.516-.552 1.08-.804 1.776-.804.84 0 1.464.444 1.464 1.224v1.044c-.468-.54-1.128-.792-1.92-.792-.984 0-2.028.612-2.028 1.908 0 1.26 1.044 1.92 2.028 1.92.78 0 1.44-.276 1.92-.804v.66h.9Zm-.9-1.224c-.348.48-.96.72-1.596.72-.84 0-1.428-.528-1.428-1.26 0-.744.588-1.272 1.428-1.272.636 0 1.248.24 1.596.72v1.092Zm3.604 1.224v-4.104c.264-.468 1.02-.924 1.572-.924.144 0 .252.012.36.036v-.924c-.792 0-1.464.444-1.932 1.056v-.936h-.9V433h.9Zm4.525.144c.528 0 .852-.156 1.08-.372l-.264-.672c-.12.132-.36.24-.612.24-.396 0-.588-.312-.588-.744v-3.6h1.176v-.792h-1.176v-1.584h-.9v1.584h-.96v.792h.96v3.792c0 .864.432 1.356 1.284 1.356Zm4.595 0c1.764 0 2.868-1.368 2.868-3.048s-1.104-3.036-2.868-3.036c-1.764 0-2.868 1.356-2.868 3.036s1.104 3.048 2.868 3.048Zm0-.804c-1.236 0-1.932-1.056-1.932-2.244 0-1.176.696-2.232 1.932-2.232s1.92 1.056 1.92 2.232c0 1.188-.684 2.244-1.92 2.244Zm9.148.66v-4.068c0-1.26-.64-1.872-1.85-1.872-.86 0-1.65.504-2.06.984v-.84h-.9V433h.9v-4.236c.33-.468 1.01-.9 1.71-.9.78 0 1.3.324 1.3 1.344V433h.9Zm1.32-2.928c0 2.124 1.62 3.768 3.8 3.768.89 0 1.75-.276 2.5-.756l-.22-.312c-.65.408-1.38.672-2.23.672-1.99 0-3.45-1.464-3.45-3.396 0-2.244 2-4.296 4.31-4.296 2.04 0 3.4 1.428 3.4 3.396 0 1.656-.83 2.184-1.3 2.184-.31 0-.56-.216-.56-.624 0-.072.01-.18.02-.252l.69-3.252h-.82l-.16.744c-.22-.516-.75-.936-1.53-.936-1.42 0-2.82 1.344-2.82 3.012 0 1.164.72 1.956 1.83 1.956.77 0 1.48-.456 1.9-1.044l.01.072c.04.504.42.972 1.09.972 1.01 0 2.08-.948 2.08-2.832 0-2.1-1.51-3.804-3.78-3.804-2.5 0-4.76 2.136-4.76 4.728Zm5.49.156c-.35.504-.96 1.08-1.79 1.08-.76 0-1.22-.564-1.22-1.332 0-1.152.92-2.292 2.12-2.292.71 0 1.11.516 1.24.888l-.35 1.656Zm4.37 4.26c.69.672 1.36.864 2.34.864 1.42 0 2.76-.6 2.76-2.52v-5.628h-.9v.876c-.46-.636-1.16-1.02-1.94-1.02-1.52 0-2.58 1.152-2.58 3.012 0 1.872 1.07 3 2.58 3 .82 0 1.52-.444 1.94-1.032v.828c0 1.272-.9 1.74-1.86 1.74-.82 0-1.4-.216-1.88-.792l-.46.672Zm4.2-3.156c-.31.504-1 .948-1.72.948-1.17 0-1.86-.936-1.86-2.208 0-1.284.69-2.208 1.86-2.208.72 0 1.41.432 1.72.936v2.532Zm10.6 1.668v-4.188c0-1.164-.56-1.752-1.62-1.752-.84 0-1.62.552-1.94 1.08-.17-.6-.67-1.08-1.56-1.08-.85 0-1.63.612-1.87.984v-.84h-.9V433h.9v-4.236c.31-.468.93-.9 1.52-.9.76 0 1.07.468 1.07 1.2V433h.9v-4.248c.3-.456.93-.888 1.53-.888.75 0 1.07.468 1.07 1.2V433h.9Zm6.32 0v-3.984c0-1.404-1.02-1.956-2.24-1.956-.95 0-1.69.312-2.32.96l.42.624c.52-.552 1.08-.804 1.78-.804.84 0 1.46.444 1.46 1.224v1.044c-.47-.54-1.13-.792-1.92-.792-.98 0-2.03.612-2.03 1.908 0 1.26 1.05 1.92 2.03 1.92.78 0 1.44-.276 1.92-.804v.66h.9Zm-.9-1.224c-.35.48-.96.72-1.59.72-.84 0-1.43-.528-1.43-1.26 0-.744.59-1.272 1.43-1.272.63 0 1.24.24 1.59.72v1.092Zm3.15-5.544a.61.61 0 0 0 .61-.612.6.6 0 0 0-.61-.6c-.32 0-.6.264-.6.6 0 .336.28.612.6.612Zm.46 6.768v-5.796h-.9V433h.9Zm2.69 0v-8.004h-.9V433h.9Zm1.62-.54c0 .36.3.66.66.66.36 0 .66-.3.66-.66 0-.36-.3-.66-.66-.66-.36 0-.66.3-.66.66Zm2.52-2.364c0 1.728 1.17 3.048 2.9 3.048 1.05 0 1.68-.432 2.12-1.008l-.6-.552c-.38.516-.88.756-1.48.756-1.23 0-2-.96-2-2.244 0-1.284.77-2.232 2-2.232.6 0 1.1.228 1.48.756l.6-.552c-.44-.576-1.07-1.008-2.12-1.008-1.73 0-2.9 1.32-2.9 3.036Zm8.81 3.048c1.77 0 2.87-1.368 2.87-3.048s-1.1-3.036-2.87-3.036c-1.76 0-2.87 1.356-2.87 3.036s1.11 3.048 2.87 3.048Zm0-.804c-1.23 0-1.93-1.056-1.93-2.244 0-1.176.7-2.232 1.93-2.232 1.24 0 1.92 1.056 1.92 2.232 0 1.188-.68 2.244-1.92 2.244Zm12.23.66v-4.188c0-1.164-.56-1.752-1.62-1.752-.84 0-1.62.552-1.94 1.08-.17-.6-.67-1.08-1.56-1.08-.85 0-1.63.612-1.87.984v-.84h-.9V433h.9v-4.236c.31-.468.93-.9 1.52-.9.76 0 1.07.468 1.07 1.2V433h.9v-4.248c.3-.456.94-.888 1.54-.888.74 0 1.06.468 1.06 1.2V433h.9Z"/></g><path fill="#fff" d="M1132 393h224v48h-224z"/><circle cx="1150" cy="417" r="18" fill="#44ADA2"/><path fill="#fff" d="M1147.74 422v-1.036h-4.95v-3.22h4.85v-1.036h-4.85v-3.01h4.95v-1.036h-6.12V422h6.12Zm9.64 0v-9.338h-1.16v4.018h-5.46v-4.018h-1.17V422h1.17v-4.284h5.46V422h1.16Z"/><g clip-path="url(#h)"><path fill="#fff" d="M1180 393h173v48h-173z"/><path fill="#000" d="M1188.24 410v-1.184h-5.66v-3.68h5.55v-1.184h-5.55v-3.44h5.66v-1.184h-6.99V410h6.99Zm3.27 0v-10.672h-1.2V410h1.2Zm2.99-9.024a.82.82 0 0 0 .81-.816.806.806 0 0 0-1.61 0c0 .448.36.816.8.816Zm.6 9.024v-7.728h-1.2V410h1.2Zm7.92 0v-1.04h-4.36l4.29-5.776v-.912h-5.82v1.056h4.25l-4.25 5.744V410h5.89Zm8.06 0v-5.312c0-1.872-1.36-2.608-3-2.608-1.26 0-2.25.416-3.08 1.28l.56.832c.68-.736 1.44-1.072 2.36-1.072 1.12 0 1.96.592 1.96 1.632v1.392c-.63-.72-1.51-1.056-2.56-1.056-1.32 0-2.71.816-2.71 2.544 0 1.68 1.39 2.56 2.71 2.56 1.04 0 1.92-.368 2.56-1.072v.88h1.2Zm-1.2-1.632c-.47.64-1.28.96-2.13.96-1.12 0-1.91-.704-1.91-1.68 0-.992.79-1.696 1.91-1.696.85 0 1.66.32 2.13.96v1.456Zm4.8 1.632v-1.152c.58.784 1.52 1.344 2.61 1.344 2.02 0 3.44-1.536 3.44-4.048 0-2.464-1.42-4.064-3.44-4.064-1.06 0-1.98.512-2.61 1.36v-4.112h-1.2V410h1.2Zm0-5.6c.42-.672 1.36-1.248 2.31-1.248 1.56 0 2.49 1.28 2.49 2.992s-.93 2.976-2.49 2.976c-.95 0-1.89-.544-2.31-1.216V404.4Zm7.56 1.728c0 2.416 1.64 4.064 3.93 4.064 1.27 0 2.31-.416 3.07-1.184l-.57-.784c-.61.624-1.51.976-2.39.976-1.66 0-2.68-1.216-2.78-2.672h6.26v-.304c0-2.32-1.38-4.144-3.72-4.144-2.2 0-3.8 1.808-3.8 4.048Zm3.79-3.056c1.76 0 2.53 1.424 2.54 2.576h-5.07c.06-1.184.88-2.576 2.53-2.576Zm7.62 7.12c.71 0 1.14-.208 1.44-.496l-.35-.896c-.16.176-.48.32-.82.32-.52 0-.78-.416-.78-.992v-4.8h1.57v-1.056h-1.57v-2.112h-1.2v2.112h-1.28v1.056h1.28v5.056c0 1.152.58 1.808 1.71 1.808Zm9.19-.192v-5.456c0-1.68-.85-2.464-2.47-2.464-1.17 0-2.22.672-2.77 1.312v-4.064h-1.2V410h1.2v-5.648c.47-.624 1.36-1.2 2.29-1.2 1.04 0 1.75.4 1.75 1.76V410h1.2Zm15.46 0v-10.672h-1.33v4.592h-6.24v-4.592h-1.33V410h1.33v-4.896h6.24V410h1.33Zm5.82.192c2.35 0 3.83-1.824 3.83-4.064s-1.48-4.048-3.83-4.048-3.82 1.808-3.82 4.048 1.47 4.064 3.82 4.064Zm0-1.072c-1.65 0-2.57-1.408-2.57-2.992 0-1.568.92-2.976 2.57-2.976s2.56 1.408 2.56 2.976c0 1.584-.91 2.992-2.56 2.992Zm6.98.88v-10.672h-1.2V410h1.2Zm12.92 0v-5.584c0-1.552-.75-2.336-2.16-2.336-1.12 0-2.16.736-2.59 1.44-.22-.8-.89-1.44-2.08-1.44-1.13 0-2.17.816-2.49 1.312v-1.12h-1.2V410h1.2v-5.648c.41-.624 1.24-1.2 2.03-1.2 1.01 0 1.42.624 1.42 1.6V410h1.2v-5.664c.4-.608 1.25-1.184 2.05-1.184.99 0 1.42.624 1.42 1.6V410h1.2Zm1.95-3.872c0 2.416 1.65 4.064 3.94 4.064 1.26 0 2.3-.416 3.07-1.184l-.58-.784c-.61.624-1.5.976-2.38.976-1.67 0-2.69-1.216-2.79-2.672h6.26v-.304c0-2.32-1.38-4.144-3.71-4.144-2.21 0-3.81 1.808-3.81 4.048Zm3.79-3.056c1.76 0 2.53 1.424 2.55 2.576h-5.08c.07-1.184.88-2.576 2.53-2.576Zm5 5.904c.79.832 1.86 1.216 3.12 1.216 2 0 3.04-1.04 3.04-2.336 0-1.712-1.55-2.096-2.89-2.4-1.01-.24-1.89-.48-1.89-1.232 0-.688.65-1.168 1.71-1.168.99 0 1.84.416 2.3.976l.56-.832c-.62-.624-1.55-1.12-2.86-1.12-1.84 0-2.88 1.024-2.88 2.224 0 1.6 1.49 1.952 2.8 2.256 1.04.256 1.98.528 1.98 1.376 0 .752-.64 1.28-1.82 1.28-1.06 0-2.03-.512-2.54-1.104l-.63.864Z"/><path fill="#fff" d="M1180 417h173v24h-173z"/><path fill="#A1A1AA" d="M1188.77 433v-8.004h-1.43l-2.49 6.096-2.49-6.096h-1.42V433h.99v-6.66l2.71 6.66h.41l2.73-6.66V433h.99Zm1.33-.768c.59.624 1.39.912 2.34.912 1.5 0 2.28-.78 2.28-1.752 0-1.284-1.16-1.572-2.17-1.8-.76-.18-1.42-.36-1.42-.924 0-.516.49-.876 1.29-.876.74 0 1.38.312 1.72.732l.42-.624c-.46-.468-1.16-.84-2.14-.84-1.38 0-2.16.768-2.16 1.668 0 1.2 1.11 1.464 2.1 1.692.78.192 1.48.396 1.48 1.032 0 .564-.48.96-1.36.96-.8 0-1.53-.384-1.91-.828l-.47.648Zm5.9.228c0 .36.3.66.66.66.36 0 .66-.3.66-.66 0-.36-.3-.66-.66-.66-.36 0-.66.3-.66.66Zm7.83.78v-8.484h-.66v8.484h.66Z"/><path fill="#6366F1" d="M1208.63 430.096c0 1.812 1.24 3.048 2.96 3.048.94 0 1.72-.312 2.3-.888l-.43-.588c-.46.468-1.13.732-1.79.732-1.25 0-2.02-.912-2.09-2.004h4.69v-.228c0-1.74-1.03-3.108-2.78-3.108-1.66 0-2.86 1.356-2.86 3.036Zm2.85-2.292c1.32 0 1.89 1.068 1.91 1.932h-3.81c.05-.888.66-1.932 1.9-1.932Zm9.08 5.196v-4.092c0-1.26-.64-1.848-1.85-1.848-.88 0-1.67.504-2.08.984v-3.048h-.9V433h.9v-4.236c.35-.468 1.02-.9 1.72-.9.78 0 1.31.3 1.31 1.32V433h.9Zm4.33.144c1.76 0 2.86-1.368 2.86-3.048s-1.1-3.036-2.86-3.036c-1.77 0-2.87 1.356-2.87 3.036s1.1 3.048 2.87 3.048Zm0-.804c-1.24 0-1.94-1.056-1.94-2.244 0-1.176.7-2.232 1.94-2.232 1.23 0 1.92 1.056 1.92 2.232 0 1.188-.69 2.244-1.92 2.244Zm5.23.66v-8.004h-.9V433h.9Zm9.69 0v-4.188c0-1.164-.56-1.752-1.62-1.752-.84 0-1.62.552-1.94 1.08-.17-.6-.67-1.08-1.56-1.08-.85 0-1.63.612-1.87.984v-.84h-.9V433h.9v-4.236c.31-.468.93-.9 1.52-.9.76 0 1.07.468 1.07 1.2V433h.9v-4.248c.3-.456.93-.888 1.53-.888.75 0 1.07.468 1.07 1.2V433h.9Zm1.46-2.904c0 1.812 1.24 3.048 2.95 3.048.95 0 1.73-.312 2.31-.888l-.43-.588c-.46.468-1.13.732-1.79.732-1.25 0-2.02-.912-2.09-2.004h4.69v-.228c0-1.74-1.03-3.108-2.78-3.108-1.66 0-2.86 1.356-2.86 3.036Zm2.85-2.292c1.32 0 1.89 1.068 1.9 1.932h-3.8c.05-.888.66-1.932 1.9-1.932Zm3.74 4.428c.59.624 1.4.912 2.34.912 1.5 0 2.28-.78 2.28-1.752 0-1.284-1.16-1.572-2.17-1.8-.75-.18-1.41-.36-1.41-.924 0-.516.49-.876 1.28-.876.74 0 1.38.312 1.73.732l.42-.624c-.47-.468-1.17-.84-2.15-.84-1.38 0-2.16.768-2.16 1.668 0 1.2 1.12 1.464 2.1 1.692.78.192 1.49.396 1.49 1.032 0 .564-.48.96-1.37.96-.79 0-1.52-.384-1.91-.828l-.47.648Zm5.61-2.16c0 2.124 1.62 3.768 3.8 3.768.89 0 1.75-.276 2.5-.756l-.22-.312c-.65.408-1.38.672-2.23.672-1.99 0-3.45-1.464-3.45-3.396 0-2.244 2-4.296 4.31-4.296 2.04 0 3.4 1.428 3.4 3.396 0 1.656-.83 2.184-1.3 2.184-.31 0-.56-.216-.56-.624 0-.072.01-.18.02-.252l.69-3.252h-.82l-.16.744c-.22-.516-.75-.936-1.53-.936-1.42 0-2.82 1.344-2.82 3.012 0 1.164.72 1.956 1.83 1.956.77 0 1.48-.456 1.9-1.044l.01.072c.04.504.42.972 1.09.972 1.01 0 2.08-.948 2.08-2.832 0-2.1-1.51-3.804-3.78-3.804-2.5 0-4.76 2.136-4.76 4.728Zm5.49.156c-.35.504-.96 1.08-1.79 1.08-.76 0-1.22-.564-1.22-1.332 0-1.152.92-2.292 2.12-2.292.71 0 1.11.516 1.24.888l-.35 1.656Zm4.37 4.26c.69.672 1.36.864 2.34.864 1.42 0 2.76-.6 2.76-2.52v-5.628h-.9v.876c-.46-.636-1.16-1.02-1.94-1.02-1.52 0-2.58 1.152-2.58 3.012 0 1.872 1.07 3 2.58 3 .82 0 1.52-.444 1.94-1.032v.828c0 1.272-.9 1.74-1.86 1.74-.82 0-1.4-.216-1.88-.792l-.46.672Zm4.2-3.156c-.31.504-1 .948-1.72.948-1.17 0-1.86-.936-1.86-2.208 0-1.284.69-2.208 1.86-2.208.72 0 1.41.432 1.72.936v2.532Zm10.6 1.668v-4.188c0-1.164-.56-1.752-1.62-1.752-.84 0-1.62.552-1.94 1.08-.17-.6-.67-1.08-1.56-1.08-.85 0-1.63.612-1.87.984v-.84h-.9V433h.9v-4.236c.31-.468.93-.9 1.52-.9.76 0 1.07.468 1.07 1.2V433h.9v-4.248c.3-.456.93-.888 1.53-.888.75 0 1.07.468 1.07 1.2V433h.9Zm6.32 0v-3.984c0-1.404-1.02-1.956-2.24-1.956-.95 0-1.69.312-2.32.96l.42.624c.52-.552 1.08-.804 1.78-.804.84 0 1.46.444 1.46 1.224v1.044c-.47-.54-1.13-.792-1.92-.792-.98 0-2.03.612-2.03 1.908 0 1.26 1.05 1.92 2.03 1.92.78 0 1.44-.276 1.92-.804v.66h.9Zm-.9-1.224c-.35.48-.96.72-1.59.72-.84 0-1.43-.528-1.43-1.26 0-.744.59-1.272 1.43-1.272.63 0 1.24.24 1.59.72v1.092Zm3.15-5.544a.61.61 0 0 0 .61-.612.6.6 0 0 0-.61-.6c-.32 0-.6.264-.6.6 0 .336.28.612.6.612Zm.46 6.768v-5.796h-.9V433h.9Zm2.69 0v-8.004h-.9V433h.9Zm1.62-.54c0 .36.3.66.66.66.36 0 .66-.3.66-.66 0-.36-.3-.66-.66-.66-.36 0-.66.3-.66.66Zm2.52-2.364c0 1.728 1.17 3.048 2.9 3.048 1.05 0 1.68-.432 2.12-1.008l-.6-.552c-.38.516-.88.756-1.48.756-1.23 0-2-.96-2-2.244 0-1.284.77-2.232 2-2.232.6 0 1.1.228 1.48.756l.6-.552c-.44-.576-1.07-1.008-2.12-1.008-1.73 0-2.9 1.32-2.9 3.036Zm8.81 3.048c1.77 0 2.87-1.368 2.87-3.048s-1.1-3.036-2.87-3.036c-1.76 0-2.86 1.356-2.86 3.036s1.1 3.048 2.86 3.048Zm0-.804c-1.23 0-1.93-1.056-1.93-2.244 0-1.176.7-2.232 1.93-2.232 1.24 0 1.92 1.056 1.92 2.232 0 1.188-.68 2.244-1.92 2.244Zm12.23.66v-4.188c0-1.164-.56-1.752-1.62-1.752-.84 0-1.62.552-1.94 1.08-.17-.6-.67-1.08-1.56-1.08-.85 0-1.63.612-1.87.984v-.84h-.9V433h.9v-4.236c.31-.468.93-.9 1.52-.9.76 0 1.07.468 1.07 1.2V433h.9v-4.248c.3-.456.94-.888 1.54-.888.74 0 1.06.468 1.06 1.2V433h.9Z"/></g><path fill="#fff" d="M424 457h224v48H424z"/><circle cx="442" cy="481" r="18" fill="#186BCC"/><path fill="#fff" d="M432.064 480.338c0 2.898 2.142 4.844 4.802 4.844 1.526 0 2.8-.644 3.668-1.61v-3.374h-4.368v1.036h3.206v1.904c-.462.462-1.386 1.008-2.506 1.008-2.044 0-3.598-1.596-3.598-3.808 0-2.226 1.554-3.794 3.598-3.794 1.12 0 2.114.532 2.702 1.288l.924-.574c-.826-1.022-1.974-1.75-3.626-1.75-2.66 0-4.802 1.932-4.802 4.83Zm19.5 4.662v-9.338h-1.666l-2.912 7.112-2.898-7.112h-1.666V485h1.162v-7.77l3.164 7.77h.476l3.178-7.77V485h1.162Z"/><g clip-path="url(#i)"><path fill="#fff" d="M472 457h173v48H472z"/><path fill="#000" d="M472.816 468.672c0 3.312 2.448 5.536 5.488 5.536 1.744 0 3.2-.736 4.192-1.84v-3.856h-4.992v1.184h3.664v2.176c-.528.528-1.584 1.152-2.864 1.152-2.336 0-4.112-1.824-4.112-4.352 0-2.544 1.776-4.336 4.112-4.336 1.28 0 2.416.608 3.088 1.472l1.056-.656c-.944-1.168-2.256-2-4.144-2-3.04 0-5.488 2.208-5.488 5.52ZM490.638 474v-5.312c0-1.872-1.36-2.608-2.992-2.608-1.264 0-2.256.416-3.088 1.28l.56.832c.688-.736 1.44-1.072 2.368-1.072 1.12 0 1.952.592 1.952 1.632v1.392c-.624-.72-1.504-1.056-2.56-1.056-1.312 0-2.704.816-2.704 2.544 0 1.68 1.392 2.56 2.704 2.56 1.04 0 1.92-.368 2.56-1.072v.88h1.2Zm-1.2-1.632c-.464.64-1.28.96-2.128.96-1.12 0-1.904-.704-1.904-1.68 0-.992.784-1.696 1.904-1.696.848 0 1.664.32 2.128.96v1.456Zm4.806 1.632v-5.472c.352-.624 1.36-1.232 2.096-1.232.192 0 .336.016.48.048v-1.232c-1.056 0-1.952.592-2.576 1.408v-1.248h-1.2V474h1.2Zm3.633-3.872c0 2.416 1.648 4.064 3.936 4.064 1.264 0 2.304-.416 3.072-1.184l-.576-.784c-.608.624-1.504.976-2.384.976-1.664 0-2.688-1.216-2.784-2.672h6.256v-.304c0-2.32-1.376-4.144-3.712-4.144-2.208 0-3.808 1.808-3.808 4.048Zm3.792-3.056c1.76 0 2.528 1.424 2.544 2.576h-5.072c.064-1.184.88-2.576 2.528-2.576ZM513.757 474v-5.424c0-1.68-.848-2.496-2.464-2.496-1.152 0-2.208.672-2.752 1.312v-1.12h-1.2V474h1.2v-5.648c.448-.624 1.344-1.2 2.288-1.2 1.04 0 1.728.432 1.728 1.792V474h1.2Zm17.017 0v-10.672h-1.904l-3.328 8.128-3.312-8.128h-1.904V474h1.328v-8.88l3.616 8.88h.544l3.632-8.88V474h1.328Zm1.994-3.872c0 2.304 1.552 4.064 3.856 4.064 1.408 0 2.24-.576 2.832-1.344l-.8-.736c-.512.688-1.168 1.008-1.968 1.008-1.648 0-2.672-1.28-2.672-2.992s1.024-2.976 2.672-2.976c.8 0 1.456.304 1.968 1.008l.8-.736c-.592-.768-1.424-1.344-2.832-1.344-2.304 0-3.856 1.76-3.856 4.048Zm9.746 3.872v-4.864h5.552v-1.184h-5.552v-3.44h5.664v-1.184h-6.992V474h1.328Zm13.452 0v-5.312c0-1.872-1.36-2.608-2.992-2.608-1.264 0-2.256.416-3.088 1.28l.56.832c.688-.736 1.44-1.072 2.368-1.072 1.12 0 1.952.592 1.952 1.632v1.392c-.624-.72-1.504-1.056-2.56-1.056-1.312 0-2.704.816-2.704 2.544 0 1.68 1.392 2.56 2.704 2.56 1.04 0 1.92-.368 2.56-1.072v.88h1.2Zm-1.2-1.632c-.464.64-1.28.96-2.128.96-1.12 0-1.904-.704-1.904-1.68 0-.992.784-1.696 1.904-1.696.848 0 1.664.32 2.128.96v1.456Zm4.806 1.632v-5.472c.352-.624 1.36-1.232 2.096-1.232.192 0 .336.016.48.048v-1.232c-1.056 0-1.952.592-2.576 1.408v-1.248h-1.2V474h1.2Zm5.281 0v-10.672h-1.2V474h1.2Zm8.426 0v-5.312c0-1.872-1.36-2.608-2.992-2.608-1.264 0-2.256.416-3.088 1.28l.56.832c.688-.736 1.44-1.072 2.368-1.072 1.12 0 1.952.592 1.952 1.632v1.392c-.624-.72-1.504-1.056-2.56-1.056-1.312 0-2.704.816-2.704 2.544 0 1.68 1.392 2.56 2.704 2.56 1.04 0 1.92-.368 2.56-1.072v.88h1.2Zm-1.2-1.632c-.464.64-1.28.96-2.128.96-1.12 0-1.904-.704-1.904-1.68 0-.992.784-1.696 1.904-1.696.848 0 1.664.32 2.128.96v1.456ZM582.1 474v-5.424c0-1.68-.848-2.496-2.464-2.496-1.152 0-2.208.672-2.752 1.312v-1.12h-1.2V474h1.2v-5.648c.448-.624 1.344-1.2 2.288-1.2 1.04 0 1.728.432 1.728 1.792V474h1.2Z"/><path fill="#fff" d="M472 481h173v24H472z"/><path fill="#A1A1AA" d="M480.772 497v-8.004h-1.428l-2.496 6.096-2.484-6.096h-1.428V497h.996v-6.66l2.712 6.66h.408l2.724-6.66V497h.996Zm2.731 0v-4.104c.264-.468 1.02-.924 1.572-.924.144 0 .252.012.36.036v-.924c-.792 0-1.464.444-1.932 1.056v-.936h-.9V497h.9Zm1.885-.54c0 .36.3.66.66.66.36 0 .66-.3.66-.66 0-.36-.3-.66-.66-.66-.36 0-.66.3-.66.66Zm7.442.78v-8.484h-.66v8.484h.66Z"/><path fill="#6366F1" d="M498.025 498.488c.684.672 1.356.864 2.34.864 1.416 0 2.76-.6 2.76-2.52v-5.628h-.9v.876c-.468-.636-1.164-1.02-1.944-1.02-1.524 0-2.58 1.152-2.58 3.012 0 1.872 1.068 3 2.58 3 .816 0 1.524-.444 1.944-1.032v.828c0 1.272-.9 1.74-1.86 1.74-.828 0-1.404-.216-1.884-.792l-.456.672Zm4.2-3.156c-.312.504-1.008.948-1.728.948-1.164 0-1.86-.936-1.86-2.208 0-1.284.696-2.208 1.86-2.208.72 0 1.416.432 1.728.936v2.532ZM512.823 497v-4.188c0-1.164-.564-1.752-1.62-1.752-.84 0-1.62.552-1.944 1.08-.168-.6-.672-1.08-1.56-1.08-.852 0-1.632.612-1.872.984v-.84h-.9V497h.9v-4.236c.312-.468.936-.9 1.524-.9.756 0 1.068.468 1.068 1.2V497h.9v-4.248c.3-.456.936-.888 1.536-.888.744 0 1.068.468 1.068 1.2V497h.9Zm1.46-2.904c0 1.728 1.164 3.048 2.892 3.048 1.056 0 1.68-.432 2.124-1.008l-.6-.552c-.384.516-.876.756-1.476.756-1.236 0-2.004-.96-2.004-2.244 0-1.284.768-2.232 2.004-2.232.6 0 1.092.228 1.476.756l.6-.552c-.444-.576-1.068-1.008-2.124-1.008-1.728 0-2.892 1.32-2.892 3.036Zm8.605-2.1v-.792h-1.176v-.444c0-.732.324-1.14.912-1.14.204 0 .372.048.516.132l.228-.672c-.228-.144-.54-.204-.876-.204-1.008 0-1.68.684-1.68 1.884v.444h-.96v.792h.96V497h.9v-5.004h1.176Zm5.595 5.004v-3.984c0-1.404-1.02-1.956-2.244-1.956-.948 0-1.692.312-2.316.96l.42.624c.516-.552 1.08-.804 1.776-.804.84 0 1.464.444 1.464 1.224v1.044c-.468-.54-1.128-.792-1.92-.792-.984 0-2.028.612-2.028 1.908 0 1.26 1.044 1.92 2.028 1.92.78 0 1.44-.276 1.92-.804v.66h.9Zm-.9-1.224c-.348.48-.96.72-1.596.72-.84 0-1.428-.528-1.428-1.26 0-.744.588-1.272 1.428-1.272.636 0 1.248.24 1.596.72v1.092Zm3.604 1.224v-4.104c.264-.468 1.02-.924 1.572-.924.144 0 .252.012.36.036v-.924c-.792 0-1.464.444-1.932 1.056v-.936h-.9V497h.9Zm3.961 0v-8.004h-.9V497h.9Zm6.319 0v-3.984c0-1.404-1.02-1.956-2.244-1.956-.948 0-1.692.312-2.316.96l.42.624c.516-.552 1.08-.804 1.776-.804.84 0 1.464.444 1.464 1.224v1.044c-.468-.54-1.128-.792-1.92-.792-.984 0-2.028.612-2.028 1.908 0 1.26 1.044 1.92 2.028 1.92.78 0 1.44-.276 1.92-.804v.66h.9Zm-.9-1.224c-.348.48-.96.72-1.596.72-.84 0-1.428-.528-1.428-1.26 0-.744.588-1.272 1.428-1.272.636 0 1.248.24 1.596.72v1.092Zm7.516 1.224v-4.068c0-1.26-.636-1.872-1.848-1.872-.864 0-1.656.504-2.064.984v-.84h-.9V497h.9v-4.236c.336-.468 1.008-.9 1.716-.9.78 0 1.296.324 1.296 1.344V497h.9Zm1.317-2.928c0 2.124 1.62 3.768 3.804 3.768.888 0 1.752-.276 2.496-.756l-.216-.312c-.648.408-1.38.672-2.232.672-1.992 0-3.444-1.464-3.444-3.396 0-2.244 1.992-4.296 4.308-4.296 2.04 0 3.396 1.428 3.396 3.396 0 1.656-.828 2.184-1.296 2.184-.312 0-.564-.216-.564-.624 0-.072.012-.18.024-.252l.684-3.252h-.816l-.156.744c-.228-.516-.756-.936-1.536-.936-1.416 0-2.82 1.344-2.82 3.012 0 1.164.72 1.956 1.836 1.956.768 0 1.476-.456 1.896-1.044l.012.072c.036.504.42.972 1.092.972 1.008 0 2.076-.948 2.076-2.832 0-2.1-1.512-3.804-3.78-3.804-2.496 0-4.764 2.136-4.764 4.728Zm5.496.156c-.348.504-.96 1.08-1.788 1.08-.768 0-1.224-.564-1.224-1.332 0-1.152.924-2.292 2.124-2.292.708 0 1.104.516 1.236.888l-.348 1.656Zm4.371 4.26c.684.672 1.356.864 2.34.864 1.416 0 2.76-.6 2.76-2.52v-5.628h-.9v.876c-.468-.636-1.164-1.02-1.944-1.02-1.524 0-2.58 1.152-2.58 3.012 0 1.872 1.068 3 2.58 3 .816 0 1.524-.444 1.944-1.032v.828c0 1.272-.9 1.74-1.86 1.74-.828 0-1.404-.216-1.884-.792l-.456.672Zm4.2-3.156c-.312.504-1.008.948-1.728.948-1.164 0-1.86-.936-1.86-2.208 0-1.284.696-2.208 1.86-2.208.72 0 1.416.432 1.728.936v2.532ZM574.066 497v-4.188c0-1.164-.564-1.752-1.62-1.752-.84 0-1.62.552-1.944 1.08-.168-.6-.672-1.08-1.56-1.08-.852 0-1.632.612-1.872.984v-.84h-.9V497h.9v-4.236c.312-.468.936-.9 1.524-.9.756 0 1.068.468 1.068 1.2V497h.9v-4.248c.3-.456.936-.888 1.536-.888.744 0 1.068.468 1.068 1.2V497h.9Zm6.319 0v-3.984c0-1.404-1.02-1.956-2.244-1.956-.948 0-1.692.312-2.316.96l.42.624c.516-.552 1.08-.804 1.776-.804.84 0 1.464.444 1.464 1.224v1.044c-.468-.54-1.128-.792-1.92-.792-.984 0-2.028.612-2.028 1.908 0 1.26 1.044 1.92 2.028 1.92.78 0 1.44-.276 1.92-.804v.66h.9Zm-.9-1.224c-.348.48-.96.72-1.596.72-.84 0-1.428-.528-1.428-1.26 0-.744.588-1.272 1.428-1.272.636 0 1.248.24 1.596.72v1.092Zm3.148-5.544a.615.615 0 0 0 .612-.612c0-.336-.276-.6-.612-.6-.324 0-.6.264-.6.6 0 .336.276.612.6.612Zm.456 6.768v-5.796h-.9V497h.9Zm2.695 0v-8.004h-.9V497h.9Zm1.616-.54c0 .36.3.66.66.66.36 0 .66-.3.66-.66 0-.36-.3-.66-.66-.66-.36 0-.66.3-.66.66Zm2.527-2.364c0 1.728 1.164 3.048 2.892 3.048 1.056 0 1.68-.432 2.124-1.008l-.6-.552c-.384.516-.876.756-1.476.756-1.236 0-2.004-.96-2.004-2.244 0-1.284.768-2.232 2.004-2.232.6 0 1.092.228 1.476.756l.6-.552c-.444-.576-1.068-1.008-2.124-1.008-1.728 0-2.892 1.32-2.892 3.036Zm8.81 3.048c1.764 0 2.868-1.368 2.868-3.048s-1.104-3.036-2.868-3.036c-1.764 0-2.868 1.356-2.868 3.036s1.104 3.048 2.868 3.048Zm0-.804c-1.236 0-1.932-1.056-1.932-2.244 0-1.176.696-2.232 1.932-2.232s1.92 1.056 1.92 2.232c0 1.188-.684 2.244-1.92 2.244Zm12.231.66v-4.188c0-1.164-.564-1.752-1.62-1.752-.84 0-1.62.552-1.944 1.08-.168-.6-.672-1.08-1.56-1.08-.852 0-1.632.612-1.872.984v-.84h-.9V497h.9v-4.236c.312-.468.936-.9 1.524-.9.756 0 1.068.468 1.068 1.2V497h.9v-4.248c.3-.456.936-.888 1.536-.888.744 0 1.068.468 1.068 1.2V497h.9Z"/></g></g><g clip-path="url(#j)"><g clip-path="url(#k)"><g clip-path="url(#l)"><path fill="#A5B4FC" fill-rule="evenodd" d="M780 587.902c4.443-4.286 6.756-6.512 6.94-6.68.275-.251.429-.219.621-.222.282-.004.553.162.657.255.129.114.35.334.339.814-.007.319-.074.546-.201.679l-5.312 5.154 5.174 5.009c.197.251.31.431.339.541.031.112.057.376 0 .552-.033.102-.115.357-.302.523-.091.08-.386.282-.734.282-.232-.001-.412-.065-.538-.192L780 587.902Z" clip-rule="evenodd"/></g><rect width="32" height="32" x="808" y="572" fill="#6366F1" rx="3"/><path fill="#fff" d="M825.465 593v-10.672h-1.168l-2.672 2.752.8.816 1.712-1.808V593h1.328Z"/><g clip-path="url(#m)"><path fill="#A5B4FC" fill-rule="evenodd" d="M869 588.098a1820.915 1820.915 0 0 1-6.94 6.68c-.275.251-.429.219-.621.222-.282.004-.553-.162-.657-.255-.129-.114-.35-.334-.339-.814.007-.319.074-.546.201-.679l5.312-5.154-5.174-5.009c-.197-.251-.31-.431-.339-.541-.031-.112-.057-.376 0-.552.033-.102.115-.357.302-.523.091-.08.386-.282.734-.282.232.001.412.065.538.192l6.983 6.715Z" clip-rule="evenodd"/></g></g><g clip-path="url(#n)"><rect width="108" height="36" x="904" y="570" fill="#fff" rx="3"/><path fill="#000" d="M915.688 592v-9.338h-1.022l-2.338 2.408.7.714 1.498-1.582V592h1.162Zm1.804-4.662c0 2.268 1.008 4.83 3.57 4.83 2.548 0 3.57-2.562 3.57-4.83 0-2.282-1.022-4.816-3.57-4.816-2.562 0-3.57 2.534-3.57 4.816Zm5.95 0c0 1.862-.602 3.794-2.38 3.794s-2.38-1.932-2.38-3.794.602-3.78 2.38-3.78 2.38 1.918 2.38 3.78Zm6.344 4.942 3.318-9.898h-.826l-3.318 9.898h.826Zm9.18-.28v-3.71h2.59c1.848 0 2.926-1.288 2.926-2.814s-1.05-2.814-2.926-2.814h-3.752V592h1.162Zm4.312-6.524c0 1.05-.756 1.778-1.862 1.778h-2.45v-3.556h2.45c1.106 0 1.862.728 1.862 1.778Zm7.705 6.524v-4.648c0-1.638-1.19-2.282-2.618-2.282-1.106 0-1.974.364-2.702 1.12l.49.728c.602-.644 1.26-.938 2.072-.938.98 0 1.708.518 1.708 1.428v1.218c-.546-.63-1.316-.924-2.24-.924-1.148 0-2.366.714-2.366 2.226 0 1.47 1.218 2.24 2.366 2.24.91 0 1.68-.322 2.24-.938v.77h1.05Zm-1.05-1.428c-.406.56-1.12.84-1.862.84-.98 0-1.666-.616-1.666-1.47 0-.868.686-1.484 1.666-1.484.742 0 1.456.28 1.862.84v1.274Zm3.141 3.164c.798.784 1.582 1.008 2.73 1.008 1.652 0 3.22-.7 3.22-2.94v-6.566h-1.05v1.022c-.546-.742-1.358-1.19-2.268-1.19-1.778 0-3.01 1.344-3.01 3.514 0 2.184 1.246 3.5 3.01 3.5.952 0 1.778-.518 2.268-1.204v.966c0 1.484-1.05 2.03-2.17 2.03-.966 0-1.638-.252-2.198-.924l-.532.784Zm4.9-3.682c-.364.588-1.176 1.106-2.016 1.106-1.358 0-2.17-1.092-2.17-2.576 0-1.498.812-2.576 2.17-2.576.84 0 1.652.504 2.016 1.092v2.954Zm2.761-1.442c0 2.114 1.442 3.556 3.444 3.556 1.106 0 2.016-.364 2.688-1.036l-.504-.686c-.532.546-1.316.854-2.086.854-1.456 0-2.352-1.064-2.436-2.338h5.474v-.266c0-2.03-1.204-3.626-3.248-3.626-1.932 0-3.332 1.582-3.332 3.542Zm3.318-2.674c1.54 0 2.212 1.246 2.226 2.254h-4.438c.056-1.036.77-2.254 2.212-2.254Z"/><path stroke="#D4D4D8" d="M975.5 598.5v-21"/><rect width="36" height="36" x="976" y="570" fill="#fff" rx="3"/><path fill="#fff" d="M984 578h20v20h-20z"/><path fill="#D4D4D8" d="M990.576 584.803a1.207 1.207 0 0 0-1.672 1.739l4.203 4.039a.998.998 0 0 0 1.386 0l4.203-4.039a1.207 1.207 0 0 0 0-1.739 1.208 1.208 0 0 0-1.672 0l-3.224 3.1-3.224-3.1Z"/></g><rect width="107" height="35" x="904.5" y="570.5" stroke="#E4E4E7" rx="2.5"/></g><g clip-path="url(#o)"><path fill="#52525B" d="m65.374 229.371 1.665.961a.47.47 0 0 1 .213.546 9.671 9.671 0 0 1-2.136 3.695.471.471 0 0 1-.58.088l-1.663-.961a7.49 7.49 0 0 1-2.373 1.373v1.921a.47.47 0 0 1-.366.458 9.778 9.778 0 0 1-4.267 0 .47.47 0 0 1-.367-.458v-1.921a7.491 7.491 0 0 1-2.373-1.373l-1.664.961a.471.471 0 0 1-.58-.088 9.67 9.67 0 0 1-2.136-3.695.47.47 0 0 1 .214-.546l1.665-.961a7.557 7.557 0 0 1 0-2.742l-1.665-.961a.47.47 0 0 1-.213-.546 9.678 9.678 0 0 1 2.136-3.695.471.471 0 0 1 .58-.088l1.663.961a7.49 7.49 0 0 1 2.373-1.373v-1.921a.47.47 0 0 1 .366-.457 9.762 9.762 0 0 1 4.267-.001.47.47 0 0 1 .367.458v1.921a7.491 7.491 0 0 1 2.373 1.373l1.664-.961a.471.471 0 0 1 .58.088 9.67 9.67 0 0 1 2.135 3.695.47.47 0 0 1-.213.546l-1.665.961a7.557 7.557 0 0 1 0 2.742ZM61.125 228A3.129 3.129 0 0 0 58 224.875 3.129 3.129 0 0 0 54.875 228 3.129 3.129 0 0 0 58 231.125 3.129 3.129 0 0 0 61.125 228Z"/></g><path fill="#52525B" d="M80.532 230.684c.77.868 1.96 1.484 3.584 1.484 2.52 0 3.444-1.386 3.444-2.744 0-1.96-1.736-2.436-3.262-2.842-1.19-.322-2.268-.602-2.268-1.54 0-.882.798-1.484 1.918-1.484 1.022 0 2.002.35 2.702 1.12l.7-.854c-.784-.826-1.89-1.302-3.318-1.302-1.834 0-3.206 1.05-3.206 2.59 0 1.834 1.666 2.254 3.164 2.646 1.232.336 2.366.644 2.366 1.764 0 .714-.532 1.61-2.198 1.61-1.316 0-2.324-.644-2.94-1.33l-.686.882ZM94.867 232v-6.762h-1.05v4.97c-.392.546-1.176 1.022-2.002 1.022-.91 0-1.512-.35-1.512-1.54v-4.452h-1.05v4.774c0 1.47.742 2.156 2.156 2.156 1.008 0 1.89-.532 2.408-1.12V232h1.05Zm3.147 0v-1.008c.504.686 1.33 1.176 2.282 1.176 1.764 0 3.01-1.344 3.01-3.542 0-2.156-1.246-3.556-3.01-3.556-.924 0-1.736.448-2.282 1.19v-3.598h-1.05V232h1.05Zm0-4.9c.364-.588 1.19-1.092 2.016-1.092 1.372 0 2.184 1.12 2.184 2.618 0 1.498-.812 2.604-2.184 2.604-.826 0-1.652-.476-2.016-1.064V227.1Zm6.611 1.512c0 2.016 1.358 3.556 3.374 3.556 1.232 0 1.96-.504 2.478-1.176l-.7-.644c-.448.602-1.022.882-1.722.882-1.442 0-2.338-1.12-2.338-2.618 0-1.498.896-2.604 2.338-2.604.7 0 1.274.266 1.722.882l.7-.644c-.518-.672-1.246-1.176-2.478-1.176-2.016 0-3.374 1.54-3.374 3.542Zm10.277 3.556c2.058 0 3.346-1.596 3.346-3.556s-1.288-3.542-3.346-3.542-3.346 1.582-3.346 3.542c0 1.96 1.288 3.556 3.346 3.556Zm0-.938c-1.442 0-2.254-1.232-2.254-2.618 0-1.372.812-2.604 2.254-2.604s2.24 1.232 2.24 2.604c0 1.386-.798 2.618-2.24 2.618Zm10.672.77v-4.746c0-1.47-.742-2.184-2.156-2.184-1.008 0-1.932.588-2.408 1.148v-.98h-1.05V232h1.05v-4.942c.392-.546 1.176-1.05 2.002-1.05.91 0 1.512.378 1.512 1.568V232h1.05Zm3.805.168c.616 0 .994-.182 1.26-.434l-.308-.784c-.14.154-.42.28-.714.28-.462 0-.686-.364-.686-.868v-4.2h1.372v-.924h-1.372v-1.848h-1.05v1.848h-1.12v.924h1.12v4.424c0 1.008.504 1.582 1.498 1.582Zm3.457-.168v-4.788c.308-.546 1.19-1.078 1.834-1.078.168 0 .294.014.42.042v-1.078c-.924 0-1.708.518-2.254 1.232v-1.092h-1.05V232h1.05Zm8.849 0v-4.648c0-1.638-1.19-2.282-2.618-2.282-1.106 0-1.974.364-2.702 1.12l.49.728c.602-.644 1.26-.938 2.072-.938.98 0 1.708.518 1.708 1.428v1.218c-.546-.63-1.316-.924-2.24-.924-1.148 0-2.366.714-2.366 2.226 0 1.47 1.218 2.24 2.366 2.24.91 0 1.68-.322 2.24-.938v.77h1.05Zm-1.05-1.428c-.406.56-1.12.84-1.862.84-.98 0-1.666-.616-1.666-1.47 0-.868.686-1.484 1.666-1.484.742 0 1.456.28 1.862.84v1.274Zm2.763-1.96c0 2.016 1.358 3.556 3.374 3.556 1.232 0 1.96-.504 2.478-1.176l-.7-.644c-.448.602-1.022.882-1.722.882-1.442 0-2.338-1.12-2.338-2.618 0-1.498.896-2.604 2.338-2.604.7 0 1.274.266 1.722.882l.7-.644c-.518-.672-1.246-1.176-2.478-1.176-2.016 0-3.374 1.54-3.374 3.542Zm9.032 3.556c.616 0 .994-.182 1.26-.434l-.308-.784c-.14.154-.42.28-.714.28-.462 0-.686-.364-.686-.868v-4.2h1.372v-.924h-1.372v-1.848h-1.05v1.848h-1.12v.924h1.12v4.424c0 1.008.504 1.582 1.498 1.582Zm5.361 0c2.058 0 3.346-1.596 3.346-3.556s-1.288-3.542-3.346-3.542-3.346 1.582-3.346 3.542c0 1.96 1.288 3.556 3.346 3.556Zm0-.938c-1.442 0-2.254-1.232-2.254-2.618 0-1.372.812-2.604 2.254-2.604s2.24 1.232 2.24 2.604c0 1.386-.798 2.618-2.24 2.618Zm6.108.77v-4.788c.308-.546 1.19-1.078 1.834-1.078.168 0 .294.014.42.042v-1.078c-.924 0-1.708.518-2.254 1.232v-1.092h-1.05V232h1.05Zm6.662-1.316c.77.868 1.96 1.484 3.584 1.484 2.52 0 3.444-1.386 3.444-2.744 0-1.96-1.736-2.436-3.262-2.842-1.19-.322-2.268-.602-2.268-1.54 0-.882.798-1.484 1.918-1.484 1.022 0 2.002.35 2.702 1.12l.7-.854c-.784-.826-1.89-1.302-3.318-1.302-1.834 0-3.206 1.05-3.206 2.59 0 1.834 1.666 2.254 3.164 2.646 1.232.336 2.366.644 2.366 1.764 0 .714-.532 1.61-2.198 1.61-1.316 0-2.324-.644-2.94-1.33l-.686.882Zm8.329-2.072c0 2.114 1.442 3.556 3.444 3.556 1.106 0 2.016-.364 2.688-1.036l-.504-.686c-.532.546-1.316.854-2.086.854-1.456 0-2.352-1.064-2.436-2.338h5.474v-.266c0-2.03-1.204-3.626-3.248-3.626-1.932 0-3.332 1.582-3.332 3.542Zm3.318-2.674c1.54 0 2.212 1.246 2.226 2.254h-4.438c.056-1.036.77-2.254 2.212-2.254Zm6.671 6.23c.616 0 .994-.182 1.26-.434l-.308-.784c-.14.154-.42.28-.714.28-.462 0-.686-.364-.686-.868v-4.2h1.372v-.924h-1.372v-1.848h-1.05v1.848h-1.12v.924h1.12v4.424c0 1.008.504 1.582 1.498 1.582Zm4.115 0c.616 0 .994-.182 1.26-.434l-.308-.784c-.14.154-.42.28-.714.28-.462 0-.686-.364-.686-.868v-4.2h1.372v-.924h-1.372v-1.848h-1.05v1.848h-1.12v.924h1.12v4.424c0 1.008.504 1.582 1.498 1.582Zm2.926-8.064a.717.717 0 0 0 .714-.714c0-.392-.322-.7-.714-.7-.378 0-.7.308-.7.7 0 .392.322.714.7.714Zm.532 7.896v-6.762h-1.05V232h1.05Zm7.708 0v-4.746c0-1.47-.742-2.184-2.156-2.184-1.008 0-1.932.588-2.408 1.148v-.98h-1.05V232h1.05v-4.942c.392-.546 1.176-1.05 2.002-1.05.91 0 1.512.378 1.512 1.568V232h1.05Zm2.083 1.736c.798.784 1.582 1.008 2.73 1.008 1.652 0 3.22-.7 3.22-2.94v-6.566h-1.05v1.022c-.546-.742-1.358-1.19-2.268-1.19-1.778 0-3.01 1.344-3.01 3.514 0 2.184 1.246 3.5 3.01 3.5.952 0 1.778-.518 2.268-1.204v.966c0 1.484-1.05 2.03-2.17 2.03-.966 0-1.638-.252-2.198-.924l-.532.784Zm4.9-3.682c-.364.588-1.176 1.106-2.016 1.106-1.358 0-2.17-1.092-2.17-2.576 0-1.498.812-2.576 2.17-2.576.84 0 1.652.504 2.016 1.092v2.954Zm2.565 1.05c.686.728 1.624 1.064 2.73 1.064 1.75 0 2.66-.91 2.66-2.044 0-1.498-1.358-1.834-2.534-2.1-.882-.21-1.652-.42-1.652-1.078 0-.602.574-1.022 1.498-1.022.868 0 1.61.364 2.016.854l.49-.728c-.546-.546-1.358-.98-2.506-.98-1.61 0-2.52.896-2.52 1.946 0 1.4 1.302 1.708 2.45 1.974.91.224 1.736.462 1.736 1.204 0 .658-.56 1.12-1.596 1.12-.924 0-1.778-.448-2.226-.966l-.546.756Z"/><g fill="#52525B" clip-path="url(#p)"><path d="M60.857 261.395H59.43C59.429 260 58.79 260 58 260s-1.429 0-1.429 1.395h-1.428c-.923 0-1.429.649-1.429 1.463v2.093c0 .386.32.63.715.63h7.142c.395 0 .715-.244.715-.63v-2.093c0-.814-.387-1.463-1.429-1.463Z"/><path d="M63.714 262.791v3.555c0 .387-.32.631-.714.631H53c-.394 0-.714-.244-.714-.631v-3.555h-2.857c-.786 0-1.429.696-1.429 1.462v18.14c0 .767.643 1.328 1.429 1.328H66.57c.786 0 1.429-.561 1.429-1.328v-18.14c0-.766-.643-1.462-1.429-1.462h-2.857Zm-.187 9.132-6.347 6.242a.643.643 0 0 1-.899 0l-3.81-3.546a.619.619 0 0 1 0-.883l.899-.883a.64.64 0 0 1 .897 0l2.464 2.222 5.003-4.917a.643.643 0 0 1 .897 0l.898.883a.616.616 0 0 1-.002.882Z"/></g><path fill="#52525B" d="m89.086 276-3.766-9.338h-1.442L80.126 276h1.288l.826-2.072h4.732l.826 2.072h1.288Zm-2.464-3.108h-4.046l2.03-5.194 2.016 5.194Zm4.693 2.086c.546.756 1.358 1.19 2.282 1.19 1.778 0 3.01-1.372 3.01-3.556 0-2.198-1.232-3.542-3.01-3.542-.952 0-1.792.49-2.282 1.176v-1.008h-1.05v9.338h1.05v-3.598Zm4.186-2.366c0 1.498-.812 2.618-2.17 2.618-.826 0-1.652-.504-2.016-1.092v-3.052c.364-.588 1.19-1.078 2.016-1.078 1.358 0 2.17 1.106 2.17 2.604Zm3.853 2.366c.546.756 1.358 1.19 2.282 1.19 1.778 0 3.01-1.372 3.01-3.556 0-2.198-1.232-3.542-3.01-3.542-.952 0-1.792.49-2.282 1.176v-1.008h-1.05v9.338h1.05v-3.598Zm4.186-2.366c0 1.498-.812 2.618-2.17 2.618-.826 0-1.652-.504-2.016-1.092v-3.052c.364-.588 1.19-1.078 2.016-1.078 1.358 0 2.17 1.106 2.17 2.604Zm3.853 3.388v-4.788c.308-.546 1.19-1.078 1.834-1.078.168 0 .294.014.42.042v-1.078c-.924 0-1.708.518-2.254 1.232v-1.092h-1.05V276h1.05Zm6.525.168c2.058 0 3.346-1.596 3.346-3.556s-1.288-3.542-3.346-3.542-3.346 1.582-3.346 3.542c0 1.96 1.288 3.556 3.346 3.556Zm0-.938c-1.442 0-2.254-1.232-2.254-2.618 0-1.372.812-2.604 2.254-2.604s2.24 1.232 2.24 2.604c0 1.386-.798 2.618-2.24 2.618Zm8.012.77 2.814-6.762h-1.148l-2.24 5.544-2.254-5.544h-1.134l2.814 6.762h1.148Zm9.187 0v-4.648c0-1.638-1.19-2.282-2.618-2.282-1.106 0-1.974.364-2.702 1.12l.49.728c.602-.644 1.26-.938 2.072-.938.98 0 1.708.518 1.708 1.428v1.218c-.546-.63-1.316-.924-2.24-.924-1.148 0-2.366.714-2.366 2.226 0 1.47 1.218 2.24 2.366 2.24.91 0 1.68-.322 2.24-.938v.77h1.05Zm-1.05-1.428c-.406.56-1.12.84-1.862.84-.98 0-1.666-.616-1.666-1.47 0-.868.686-1.484 1.666-1.484.742 0 1.456.28 1.862.84v1.274Zm4.205 1.428v-9.338h-1.05V276h1.05Zm14.146 0 2.66-9.338h-1.288l-2.058 7.784-2.142-7.784h-.966l-2.142 7.784-2.072-7.784h-1.288l2.66 9.338h1.26l2.058-7.532 2.058 7.532h1.26Zm6.311.168c2.058 0 3.346-1.596 3.346-3.556s-1.288-3.542-3.346-3.542-3.346 1.582-3.346 3.542c0 1.96 1.288 3.556 3.346 3.556Zm0-.938c-1.442 0-2.254-1.232-2.254-2.618 0-1.372.812-2.604 2.254-2.604s2.24 1.232 2.24 2.604c0 1.386-.798 2.618-2.24 2.618Zm6.107.77v-4.788c.308-.546 1.19-1.078 1.834-1.078.168 0 .294.014.42.042v-1.078c-.924 0-1.708.518-2.254 1.232v-1.092h-1.05V276h1.05Zm9.521 0-3.01-3.696 2.996-3.066h-1.33l-3.556 3.598v-6.174h-1.05V276h1.05v-1.932l1.12-1.106 2.436 3.038h1.344Zm3.958-5.838v-.924h-1.372v-.518c0-.854.378-1.33 1.064-1.33.266 0 .448.07.602.168l.266-.798c-.266-.168-.63-.238-1.022-.238-1.176 0-1.96.798-1.96 2.198v.518h-1.12v.924h1.12V276h1.05v-5.838h1.372Zm2.296 5.838v-9.338h-1.05V276h1.05Zm5.065.168c2.058 0 3.346-1.596 3.346-3.556s-1.288-3.542-3.346-3.542-3.346 1.582-3.346 3.542c0 1.96 1.288 3.556 3.346 3.556Zm0-.938c-1.442 0-2.254-1.232-2.254-2.618 0-1.372.812-2.604 2.254-2.604s2.24 1.232 2.24 2.604c0 1.386-.798 2.618-2.24 2.618Zm11.96.77 2.156-6.762H194.7l-1.652 5.39-1.778-5.39h-.896l-1.778 5.39-1.652-5.39h-1.092l2.156 6.762h1.05l1.764-5.432 1.764 5.432h1.05Z"/><g clip-path="url(#q)"><path fill="#52525B" d="M96.5 310.857c-.834 0-1.5-.775-1.5-1.731v-3.395c0-.454.158-.89.44-1.212a1.413 1.413 0 0 1 1.06-.502c.398 0 .78.181 1.06.502.282.322.44.758.44 1.212v3.395a1.92 1.92 0 0 1-.11.661c-.074.21-.184.401-.324.562a1.51 1.51 0 0 1-.489.376 1.341 1.341 0 0 1-.577.132Zm-13.509-3.428H84.5v1.717c0 1.893 1.332 3.425 3 3.425 1.657 0 3-1.539 3-3.425v-1.717h3v1.717c0 1.893 1.332 3.425 3 3.425 1.657 0 3-1.539 3-3.425v-1.717h1.509c1.65 0 2.991 1.542 2.991 3.444v13.683c.002.91-.311 1.783-.872 2.429-.561.646-1.323 1.011-2.119 1.015H82.991c-1.65 0-2.991-1.543-2.991-3.444v-13.682c0-1.899 1.34-3.445 2.991-3.445Zm4.509 3.428c-.834 0-1.5-.775-1.5-1.731v-3.395c0-.454.158-.89.44-1.212a1.413 1.413 0 0 1 1.06-.502c.398 0 .78.181 1.06.502.282.322.44.758.44 1.212v3.395a1.92 1.92 0 0 1-.11.661c-.074.21-.184.401-.324.562a1.51 1.51 0 0 1-.489.376 1.341 1.341 0 0 1-.577.132Z"/></g><path fill="#52525B" d="M121.474 320.168c1.694 0 2.814-.784 3.598-1.848l-.994-.546c-.532.798-1.498 1.358-2.604 1.358-2.002 0-3.556-1.582-3.556-3.794 0-2.226 1.554-3.794 3.556-3.794a3.17 3.17 0 0 1 2.604 1.358l.98-.546c-.742-1.05-1.89-1.848-3.584-1.848-2.646 0-4.76 1.96-4.76 4.83s2.114 4.83 4.76 4.83Zm7.991 0c2.058 0 3.346-1.596 3.346-3.556s-1.288-3.542-3.346-3.542-3.346 1.582-3.346 3.542c0 1.96 1.288 3.556 3.346 3.556Zm0-.938c-1.442 0-2.254-1.232-2.254-2.618 0-1.372.812-2.604 2.254-2.604s2.24 1.232 2.24 2.604c0 1.386-.798 2.618-2.24 2.618Zm14.27.77v-4.886c0-1.358-.658-2.044-1.89-2.044-.98 0-1.89.644-2.268 1.26-.196-.7-.784-1.26-1.82-1.26-.994 0-1.904.714-2.184 1.148v-.98h-1.05V320h1.05v-4.942c.364-.546 1.092-1.05 1.778-1.05.882 0 1.246.546 1.246 1.4V320h1.05v-4.956c.35-.532 1.092-1.036 1.792-1.036.868 0 1.246.546 1.246 1.4V320h1.05Zm3.144-1.022c.546.756 1.358 1.19 2.282 1.19 1.778 0 3.01-1.372 3.01-3.556 0-2.198-1.232-3.542-3.01-3.542-.952 0-1.792.49-2.282 1.176v-1.008h-1.05v9.338h1.05v-3.598Zm4.186-2.366c0 1.498-.812 2.618-2.17 2.618-.826 0-1.652-.504-2.016-1.092v-3.052c.364-.588 1.19-1.078 2.016-1.078 1.358 0 2.17 1.106 2.17 2.604Zm8.081 3.388v-4.648c0-1.638-1.19-2.282-2.618-2.282-1.106 0-1.974.364-2.702 1.12l.49.728c.602-.644 1.26-.938 2.072-.938.98 0 1.708.518 1.708 1.428v1.218c-.546-.63-1.316-.924-2.24-.924-1.148 0-2.366.714-2.366 2.226 0 1.47 1.218 2.24 2.366 2.24.91 0 1.68-.322 2.24-.938v.77h1.05Zm-1.05-1.428c-.406.56-1.12.84-1.862.84-.98 0-1.666-.616-1.666-1.47 0-.868.686-1.484 1.666-1.484.742 0 1.456.28 1.862.84v1.274Zm8.769 1.428v-4.746c0-1.47-.742-2.184-2.156-2.184-1.008 0-1.932.588-2.408 1.148v-.98h-1.05V320h1.05v-4.942c.392-.546 1.176-1.05 2.002-1.05.91 0 1.512.378 1.512 1.568V320h1.05Zm1.719 2.646c.196.056.546.098.77.098.896-.014 1.582-.392 1.988-1.372l3.388-8.134h-1.148l-2.24 5.544-2.254-5.544h-1.134l2.828 6.832-.448 1.022c-.238.56-.546.714-1.008.714a1.61 1.61 0 0 1-.574-.112l-.168.952Zm19.783-7.308c0-2.758-1.876-4.83-4.634-4.83-2.772 0-4.634 2.072-4.634 4.83s1.862 4.83 4.634 4.83c.966 0 1.82-.252 2.534-.7l.896.966.812-.7-.882-.952c.812-.868 1.274-2.072 1.274-3.444Zm-4.634 3.794c-2.1 0-3.43-1.624-3.43-3.794 0-2.184 1.33-3.794 3.43-3.794 2.086 0 3.43 1.61 3.43 3.794 0 1.036-.308 1.946-.854 2.604l-1.316-1.414-.812.686 1.33 1.442c-.504.308-1.092.476-1.778.476Zm12.021.868v-6.762h-1.05v4.97c-.392.546-1.176 1.022-2.002 1.022-.91 0-1.512-.35-1.512-1.54v-4.452h-1.05v4.774c0 1.47.742 2.156 2.156 2.156 1.008 0 1.89-.532 2.408-1.12V320h1.05Zm7.375 0v-4.648c0-1.638-1.19-2.282-2.618-2.282-1.106 0-1.974.364-2.702 1.12l.49.728c.602-.644 1.26-.938 2.072-.938.98 0 1.708.518 1.708 1.428v1.218c-.546-.63-1.316-.924-2.24-.924-1.148 0-2.366.714-2.366 2.226 0 1.47 1.218 2.24 2.366 2.24.91 0 1.68-.322 2.24-.938v.77h1.05Zm-1.05-1.428c-.406.56-1.12.84-1.862.84-.98 0-1.666-.616-1.666-1.47 0-.868.686-1.484 1.666-1.484.742 0 1.456.28 1.862.84v1.274Zm4.205 1.428v-9.338h-1.05V320h1.05Zm2.612-7.896a.717.717 0 0 0 .714-.714c0-.392-.322-.7-.714-.7-.378 0-.7.308-.7.7 0 .392.322.714.7.714Zm.532 7.896v-6.762h-1.05V320h1.05Zm3.439-5.838h1.372v-.924h-1.372v-.518c0-.854.378-1.33 1.064-1.33.266 0 .448.07.602.168l.266-.798c-.266-.168-.63-.238-1.022-.238-1.176 0-1.96.798-1.96 2.198v.518h-1.12v.924h1.12V320h1.05v-5.838Zm3.136-2.058a.717.717 0 0 0 .714-.714c0-.392-.322-.7-.714-.7-.378 0-.7.308-.7.7 0 .392.322.714.7.714Zm.532 7.896v-6.762h-1.05V320h1.05Zm1.719-3.388c0 2.016 1.358 3.556 3.374 3.556 1.232 0 1.96-.504 2.478-1.176l-.7-.644c-.448.602-1.022.882-1.722.882-1.442 0-2.338-1.12-2.338-2.618 0-1.498.896-2.604 2.338-2.604.7 0 1.274.266 1.722.882l.7-.644c-.518-.672-1.246-1.176-2.478-1.176-2.016 0-3.374 1.54-3.374 3.542ZM230.855 320v-4.648c0-1.638-1.19-2.282-2.618-2.282-1.106 0-1.974.364-2.702 1.12l.49.728c.602-.644 1.26-.938 2.072-.938.98 0 1.708.518 1.708 1.428v1.218c-.546-.63-1.316-.924-2.24-.924-1.148 0-2.366.714-2.366 2.226 0 1.47 1.218 2.24 2.366 2.24.91 0 1.68-.322 2.24-.938v.77h1.05Zm-1.05-1.428c-.406.56-1.12.84-1.862.84-.98 0-1.666-.616-1.666-1.47 0-.868.686-1.484 1.666-1.484.742 0 1.456.28 1.862.84v1.274Zm4.863 1.596c.616 0 .994-.182 1.26-.434l-.308-.784c-.14.154-.42.28-.714.28-.462 0-.686-.364-.686-.868v-4.2h1.372v-.924h-1.372v-1.848h-1.05v1.848h-1.12v.924h1.12v4.424c0 1.008.504 1.582 1.498 1.582Zm2.925-8.064a.717.717 0 0 0 .714-.714c0-.392-.322-.7-.714-.7-.378 0-.7.308-.7.7 0 .392.322.714.7.714Zm.532 7.896v-6.762h-1.05V320h1.05Zm5.049.168c2.058 0 3.346-1.596 3.346-3.556s-1.288-3.542-3.346-3.542-3.346 1.582-3.346 3.542c0 1.96 1.288 3.556 3.346 3.556Zm0-.938c-1.442 0-2.254-1.232-2.254-2.618 0-1.372.812-2.604 2.254-2.604s2.24 1.232 2.24 2.604c0 1.386-.798 2.618-2.24 2.618Zm10.672.77v-4.746c0-1.47-.742-2.184-2.156-2.184-1.008 0-1.932.588-2.408 1.148v-.98h-1.05V320h1.05v-4.942c.392-.546 1.176-1.05 2.002-1.05.91 0 1.512.378 1.512 1.568V320h1.05Zm1.509-.896c.686.728 1.624 1.064 2.73 1.064 1.75 0 2.66-.91 2.66-2.044 0-1.498-1.358-1.834-2.534-2.1-.882-.21-1.652-.42-1.652-1.078 0-.602.574-1.022 1.498-1.022.868 0 1.61.364 2.016.854l.49-.728c-.546-.546-1.358-.98-2.506-.98-1.61 0-2.52.896-2.52 1.946 0 1.4 1.302 1.708 2.45 1.974.91.224 1.736.462 1.736 1.204 0 .658-.56 1.12-1.596 1.12-.924 0-1.778-.448-2.226-.966l-.546.756Z"/><g clip-path="url(#r)"><path fill="#52525B" d="M102.612 369.513h-1.125v-20.781c0-.28-.202-.509-.45-.509H89.563c-.248 0-.45.229-.45.509v20.781h-1.125v-16.504c0-.279-.202-.509-.45-.509H82.25c-.248 0-.45.23-.45.509v16.504h-1.631v2.038h23.462v-2.038h-1.019Zm-19.518-14.338h3.6v1.178h-3.6v-1.178Zm0 3.486h3.6v1.178h-3.6v-1.178Zm0 3.486h3.6v1.178h-3.6v-1.178Zm0 3.487h3.6v1.178h-3.6v-1.178Zm14.48-14.025h2.274v2.356h-2.275v-2.356Zm0 4.075h2.274v2.357h-2.275v-2.357Zm0 4.076h2.274v2.356h-2.275v-2.356Zm-3.412-8.151h2.275v2.356h-2.275v-2.356Zm0 4.075h2.275v2.357h-2.275v-2.357Zm0 4.076h2.275v2.356h-2.275v-2.356Zm-3.41-8.151h2.275v2.356h-2.275v-2.356Zm0 4.075h2.275v2.357h-2.275v-2.357Zm0 4.076h2.275v2.356h-2.275v-2.356Zm2.518 4.966h4.061v4.787H93.27v-4.787Z"/></g><path fill="#52525B" d="M118.254 364v-3.71h2.59c1.848 0 2.926-1.288 2.926-2.814s-1.05-2.814-2.926-2.814h-3.752V364h1.162Zm4.312-6.524c0 1.05-.756 1.778-1.862 1.778h-2.45v-3.556h2.45c1.106 0 1.862.728 1.862 1.778Zm3.751 6.524v-4.788c.308-.546 1.19-1.078 1.834-1.078.168 0 .294.014.42.042v-1.078c-.924 0-1.708.518-2.254 1.232v-1.092h-1.05V364h1.05Zm6.525.168c2.058 0 3.346-1.596 3.346-3.556s-1.288-3.542-3.346-3.542-3.346 1.582-3.346 3.542c0 1.96 1.288 3.556 3.346 3.556Zm0-.938c-1.442 0-2.254-1.232-2.254-2.618 0-1.372.812-2.604 2.254-2.604s2.24 1.232 2.24 2.604c0 1.386-.798 2.618-2.24 2.618Zm5.576-7.126a.717.717 0 0 0 .714-.714c0-.392-.322-.7-.714-.7-.378 0-.7.308-.7.7 0 .392.322.714.7.714Zm-.518 1.134v7.42c0 .854-.434 1.176-1.05 1.176-.168 0-.364-.014-.504-.07l-.14.882c.224.07.462.098.756.098 1.274 0 1.988-.756 1.988-2.086v-7.42h-1.05Zm2.752 3.374c0 2.114 1.442 3.556 3.444 3.556 1.106 0 2.016-.364 2.688-1.036l-.504-.686c-.532.546-1.316.854-2.086.854-1.456 0-2.352-1.064-2.436-2.338h5.474v-.266c0-2.03-1.204-3.626-3.248-3.626-1.932 0-3.332 1.582-3.332 3.542Zm3.318-2.674c1.54 0 2.212 1.246 2.226 2.254h-4.438c.056-1.036.77-2.254 2.212-2.254Zm4.571 2.674c0 2.016 1.358 3.556 3.374 3.556 1.232 0 1.96-.504 2.478-1.176l-.7-.644c-.448.602-1.022.882-1.722.882-1.442 0-2.338-1.12-2.338-2.618 0-1.498.896-2.604 2.338-2.604.7 0 1.274.266 1.722.882l.7-.644c-.518-.672-1.246-1.176-2.478-1.176-2.016 0-3.374 1.54-3.374 3.542Zm9.031 3.556c.616 0 .994-.182 1.26-.434l-.308-.784c-.14.154-.42.28-.714.28-.462 0-.686-.364-.686-.868v-4.2h1.372v-.924h-1.372v-1.848h-1.05v1.848h-1.12v.924h1.12v4.424c0 1.008.504 1.582 1.498 1.582Zm14.949-4.83c0-2.758-1.876-4.83-4.634-4.83-2.772 0-4.634 2.072-4.634 4.83s1.862 4.83 4.634 4.83c.966 0 1.82-.252 2.534-.7l.896.966.812-.7-.882-.952c.812-.868 1.274-2.072 1.274-3.444Zm-4.634 3.794c-2.1 0-3.43-1.624-3.43-3.794 0-2.184 1.33-3.794 3.43-3.794 2.086 0 3.43 1.61 3.43 3.794 0 1.036-.308 1.946-.854 2.604l-1.316-1.414-.812.686 1.33 1.442c-.504.308-1.092.476-1.778.476Zm12.021.868v-6.762h-1.05v4.97c-.392.546-1.176 1.022-2.002 1.022-.91 0-1.512-.35-1.512-1.54v-4.452h-1.05v4.774c0 1.47.742 2.156 2.156 2.156 1.008 0 1.89-.532 2.408-1.12V364h1.05Zm7.375 0v-4.648c0-1.638-1.19-2.282-2.618-2.282-1.106 0-1.974.364-2.702 1.12l.49.728c.602-.644 1.26-.938 2.072-.938.98 0 1.708.518 1.708 1.428v1.218c-.546-.63-1.316-.924-2.24-.924-1.148 0-2.366.714-2.366 2.226 0 1.47 1.218 2.24 2.366 2.24.91 0 1.68-.322 2.24-.938v.77h1.05Zm-1.05-1.428c-.406.56-1.12.84-1.862.84-.98 0-1.666-.616-1.666-1.47 0-.868.686-1.484 1.666-1.484.742 0 1.456.28 1.862.84v1.274Zm4.205 1.428v-9.338h-1.05V364h1.05Zm2.612-7.896a.717.717 0 0 0 .714-.714c0-.392-.322-.7-.714-.7-.378 0-.7.308-.7.7 0 .392.322.714.7.714Zm.532 7.896v-6.762h-1.05V364h1.05Zm3.439-5.838h1.372v-.924h-1.372v-.518c0-.854.378-1.33 1.064-1.33.266 0 .448.07.602.168l.266-.798c-.266-.168-.63-.238-1.022-.238-1.176 0-1.96.798-1.96 2.198v.518h-1.12v.924h1.12V364h1.05v-5.838Zm3.136-2.058a.717.717 0 0 0 .714-.714c0-.392-.322-.7-.714-.7-.378 0-.7.308-.7.7 0 .392.322.714.7.714Zm.532 7.896v-6.762h-1.05V364h1.05Zm1.719-3.388c0 2.016 1.358 3.556 3.374 3.556 1.232 0 1.96-.504 2.478-1.176l-.7-.644c-.448.602-1.022.882-1.722.882-1.442 0-2.338-1.12-2.338-2.618 0-1.498.896-2.604 2.338-2.604.7 0 1.274.266 1.722.882l.7-.644c-.518-.672-1.246-1.176-2.478-1.176-2.016 0-3.374 1.54-3.374 3.542ZM215.01 364v-4.648c0-1.638-1.19-2.282-2.618-2.282-1.106 0-1.974.364-2.702 1.12l.49.728c.602-.644 1.26-.938 2.072-.938.98 0 1.708.518 1.708 1.428v1.218c-.546-.63-1.316-.924-2.24-.924-1.148 0-2.366.714-2.366 2.226 0 1.47 1.218 2.24 2.366 2.24.91 0 1.68-.322 2.24-.938v.77h1.05Zm-1.05-1.428c-.406.56-1.12.84-1.862.84-.98 0-1.666-.616-1.666-1.47 0-.868.686-1.484 1.666-1.484.742 0 1.456.28 1.862.84v1.274Zm4.862 1.596c.616 0 .994-.182 1.26-.434l-.308-.784c-.14.154-.42.28-.714.28-.462 0-.686-.364-.686-.868v-4.2h1.372v-.924h-1.372v-1.848h-1.05v1.848h-1.12v.924h1.12v4.424c0 1.008.504 1.582 1.498 1.582Zm2.926-8.064a.717.717 0 0 0 .714-.714c0-.392-.322-.7-.714-.7-.378 0-.7.308-.7.7 0 .392.322.714.7.714Zm.532 7.896v-6.762h-1.05V364h1.05Zm5.048.168c2.058 0 3.346-1.596 3.346-3.556s-1.288-3.542-3.346-3.542-3.346 1.582-3.346 3.542c0 1.96 1.288 3.556 3.346 3.556Zm0-.938c-1.442 0-2.254-1.232-2.254-2.618 0-1.372.812-2.604 2.254-2.604s2.24 1.232 2.24 2.604c0 1.386-.798 2.618-2.24 2.618ZM238 364v-4.746c0-1.47-.742-2.184-2.156-2.184-1.008 0-1.932.588-2.408 1.148v-.98h-1.05V364h1.05v-4.942c.392-.546 1.176-1.05 2.002-1.05.91 0 1.512.378 1.512 1.568V364H238Zm1.509-.896c.686.728 1.624 1.064 2.73 1.064 1.75 0 2.66-.91 2.66-2.044 0-1.498-1.358-1.834-2.534-2.1-.882-.21-1.652-.42-1.652-1.078 0-.602.574-1.022 1.498-1.022.868 0 1.61.364 2.016.854l.49-.728c-.546-.546-1.358-.98-2.506-.98-1.61 0-2.52.896-2.52 1.946 0 1.4 1.302 1.708 2.45 1.974.91.224 1.736.462 1.736 1.204 0 .658-.56 1.12-1.596 1.12-.924 0-1.778-.448-2.226-.966l-.546.756Z"/><rect width="264" height="40" x="40" y="384" fill="#fff" rx="3"/><g clip-path="url(#s)"><path fill="#6366F1" d="M92 416c6.627 0 12-5.373 12-12s-5.373-12-12-12-12 5.373-12 12 5.373 12 12 12Z"/><path fill="#fff" d="M94.764 405.181c1.78 0 3.236 1.461 3.236 3.248v.371H86.6v-.371c0-1.787 1.456-3.248 3.236-3.248h4.928ZM92.3 397.4a3.348 3.348 0 1 1 0 6.696 3.348 3.348 0 0 1 0-6.696Z"/></g><path fill="#6366F1" d="m125.492 408 2.66-9.338h-1.288l-2.058 7.784-2.142-7.784h-.966l-2.142 7.784-2.072-7.784h-1.288l2.66 9.338h1.26l2.058-7.532 2.058 7.532h1.26Zm6.311.168c2.058 0 3.346-1.596 3.346-3.556s-1.288-3.542-3.346-3.542-3.346 1.582-3.346 3.542c0 1.96 1.288 3.556 3.346 3.556Zm0-.938c-1.442 0-2.254-1.232-2.254-2.618 0-1.372.812-2.604 2.254-2.604s2.24 1.232 2.24 2.604c0 1.386-.798 2.618-2.24 2.618Zm6.108.77v-4.788c.308-.546 1.19-1.078 1.834-1.078.168 0 .294.014.42.042v-1.078c-.924 0-1.708.518-2.254 1.232v-1.092h-1.05V408h1.05Zm9.521 0-3.01-3.696 2.996-3.066h-1.33l-3.556 3.598v-6.174h-1.05V408h1.05v-1.932l1.12-1.106 2.436 3.038h1.344Zm3.957-5.838v-.924h-1.372v-.518c0-.854.378-1.33 1.064-1.33.266 0 .448.07.602.168l.266-.798c-.266-.168-.63-.238-1.022-.238-1.176 0-1.96.798-1.96 2.198v.518h-1.12v.924h1.12V408h1.05v-5.838h1.372Zm2.296 5.838v-9.338h-1.05V408h1.05Zm5.065.168c2.058 0 3.346-1.596 3.346-3.556s-1.288-3.542-3.346-3.542-3.346 1.582-3.346 3.542c0 1.96 1.288 3.556 3.346 3.556Zm0-.938c-1.442 0-2.254-1.232-2.254-2.618 0-1.372.812-2.604 2.254-2.604s2.24 1.232 2.24 2.604c0 1.386-.798 2.618-2.24 2.618Zm11.96.77 2.156-6.762h-1.092l-1.652 5.39-1.778-5.39h-.896l-1.778 5.39-1.652-5.39h-1.092l2.156 6.762h1.05l1.764-5.432L169.66 408h1.05Zm6.652-4.662c0 2.898 2.142 4.844 4.802 4.844 1.526 0 2.8-.644 3.668-1.61v-3.374h-4.368v1.036h3.206v1.904c-.462.462-1.386 1.008-2.506 1.008-2.044 0-3.598-1.596-3.598-3.808 0-2.226 1.554-3.794 3.598-3.794 1.12 0 2.114.532 2.702 1.288l.924-.574c-.826-1.022-1.974-1.75-3.626-1.75-2.66 0-4.802 1.932-4.802 4.83ZM188.729 408v-4.788c.308-.546 1.19-1.078 1.834-1.078.168 0 .294.014.42.042v-1.078c-.924 0-1.708.518-2.254 1.232v-1.092h-1.05V408h1.05Zm6.525.168c2.058 0 3.346-1.596 3.346-3.556s-1.288-3.542-3.346-3.542-3.346 1.582-3.346 3.542c0 1.96 1.288 3.556 3.346 3.556Zm0-.938c-1.442 0-2.254-1.232-2.254-2.618 0-1.372.812-2.604 2.254-2.604s2.24 1.232 2.24 2.604c0 1.386-.798 2.618-2.24 2.618Zm10.672.77v-6.762h-1.05v4.97c-.392.546-1.176 1.022-2.002 1.022-.91 0-1.512-.35-1.512-1.54v-4.452h-1.05v4.774c0 1.47.742 2.156 2.156 2.156 1.008 0 1.89-.532 2.408-1.12V408h1.05Zm3.147-1.022c.546.756 1.358 1.19 2.282 1.19 1.778 0 3.01-1.372 3.01-3.556 0-2.198-1.232-3.542-3.01-3.542-.952 0-1.792.49-2.282 1.176v-1.008h-1.05v9.338h1.05v-3.598Zm4.186-2.366c0 1.498-.812 2.618-2.17 2.618-.826 0-1.652-.504-2.016-1.092v-3.052c.364-.588 1.19-1.078 2.016-1.078 1.358 0 2.17 1.106 2.17 2.604Zm2.215 2.492c.686.728 1.624 1.064 2.73 1.064 1.75 0 2.66-.91 2.66-2.044 0-1.498-1.358-1.834-2.534-2.1-.882-.21-1.652-.42-1.652-1.078 0-.602.574-1.022 1.498-1.022.868 0 1.61.364 2.016.854l.49-.728c-.546-.546-1.358-.98-2.506-.98-1.61 0-2.52.896-2.52 1.946 0 1.4 1.302 1.708 2.45 1.974.91.224 1.736.462 1.736 1.204 0 .658-.56 1.12-1.596 1.12-.924 0-1.778-.448-2.226-.966l-.546.756Z"/><g fill="#52525B" clip-path="url(#t)"><path d="m56.989 451.011 2.007-4.015 4.015-2.007-2.007 4.015-4.015 2.007Z"/><path d="M48 448c0-6.627 5.373-12 12-12s12 5.373 12 12-5.373 12-12 12-12-5.373-12-12Zm17.516-4.442a.801.801 0 0 0-1.074-1.074l-6.4 3.2a.802.802 0 0 0-.358.358l-3.2 6.4a.8.8 0 0 0 1.074 1.074l6.4-3.2a.803.803 0 0 0 .358-.358l3.2-6.4Z"/></g><path fill="#52525B" d="M86.254 452v-9.338h-1.162V452h1.162Zm7.76 0v-4.746c0-1.47-.742-2.184-2.156-2.184-1.008 0-1.932.588-2.408 1.148v-.98H88.4V452h1.05v-4.942c.392-.546 1.176-1.05 2.002-1.05.91 0 1.512.378 1.512 1.568V452h1.05Zm3.805.168c.615 0 .993-.182 1.26-.434l-.308-.784c-.14.154-.42.28-.715.28-.462 0-.685-.364-.685-.868v-4.2h1.372v-.924H97.37v-1.848h-1.05v1.848H95.2v.924h1.12v4.424c0 1.008.504 1.582 1.498 1.582Zm2.015-3.556c0 2.114 1.442 3.556 3.444 3.556 1.106 0 2.016-.364 2.688-1.036l-.504-.686c-.532.546-1.316.854-2.086.854-1.456 0-2.352-1.064-2.436-2.338h5.474v-.266c0-2.03-1.204-3.626-3.248-3.626-1.932 0-3.332 1.582-3.332 3.542Zm3.318-2.674c1.54 0 2.212 1.246 2.226 2.254h-4.438c.056-1.036.77-2.254 2.212-2.254Zm4.948 7.798c.798.784 1.582 1.008 2.73 1.008 1.652 0 3.22-.7 3.22-2.94v-6.566H113v1.022c-.546-.742-1.358-1.19-2.268-1.19-1.778 0-3.01 1.344-3.01 3.514 0 2.184 1.246 3.5 3.01 3.5.952 0 1.778-.518 2.268-1.204v.966c0 1.484-1.05 2.03-2.17 2.03-.966 0-1.638-.252-2.198-.924l-.532.784Zm4.9-3.682c-.364.588-1.176 1.106-2.016 1.106-1.358 0-2.17-1.092-2.17-2.576 0-1.498.812-2.576 2.17-2.576.84 0 1.652.504 2.016 1.092v2.954Zm4.204 1.946v-4.788c.308-.546 1.19-1.078 1.834-1.078.168 0 .294.014.42.042v-1.078c-.924 0-1.708.518-2.254 1.232v-1.092h-1.05V452h1.05Zm8.849 0v-4.648c0-1.638-1.19-2.282-2.618-2.282-1.106 0-1.974.364-2.702 1.12l.49.728c.602-.644 1.26-.938 2.072-.938.98 0 1.708.518 1.708 1.428v1.218c-.546-.63-1.316-.924-2.24-.924-1.148 0-2.366.714-2.366 2.226 0 1.47 1.218 2.24 2.366 2.24.91 0 1.68-.322 2.24-.938v.77h1.05Zm-1.05-1.428c-.406.56-1.12.84-1.862.84-.98 0-1.666-.616-1.666-1.47 0-.868.686-1.484 1.666-1.484.742 0 1.456.28 1.862.84v1.274Zm4.862 1.596c.616 0 .994-.182 1.26-.434l-.308-.784c-.14.154-.42.28-.714.28-.462 0-.686-.364-.686-.868v-4.2h1.372v-.924h-1.372v-1.848h-1.05v1.848h-1.12v.924h1.12v4.424c0 1.008.504 1.582 1.498 1.582Zm2.926-8.064a.717.717 0 0 0 .714-.714c0-.392-.322-.7-.714-.7-.378 0-.7.308-.7.7 0 .392.322.714.7.714Zm.532 7.896v-6.762h-1.05V452h1.05Zm5.048.168c2.058 0 3.346-1.596 3.346-3.556s-1.288-3.542-3.346-3.542-3.346 1.582-3.346 3.542c0 1.96 1.288 3.556 3.346 3.556Zm0-.938c-1.442 0-2.254-1.232-2.254-2.618 0-1.372.812-2.604 2.254-2.604s2.24 1.232 2.24 2.604c0 1.386-.798 2.618-2.24 2.618Zm10.672.77v-4.746c0-1.47-.742-2.184-2.156-2.184-1.008 0-1.932.588-2.408 1.148v-.98h-1.05V452h1.05v-4.942c.392-.546 1.176-1.05 2.002-1.05.91 0 1.512.378 1.512 1.568V452h1.05Zm14.89 0v-9.338h-1.666l-2.912 7.112-2.898-7.112h-1.666V452h1.162v-7.77l3.164 7.77h.476l3.178-7.77V452h1.162Zm7.415 0v-4.648c0-1.638-1.19-2.282-2.618-2.282-1.106 0-1.974.364-2.702 1.12l.49.728c.602-.644 1.26-.938 2.072-.938.98 0 1.708.518 1.708 1.428v1.218c-.546-.63-1.316-.924-2.24-.924-1.148 0-2.366.714-2.366 2.226 0 1.47 1.218 2.24 2.366 2.24.91 0 1.68-.322 2.24-.938v.77h1.05Zm-1.05-1.428c-.406.56-1.12.84-1.862.84-.98 0-1.666-.616-1.666-1.47 0-.868.686-1.484 1.666-1.484.742 0 1.456.28 1.862.84v1.274Zm8.768 1.428v-4.746c0-1.47-.742-2.184-2.156-2.184-1.008 0-1.932.588-2.408 1.148v-.98h-1.05V452h1.05v-4.942c.392-.546 1.176-1.05 2.002-1.05.91 0 1.512.378 1.512 1.568V452h1.05Zm7.375 0v-4.648c0-1.638-1.19-2.282-2.618-2.282-1.106 0-1.974.364-2.702 1.12l.49.728c.602-.644 1.26-.938 2.072-.938.98 0 1.708.518 1.708 1.428v1.218c-.546-.63-1.316-.924-2.24-.924-1.148 0-2.366.714-2.366 2.226 0 1.47 1.218 2.24 2.366 2.24.91 0 1.68-.322 2.24-.938v.77h1.05Zm-1.05-1.428c-.406.56-1.12.84-1.862.84-.98 0-1.666-.616-1.666-1.47 0-.868.686-1.484 1.666-1.484.742 0 1.456.28 1.862.84v1.274Zm3.141 3.164c.798.784 1.582 1.008 2.73 1.008 1.652 0 3.22-.7 3.22-2.94v-6.566h-1.05v1.022c-.546-.742-1.358-1.19-2.268-1.19-1.778 0-3.01 1.344-3.01 3.514 0 2.184 1.246 3.5 3.01 3.5.952 0 1.778-.518 2.268-1.204v.966c0 1.484-1.05 2.03-2.17 2.03-.966 0-1.638-.252-2.198-.924l-.532.784Zm4.9-3.682c-.364.588-1.176 1.106-2.016 1.106-1.358 0-2.17-1.092-2.17-2.576 0-1.498.812-2.576 2.17-2.576.84 0 1.652.504 2.016 1.092v2.954Zm2.761-1.442c0 2.114 1.442 3.556 3.444 3.556 1.106 0 2.016-.364 2.688-1.036l-.504-.686c-.532.546-1.316.854-2.086.854-1.456 0-2.352-1.064-2.436-2.338h5.474v-.266c0-2.03-1.204-3.626-3.248-3.626-1.932 0-3.332 1.582-3.332 3.542Zm3.318-2.674c1.54 0 2.212 1.246 2.226 2.254h-4.438c.056-1.036.77-2.254 2.212-2.254ZM213.686 452v-4.886c0-1.358-.658-2.044-1.89-2.044-.98 0-1.89.644-2.268 1.26-.196-.7-.784-1.26-1.82-1.26-.994 0-1.904.714-2.184 1.148v-.98h-1.05V452h1.05v-4.942c.364-.546 1.092-1.05 1.778-1.05.882 0 1.246.546 1.246 1.4V452h1.05v-4.956c.35-.532 1.092-1.036 1.792-1.036.868 0 1.246.546 1.246 1.4V452h1.05Zm1.702-3.388c0 2.114 1.442 3.556 3.444 3.556 1.106 0 2.016-.364 2.688-1.036l-.504-.686c-.532.546-1.316.854-2.086.854-1.456 0-2.352-1.064-2.436-2.338h5.474v-.266c0-2.03-1.204-3.626-3.248-3.626-1.932 0-3.332 1.582-3.332 3.542Zm3.318-2.674c1.54 0 2.212 1.246 2.226 2.254h-4.438c.056-1.036.77-2.254 2.212-2.254ZM229.283 452v-4.746c0-1.47-.742-2.184-2.156-2.184-1.008 0-1.932.588-2.408 1.148v-.98h-1.05V452h1.05v-4.942c.392-.546 1.176-1.05 2.002-1.05.91 0 1.512.378 1.512 1.568V452h1.05Zm3.805.168c.616 0 .994-.182 1.26-.434l-.308-.784c-.14.154-.42.28-.714.28-.462 0-.686-.364-.686-.868v-4.2h1.372v-.924h-1.372v-1.848h-1.05v1.848h-1.12v.924h1.12v4.424c0 1.008.504 1.582 1.498 1.582Z"/><path fill="#fff" d="M0 68h1440v92H0z"/><path fill="#000" d="M33.14 120.18c1.65 1.86 4.2 3.18 7.68 3.18 5.4 0 7.38-2.97 7.38-5.88 0-4.2-3.72-5.22-6.99-6.09-2.55-.69-4.86-1.29-4.86-3.3 0-1.89 1.71-3.18 4.11-3.18 2.19 0 4.29.75 5.79 2.4l1.5-1.83c-1.68-1.77-4.05-2.79-7.11-2.79-3.93 0-6.87 2.25-6.87 5.55 0 3.93 3.57 4.83 6.78 5.67 2.64.72 5.07 1.38 5.07 3.78 0 1.53-1.14 3.45-4.71 3.45-2.82 0-4.98-1.38-6.3-2.85l-1.47 1.89Zm17.848-4.44c0 4.53 3.09 7.62 7.38 7.62 2.37 0 4.32-.78 5.76-2.22l-1.08-1.47c-1.14 1.17-2.82 1.83-4.47 1.83-3.12 0-5.04-2.28-5.22-5.01h11.73v-.57c0-4.35-2.58-7.77-6.96-7.77-4.14 0-7.14 3.39-7.14 7.59Zm7.11-5.73c3.3 0 4.74 2.67 4.77 4.83h-9.51c.12-2.22 1.65-4.83 4.74-4.83Zm14.294 13.35c1.32 0 2.13-.39 2.7-.93l-.66-1.68c-.3.33-.9.6-1.53.6-.99 0-1.47-.78-1.47-1.86v-9h2.94v-1.98h-2.94v-3.96h-2.25v3.96h-2.4v1.98h2.4v9.48c0 2.16 1.08 3.39 3.21 3.39Zm8.819 0c1.32 0 2.13-.39 2.7-.93l-.66-1.68c-.3.33-.9.6-1.53.6-.99 0-1.47-.78-1.47-1.86v-9h2.94v-1.98h-2.94v-3.96H78v3.96h-2.4v1.98H78v9.48c0 2.16 1.08 3.39 3.21 3.39Zm6.268-17.28c.84 0 1.53-.69 1.53-1.53 0-.84-.69-1.5-1.53-1.5-.81 0-1.5.66-1.5 1.5s.69 1.53 1.5 1.53ZM88.62 123v-14.49h-2.25V123h2.25Zm16.518 0v-10.17c0-3.15-1.59-4.68-4.62-4.68-2.16 0-4.14 1.26-5.16 2.46v-2.1h-2.25V123h2.25v-10.59c.84-1.17 2.52-2.25 4.29-2.25 1.95 0 3.24.81 3.24 3.36V123h2.25Zm4.464 3.72c1.71 1.68 3.39 2.16 5.85 2.16 3.54 0 6.9-1.5 6.9-6.3v-14.07h-2.25v2.19c-1.17-1.59-2.91-2.55-4.86-2.55-3.81 0-6.45 2.88-6.45 7.53 0 4.68 2.67 7.5 6.45 7.5 2.04 0 3.81-1.11 4.86-2.58v2.07c0 3.18-2.25 4.35-4.65 4.35-2.07 0-3.51-.54-4.71-1.98l-1.14 1.68Zm10.5-7.89c-.78 1.26-2.52 2.37-4.32 2.37-2.91 0-4.65-2.34-4.65-5.52 0-3.21 1.74-5.52 4.65-5.52 1.8 0 3.54 1.08 4.32 2.34v6.33Zm5.496 2.25c1.47 1.56 3.48 2.28 5.85 2.28 3.75 0 5.7-1.95 5.7-4.38 0-3.21-2.91-3.93-5.43-4.5-1.89-.45-3.54-.9-3.54-2.31 0-1.29 1.23-2.19 3.21-2.19 1.86 0 3.45.78 4.32 1.83l1.05-1.56c-1.17-1.17-2.91-2.1-5.37-2.1-3.45 0-5.4 1.92-5.4 4.17 0 3 2.79 3.66 5.25 4.23 1.95.48 3.72.99 3.72 2.58 0 1.41-1.2 2.4-3.42 2.4-1.98 0-3.81-.96-4.77-2.07l-1.17 1.62Z"/><path fill="#121D2D" d="M0 0h1440v68H0z"/><path fill="#FCC404" d="m44.842 14.848 16.631 9.576v19.152l-16.63 9.576-16.632-9.576V24.424l16.631-9.576Zm0-4.848L24 22v24.002L44.842 58l20.842-12V22L44.842 10Z"/><path fill="#E1C044" d="m43.983 31.525 2.772 4.799-15.184 5.546 12.412-10.345Z"/><path fill="#FCD653" d="m46.755 36.324-2.772-4.799L59.17 25.98 46.755 36.324Z"/><defs><clipPath id="a"><path fill="#fff" d="M456 225.769h12v6.462h-12z"/></clipPath><clipPath id="c"><path fill="#fff" d="M384 292h284v41H384z"/></clipPath><clipPath id="d"><path fill="#fff" d="M402 362.625h-18v-11.25h18z"/></clipPath><clipPath id="e"><path fill="#fff" d="M472 393h173v48H472z"/></clipPath><clipPath id="f"><path fill="#fff" d="M708 393h173v48H708z"/></clipPath><clipPath id="g"><path fill="#fff" d="M944 393h173v48H944z"/></clipPath><clipPath id="h"><path fill="#fff" d="M1180 393h173v48h-173z"/></clipPath><clipPath id="i"><path fill="#fff" d="M472 457h173v48H472z"/></clipPath><clipPath id="j"><path fill="#fff" d="M768 570h244v36H768z"/></clipPath><clipPath id="k"><path fill="#fff" d="M768 570h112v36H768z"/></clipPath><clipPath id="l"><path fill="#fff" d="M780 581h8.75v14H780z"/></clipPath><clipPath id="m"><path fill="#fff" d="M869 595h-8.75v-14H869z"/></clipPath><clipPath id="n"><rect width="108" height="36" x="904" y="570" fill="#fff" rx="3"/></clipPath><clipPath id="o"><path fill="#fff" d="M48 218h20v20H48z"/></clipPath><clipPath id="p"><path fill="#fff" d="M48 260h20v24H48z"/></clipPath><clipPath id="q"><path fill="#fff" d="M80 304h24v24H80z"/></clipPath><clipPath id="r"><path fill="#fff" d="M80 348h24v24H80z"/></clipPath><clipPath id="s"><path fill="#fff" d="M80 392h24v24H80z"/></clipPath><clipPath id="t"><path fill="#fff" d="M48 436h24v24H48z"/></clipPath><filter id="b" width="1052" height="269" x="364" y="276" color-interpolation-filters="sRGB" filterUnits="userSpaceOnUse"><feFlood flood-opacity="0" result="BackgroundImageFix"/><feColorMatrix in="SourceAlpha" result="hardAlpha" values="0 0 0 0 0 0 0 0 0 0 0 0 0 0 0 0 0 0 127 0"/><feOffset dy="4"/><feGaussianBlur stdDeviation="2"/><feComposite in2="hardAlpha" operator="out"/><feColorMatrix values="0 0 0 0 0 0 0 0 0 0 0 0 0 0 0 0 0 0 0.25 0"/><feBlend in2="BackgroundImageFix" result="effect1_dropShadow_115_12797"/><feBlend in="SourceGraphic" in2="effect1_dropShadow_115_12797" result="shape"/></filter></defs></svg>